<svg xmlns="http://www.w3.org/2000/svg" width="9.788" height="17.899" viewBox="0 0 9.788 17.899">
  <path id="Path_1386" data-name="Path 1386" d="M8.949,0a.837.837,0,0,0-.584.237c-.02.02-2.049,1.994-4.053,3.971-1.179,1.163-2.12,2.1-2.8,2.786C1.111,7.4.8,7.73.58,7.96c-.368.393-.552.59-.578.927a.837.837,0,0,0,.773.9c.021,0,.042,0,.063,0a.838.838,0,0,0,.724-.417C2.05,8.777,6.1,4.79,8.942,2.015l7.526,7.527a.838.838,0,0,0,1.185-1.185L9.542.246A.835.835,0,0,0,8.949,0Z" transform="translate(9.788) rotate(90)" fill="#0a0a0a"/>
</svg>
