<svg xmlns="http://www.w3.org/2000/svg" width="29.259" height="28.522" viewBox="0 0 29.259 28.522">
  <g id="_7-Check" data-name="7-Check" transform="translate(-32.027)">
    <path id="Path_12" data-name="Path 12" d="M35.068,50.782a3.05,3.05,0,0,0-2.357,4.974l7.747,9.49a2.768,2.768,0,0,0,2.314,1.027,2.969,2.969,0,0,0,2.33-1.381L61.195,38.976l.008-.013a.834.834,0,0,0-.21-.98.855.855,0,0,0-1.242.086l-.018.021L43.5,56.428a.7.7,0,0,1-1,.054l-5.386-4.9A3.036,3.036,0,0,0,35.068,50.782Z" transform="translate(0 -37.756)" fill="#f6f6f6"/>
  </g>
</svg>
