<svg xmlns="http://www.w3.org/2000/svg" viewBox="0 0 522.21 427.48">
  <g id="Group_1133" data-name="Group 1133" transform="translate(0)">
    <g id="Group_1132" data-name="Group 1132">
      <path id="Path_60" data-name="Path 60" d="M374.965,118.6c-24.7-31.847-76-56.975-130.483-64.7S132.32,55.869,100.217,72.74,61.581,113.672,59.53,144.372s.381,68.041,20.365,84.217,57.52,11.188,100.5,15.9,91.41,19.126,128.233,17.926,62.039-18.015,75.593-45.707,15.444-66.258-9.257-98.106Z" transform="translate(52.894 -33.672)" fill="#c4dbec" fill-rule="evenodd"/>
      <path id="Path_61" data-name="Path 61" d="M302.213,408.4c-80.966,0-87.623,0-128.257-.958-36.733-.866-41.2-3.075-41.1-7.378a8.8,8.8,0,0,1,.285-1.837v-.009l.006-.026h0c.436-1.9.964-4.3,1.426-6.926a65.408,65.408,0,0,0,.952-7.85c.085-1.721.065-3.356.044-5a48.416,48.416,0,0,1,.84-11.529c.548-2.542,1.43-5.283,2.438-8.416a136.777,136.777,0,0,0,4.466-16.509,169.444,169.444,0,0,0,2.355-17.932c.583-7.022.858-14.14.831-20.4-.007-1.678-.037-3.334-.065-4.96-.149-8.4-.285-16.079,2.573-27.264-2.743,1.1-5.621,2.044-8.695,2.979a107.685,107.685,0,0,1-17.625,4.123,35.892,35.892,0,0,1-6.515.252c-.792,4.25-1.426,8.495-1.861,12.926-1.253,12.754-.9,27.219-.536,41.791.059,2.438.12,4.88.175,7.408.068,3.171.125,6.394.182,9.568.238,13.586.463,26.318,1.649,35.048a61.312,61.312,0,0,0,3.846,14.867,20.72,20.72,0,0,1,1.045,3.164c.513,2.623-.223,3.917-3.347,4.516-1.791.344-4.641.344-9.312.344-9.167,0-25.485,0-33.13-1.193-8.632-1.347-8.238-3.695-6.666-13.013.192-1.138.4-2.382.536-3.237.918-5.871,1.923-14.354,2.481-24.247.227-4.028.38-8.281.421-12.674a86.35,86.35,0,0,0-2.714,9.185c-.875,3.6-1.663,7.5-2.456,11.6-.379,1.958-.617,3.206-.847,4.413-1.31,6.865-2.612,13.7-3.889,18.232-.868,3.083-1.757,5.225-3.636,6.864-1.826,1.593-4.389,2.488-8.563,3.045-7.67,1.027-21.23,1.027-29.44,1.027a88.7,88.7,0,0,1-9-.24c-2.49-.29-3.965-.938-5.1-2.272a7.883,7.883,0,0,1-1.628-5.684,17.728,17.728,0,0,1,1.93-6.664c1.721-3.52,4.647-7.489,7.726-11.669,1.27-1.723,2.566-3.482,3.83-5.284a82.783,82.783,0,0,0,5.827-9.443,97.513,97.513,0,0,0,5.526-13.006c1.62-4.614,3.292-10.136,4.873-15.774,2.1-7.475,4-15,5.413-20.908a114.633,114.633,0,0,0,2.564-12.828A42.078,42.078,0,0,0,42,293.811c-.576-4.491-1.829-9.922-3.021-15.087-.938-4.061-1.838-7.961-2.37-11.271a28.829,28.829,0,0,1-.355-8.9c.489-2.911,1.827-4.561,3.9-5,1.673-.351,3.632.281,5.786,1.679a41.953,41.953,0,0,1,6.688,5.769,50.147,50.147,0,0,1,7.287,9.254,71.342,71.342,0,0,1,7.065,16.3,188.521,188.521,0,0,1,5.713,26.071c.8,5.2,1.474,10.628,1.981,16.112l.024-.307a109.611,109.611,0,0,0-1.179-25.027,91.127,91.127,0,0,0-6.455-22.428,87.548,87.548,0,0,0-12.468-19.775,100.027,100.027,0,0,0-17.842-16.971c-4.866-3.529-8.9-5.558-12.274-6.313a9.958,9.958,0,0,0-7.727,1.011c-2.2,1.36-4.037,3.728-5.575,7.171A59.645,59.645,0,0,0,7.3,260.635c-1.627,10.1-2.417,23.608-3.17,36.492-.169,2.892-.336,5.756-.5,8.367-.258,4.13-.514,7.854-.759,11.422-.712,10.361-1.337,19.451-1.3,26.967.024,4.839.331,9.209.614,13.228A116.287,116.287,0,0,1,2.624,369.4a102.963,102.963,0,0,1-1.2,11.242,82.734,82.734,0,0,0-1.014,9.312,59.367,59.367,0,0,0,.264,6.183c.284,3.6.514,6.522-.822,8.706-1.162,1.9-3.184,2.813-6.331,3.218a92.791,92.791,0,0,1-10.761.348c-8.842,0-21.862,0-28.1-.976-1.821.238-3.984.417-6.644.552-4.643.235-10.77.34-19.24.386a99.632,99.632,0,0,1-8.711,11.638c-1.96,2.359-3.841,4.626-5.486,6.992a77.152,77.152,0,0,0-6.486,11.916c-1.514,3.265-2.714,5.848-4.155,7.26-3.351,3.281-6.175.894-9.352-1.79-.58-.49-1.176-.994-1.8-1.464a39.16,39.16,0,0,0-7.712-4.17c-.888-.4-1.783-.8-2.534-1.155a29.814,29.814,0,0,1-5.382-3.081c-1.958-1.522-3.06-3.282-2.456-5.343.649-2.219,3.369-3.9,6.551-5.862,1.307-.806,2.7-1.668,4.036-2.618a30.747,30.747,0,0,0,5.511-5,42.383,42.383,0,0,0,4.972-7.291H-220v-4.083h117.849a75.623,75.623,0,0,0,3.143-7.817,65.568,65.568,0,0,0,2.872-11.9,66.511,66.511,0,0,0,.373-13.633,139.583,139.583,0,0,0-2-15.171c-.808-4.522-1.7-8.886-2.645-13.546-1.527-7.5-3.2-15.748-4.689-25.01-1.28-7.986-2.416-16.732-3.214-25.261-.721-7.7-1.164-15.227-1.19-21.859q-.01-2.637.062-5.079c-1.172.105-2.253.161-3.245.174a17.411,17.411,0,0,1-7.706-1.288,5.849,5.849,0,0,1-1.818-1.318c-2.346,1.053-4.929,2.1-7.562,3.024a63.419,63.419,0,0,1-9.471,2.585,41.323,41.323,0,0,1-8.172.657,30.606,30.606,0,0,1-7.518-1.014,9.2,9.2,0,0,1-2.863-1.265,3.369,3.369,0,0,1-1.29-1.694,2.764,2.764,0,0,1,.315-2.36,4.309,4.309,0,0,1,1.211-1.256,28.113,28.113,0,0,1,5.561-2.51c1.309-.5,2.835-1.09,4.863-1.935,2.5-1.041,5.387-2.341,8.518-3.926s6.531-3.467,10.077-5.684,7.156-4.709,10.4-6.947c3.393-2.343,6.39-4.412,8.495-5.61.285-2.525.618-5.263,1.061-8.174.986-6.48,2.581-14.235,4.01-21.191.841-4.094,1.626-7.912,2.179-10.946a119.76,119.76,0,0,0,1.671-12.737c.1-1.158.2-2.29.362-3.792.272-2.473.677-5.269,1.277-8.3a101.449,101.449,0,0,1,2.5-9.907c.509-1.67,1.087-3.4,1.676-5.173q-.4-.184-.79-.379A30.177,30.177,0,0,1-108.129,142.7a45,45,0,0,1-5.947-18.1,98.58,98.58,0,0,1,.679-26.687,111.274,111.274,0,0,1,7.431-26.653A96.692,96.692,0,0,1-93.573,50.273a76.693,76.693,0,0,1,16.3-15.988c4.787-3.285,8.848-4.705,12.7-4.98a27.454,27.454,0,0,1,11.114,1.884c2.47.848,5.154,1.924,8.133,3.12,1.564.627,3.212,1.289,4.969,1.97A163.673,163.673,0,0,1-20.4,35.69c1.462.015,2.9.029,5.37.029A98.447,98.447,0,0,0-3.6,35.182,103.713,103.713,0,0,0,9.918,32.618c3.831-.953,8.314-2.208,13.066-3.539,8.774-2.457,18.465-5.171,27.085-6.826a101.1,101.1,0,0,1,18.643-1.965,87.184,87.184,0,0,1,17.481,1.7,94.462,94.462,0,0,1,18.4,5.521,86.318,86.318,0,0,1,18.848,10.84A122.151,122.151,0,0,1,139.8,53.574c1.892.274,3.69.568,5.41.884a125.968,125.968,0,0,1,19.673,5.284,118.185,118.185,0,0,1,17.735,7.648,59.124,59.124,0,0,1,15.228,11.52,60.853,60.853,0,0,1,10.369,16.165,134.184,134.184,0,0,1,6.6,18.529,178.074,178.074,0,0,1,4.52,19.3,155.043,155.043,0,0,1,2.155,21.827,223.093,223.093,0,0,1-.864,26.123,261.6,261.6,0,0,1-3.864,27.246c-1.8,9.148-4.115,18.115-6.8,27.218-2.682,9.087-5.721,18.258-8.994,27.866-1.434,4.209-2.452,7.17-3.47,10.132-5.571,16.212-11.3,32.874-14.8,46.188a209.721,209.721,0,0,0-6.211,37.523l-.012.13-.02.218c-.928,10-1.741,18.759-.734,24.7a26.84,26.84,0,0,0,3.815,9.536c.559.96,1.075,1.847,1.5,2.752.028.06.081.176.157.344a9.85,9.85,0,0,1,1,5.072,5.062,5.062,0,0,1-2.191,3.73c41.7.814,44.8.814,122.21.814V408.4Zm-165.286-8.241c-.035,1.494,3.628,2.349,32.439,3.1a15.187,15.187,0,0,1-3.834-2.721c-2.15-2.091-3.961-5.032-5.143-9.966-1.114-4.655-1.676-11.17-1.434-20.614a317.017,317.017,0,0,1,3.784-38.855,351.5,351.5,0,0,1,8.319-39.2c3.953-14.319,8.982-28.319,13.8-41.745,4.882-13.591,9.551-26.588,12.666-38.784a151.245,151.245,0,0,0,4.809-32.006,103.284,103.284,0,0,0-2.646-28.262c-2.058-8.369-5.174-15.466-9.732-19.871a16.787,16.787,0,0,0-14.859-4.556c-6.681.974-14.923,5-23.566,10.833a188.516,188.516,0,0,0-29.072,24.861c-5.524,5.725-10.627,11.656-15.549,17.376-10.6,12.325-20.38,23.688-31.97,30.311-13.268,7.582-28.5,8.754-42.4,9.823-3.957.3-7.8.6-11.452,1.037-7.922.949-14.883,2.564-20.687,5.589a31.3,31.3,0,0,0-13.673,13.8c-3.475,6.669-5.68,15.58-7.008,26.012a280.145,280.145,0,0,0-1.739,35.615c.036,8.921.312,18.287.581,27.438.513,17.431,1,34.093-.219,45.959-.955,9.279-2.962,15.688-5.551,20.235a22.966,22.966,0,0,1-8.134,8.544c5.876.208,12.758.208,18.1.208a93.935,93.935,0,0,0,10.251-.3c1.852-.239,2.944-.618,3.364-1.306.643-1.05.459-3.385.233-6.264a61.06,61.06,0,0,1-.264-6.6,84.714,84.714,0,0,1,1.046-9.791,100.615,100.615,0,0,0,1.17-10.81,114.5,114.5,0,0,0-.441-11.869c-.281-4.009-.588-8.37-.614-13.483-.04-7.784.586-16.882,1.3-27.254.256-3.726.524-7.611.759-11.39.178-2.846.338-5.583.5-8.352C.818,283.929,1.613,270.328,3.277,260a63.507,63.507,0,0,1,4.181-15.548c1.878-4.207,4.236-7.169,7.154-8.975a13.831,13.831,0,0,1,10.74-1.52c3.933.88,8.474,3.126,13.791,6.982a104.282,104.282,0,0,1,18.592,17.689,91.565,91.565,0,0,1,13.042,20.7,95.2,95.2,0,0,1,6.758,23.449,113.643,113.643,0,0,1,1.226,25.968,56.743,56.743,0,0,1-3.132,15.429c.243,8,.073,15.736-.324,22.768-.564,10-1.589,18.642-2.529,24.646-.238,1.521-.395,2.445-.536,3.284-1.025,6.08-1.283,7.613,3.269,8.323,7.234,1.13,23.417,1.13,32.507,1.13a63.112,63.112,0,0,0,8.547-.264c.041-.008.147.464.109.268a19.351,19.351,0,0,0-.854-2.493,64.961,64.961,0,0,1-4.069-15.776c-1.214-8.929-1.441-21.8-1.682-35.528-.055-3.132-.112-6.31-.181-9.552-.052-2.4-.113-4.9-.175-7.392-.363-14.7-.724-29.3.552-42.285.446-4.541,1.088-8.864,1.889-13.174a11.386,11.386,0,0,1-4.284-2.16c-3.446-2.877-4.527-7.875-4.089-14.835.4-6.436,2.1-14.681,4.361-24.592,2.523-11.04,5.755-24.154,8.947-35.348,2.534-8.889,5.063-16.631,7.229-21.3,1.411-3.038,2.772-4.926,4.013-5.786a3.209,3.209,0,0,1,3.692-.267,4.919,4.919,0,0,1,2,2.769c.909,2.623,1.194,7.466.673,13.9a220.8,220.8,0,0,1-3.455,22.9c-2.121,10.918-4.86,22.7-7.364,32.833-.842,3.406-1.522,6.1-2.175,8.687-1.8,7.15-3.421,13.553-4.723,19.815a34.43,34.43,0,0,0,5.24-.274,103.546,103.546,0,0,0,16.923-3.963,81.2,81.2,0,0,0,11.305-4.152c.236-.767.484-1.548.748-2.349a273.422,273.422,0,0,1,11.78-28.657c5.416-11.565,11.435-23.07,16.518-31.777A130.943,130.943,0,0,1,191.5,185.727a22.779,22.779,0,0,1,3.759-3.69c1.7-1.218,3.16-1.375,4.321-.522a2.726,2.726,0,0,1,.5.482c1.18,1.454.707,5.012-.981,10.217-1.478,4.562-3.886,10.76-6.9,18.109v.008c-3,7.325-6.593,15.785-10.482,23.809-3.933,8.113-8.18,15.815-12.453,21.538a45.215,45.215,0,0,1-13.553,12.479q-.927.545-1.869,1.039c-3.643,12.527-3.5,20.555-3.344,29.42.028,1.62.057,3.267.065,5.01.028,6.469-.247,13.715-.831,20.748a173.2,173.2,0,0,1-2.42,18.378,140.76,140.76,0,0,1-4.593,16.971c-.966,3-1.813,5.634-2.327,8.017a45.13,45.13,0,0,0-.761,10.636c.022,1.737.044,3.467-.043,5.235a69.049,69.049,0,0,1-1,8.361c-.461,2.63-1.015,5.137-1.475,7.141v.009l-.006.026h0a6.583,6.583,0,0,0-.187,1.016Zm29.728-163.1a282.771,282.771,0,0,0-10.936,26.28A42.7,42.7,0,0,0,166,253.239c4.116-5.514,8.231-12.983,12.055-20.869,3.867-7.978,7.423-16.348,10.386-23.586h0c2.952-7.21,5.318-13.3,6.78-17.815.682-2.1,1.18-3.743,1.463-4.84a27.318,27.318,0,0,0-2.081,2.23,127.223,127.223,0,0,0-11.6,17.267c-5.075,8.694-11.038,20.082-16.359,31.442ZM110.485,272.84a7.159,7.159,0,0,0,2.453,1.285c1.323-6.4,2.966-12.912,4.8-20.187.745-2.952,1.52-6.021,2.175-8.671,2.486-10.061,5.206-21.76,7.316-32.624a216.719,216.719,0,0,0,3.392-22.45c.477-5.9.279-10.154-.45-12.257l-.011-.031a16.64,16.64,0,0,0-2.145,3.7c-2.063,4.442-4.52,11.985-7.006,20.7-3.19,11.188-6.4,24.21-8.9,35.142-2.22,9.718-3.878,17.776-4.265,23.937-.354,5.637.333,9.53,2.638,11.453ZM71.534,343.493c-.012-.374-.026-.749-.04-1.125a260.927,260.927,0,0,0-2.84-29.126,184.662,184.662,0,0,0-5.57-25.48,67.334,67.334,0,0,0-6.651-15.378,46.153,46.153,0,0,0-6.712-8.522,38.264,38.264,0,0,0-6-5.211c-1.25-.811-2.2-1.218-2.739-1.1-.289.06-.529.613-.708,1.678a25.069,25.069,0,0,0,.355,7.591c.5,3.1,1.392,6.969,2.321,11,1.207,5.228,2.475,10.721,3.085,15.485a45.965,45.965,0,0,1,.087,11.813,118.97,118.97,0,0,1-2.66,13.29c-1.456,6.069-3.381,13.709-5.444,21.067-1.591,5.673-3.286,11.268-4.953,16.012A101.306,101.306,0,0,1,27.3,369.031a86.605,86.605,0,0,1-6.1,9.907c-1.249,1.779-2.577,3.582-3.878,5.347-2.984,4.05-5.819,7.9-7.359,11.047a13.681,13.681,0,0,0-1.515,5.1,3.983,3.983,0,0,0,.655,2.813c.393.462,1.109.71,2.47.868,1.788.209,4.507.209,8.54.209,8.146,0,21.6,0,28.915-.98,3.319-.443,5.241-1.054,6.408-2.071,1.116-.974,1.73-2.551,2.392-4.9,1.237-4.394,2.52-11.121,3.808-17.88.335-1.753.662-3.469.848-4.43.79-4.083,1.585-8.012,2.5-11.788a87.388,87.388,0,0,1,3.185-10.556c.472-1.232,1.012-2.5,1.56-3.786.6-1.417,1.216-2.86,1.8-4.435ZM-45.315,403.306l.029,0a19.163,19.163,0,0,0,6.771-2.066,18.959,18.959,0,0,0,7.767-7.686c2.331-4.092,4.149-9.978,5.041-18.639,1.2-11.629.711-28.149.2-45.433-.268-9.143-.544-18.5-.581-27.534a283.815,283.815,0,0,1,1.771-36.141c1.389-10.91,3.722-20.282,7.423-27.385A35.275,35.275,0,0,1-1.478,222.89c6.293-3.279,13.71-5.016,22.091-6.018,3.709-.445,7.613-.745,11.628-1.054,13.458-1.035,28.206-2.17,40.678-9.3,11-6.285,20.546-17.381,30.9-29.417,4.962-5.767,10.106-11.746,15.708-17.552a192.8,192.8,0,0,1,29.726-25.42c9.117-6.149,17.936-10.416,25.273-11.487,7.591-1.107,13.575,1.131,18.258,5.658,5.169,5,8.635,12.77,10.864,21.833a107.347,107.347,0,0,1,2.758,29.378,155.264,155.264,0,0,1-4.921,32.869c-3.125,12.233-7.851,25.391-12.793,39.149-4.789,13.331-9.782,27.233-13.71,41.46a347.305,347.305,0,0,0-8.223,38.738,312.807,312.807,0,0,0-3.735,38.328c-.232,9.075.288,15.251,1.323,19.578.969,4.048,2.376,6.385,4.026,7.987a10.866,10.866,0,0,0,4.668,2.712,6.824,6.824,0,0,0,4.3.013v0l.09-.041h0a1.225,1.225,0,0,0,.714-1,5.951,5.951,0,0,0-.667-2.935c-.015-.033-.056-.122-.124-.265-.354-.746-.83-1.563-1.345-2.448a30.312,30.312,0,0,1-4.31-10.907c-1.089-6.426-.252-15.442.7-25.733l.02-.217.012-.131a213.42,213.42,0,0,1,6.322-38.194c3.563-13.549,9.3-30.236,14.879-46.474,1.323-3.85,2.633-7.663,3.469-10.118,3.269-9.6,6.3-18.735,8.945-27.706,2.643-8.956,4.922-17.8,6.706-26.851a257.489,257.489,0,0,0,3.816-26.814,219.2,219.2,0,0,0,.848-25.66,150.962,150.962,0,0,0-2.106-21.253,173.661,173.661,0,0,0-4.409-18.872,130.164,130.164,0,0,0-6.393-17.956,56.816,56.816,0,0,0-9.668-15.1,55.023,55.023,0,0,0-14.174-10.707,114.512,114.512,0,0,0-17.129-7.377,122.235,122.235,0,0,0-19.067-5.123l-.52-.094a117.883,117.883,0,0,1,9.808,13.526c3.252,5.346,5.017,9.707,4.635,14.792-.372,4.952-2.817,10.373-7.97,17.869a288.227,288.227,0,0,1-20.2,25.174c-8.724,9.9-18.563,20.272-27.687,29.2-8.448,8.269-16.274,15.291-23.286,21.045a164.7,164.7,0,0,1-19.738,14.24c-5.42,3.208-9.734,4.957-13.538,5.428a15.8,15.8,0,0,1-10.78-2.5A30.894,30.894,0,0,1,25.327,186.7a57.347,57.347,0,0,1-6.4-16.069c-.333-1.352-.642-2.759-.927-4.211a45,45,0,0,1-7.121,10.4,44.966,44.966,0,0,1-10.4,7.689,47.741,47.741,0,0,0-6.437,4.283,50.963,50.963,0,0,0-7.611,8.792,51.181,51.181,0,0,1-3.619,4.563,15.431,15.431,0,0,1-4.5,3.269,13.154,13.154,0,0,0-3.5,2.469,28.462,28.462,0,0,0-3.82,5.049,29.321,29.321,0,0,1-5.229,10.7l-.04.056q-.342.864-.676,1.766a120.087,120.087,0,0,0-4.459,15.325,143.268,143.268,0,0,0-2.711,16.728,167.765,167.765,0,0,0-.75,18.971c.072,7.026.441,15.159,1.022,25.3.193,3.37.425,7.2.665,11.176,1.123,18.572,2.439,40.366,2.132,55.088a100.774,100.774,0,0,1-2.053,20.041,39.623,39.623,0,0,1-3.78,10.371c-.394.737-.719,1.308-1.02,1.837a12.439,12.439,0,0,0-1.313,2.661s.461.083,1.909.352Zm-5.972.559a4.906,4.906,0,0,1,.06-1.645,13.583,13.583,0,0,1,1.776-3.937c.326-.572.678-1.192.973-1.741a35.667,35.667,0,0,0,3.4-9.351,96.764,96.764,0,0,0,1.957-19.226c.3-14.486-1.011-36.235-2.131-54.769-.231-3.828-.454-7.52-.665-11.191-.58-10.118-.948-18.289-1.022-25.5a171.731,171.731,0,0,1,.766-19.4,147.738,147.738,0,0,1,2.79-17.207c.634-2.834,1.335-5.567,2.086-8.166-2.185,2.172-4.607,4.361-7.2,6.5a125.236,125.236,0,0,1-14.053,10.048q-.324,1.8-.632,3.668A233.8,233.8,0,0,0-66.126,280.6c-.681,17.153.512,36.789,1.6,54.784.25,4.125.5,8.164.718,12.191.582,10.541.953,20.115.647,28.643-.311,8.637-1.317,16.178-3.494,22.519a46.406,46.406,0,0,1-2.312,5.531c7.323-.05,12.714-.151,16.781-.358.306-.016.6-.031.894-.048Zm13.412-182.171a76.456,76.456,0,0,1,4.145-8.76q.422-.755.843-1.458c.31-2.045-.08-3.557-1.118-4.346h0l-.052-.039,0,0c-1.319-.956-3.649-1.131-6.241-.717a21.112,21.112,0,0,0-5.214,1.574,36.549,36.549,0,0,1-6.059,13.56,41.988,41.988,0,0,1-6.606,7.035q-.227.863-.459,1.775c-.925,3.638-1.915,7.82-2.863,12.471A122.476,122.476,0,0,0-51.1,235.1a82.99,82.99,0,0,0,12.929-13.007c.092-.121.192-.255.3-.4Zm8.437-15.189q.7-.847,1.36-1.5A16.76,16.76,0,0,1-23.6,201.83a11.993,11.993,0,0,0,3.461-2.488,48.8,48.8,0,0,0,3.3-4.181,53.923,53.923,0,0,1,8.265-9.478A50.187,50.187,0,0,1-1.6,181a41.75,41.75,0,0,0,9.526-6.986,43.763,43.763,0,0,0,7.22-10.98q.851-1.728,1.7-3.663c-.479-3.569-.837-7.287-1.084-11.03a194.625,194.625,0,0,1-.008-25.62,87.9,87.9,0,0,1,2.857-17.946,30.242,30.242,0,0,1,5.6-11.348,13.2,13.2,0,0,1,5.139-3.9,5.848,5.848,0,0,1,3.844-.206,5.374,5.374,0,0,1,3.111,2.707,14.256,14.256,0,0,1,1.3,6.9c-.049,4.691-1.285,11.582-3.108,19.137-2.223,9.22-5.318,19.464-8.182,27.879-1.821,5.351-3.555,9.984-5.276,14,.492,3.444,1.1,6.722,1.842,9.712A53.315,53.315,0,0,0,28.8,184.593a26.838,26.838,0,0,0,8.523,9.094,11.951,11.951,0,0,0,8.149,1.907c3.225-.4,7.039-1.974,11.959-4.886a160.618,160.618,0,0,0,19.227-13.872c6.906-5.667,14.639-12.608,23.015-20.807,9.009-8.82,18.774-19.114,27.48-29a285.244,285.244,0,0,0,19.918-24.79c4.712-6.855,6.938-11.67,7.252-15.86.3-4.055-1.23-7.741-4.045-12.367A120.986,120.986,0,0,0,137.765,57.4c-5.946-.8-12.863-1.4-21.289-1.775-11.049-.49-24.586-.593-38.582-.7-16.3-.124-33.22-.254-47.438-.988A308.784,308.784,0,0,1-3.291,50.5a192.4,192.4,0,0,1-23.443-5.246c-5.466-1.6-10.082-3.252-14.13-4.806l-.107.014a39.159,39.159,0,0,0-9.91,2.641A35.891,35.891,0,0,0-58.8,47.77,42.706,42.706,0,0,0-65.8,54.521a51.787,51.787,0,0,0-6.183,9.545,111.114,111.114,0,0,0-5.357,12.82c-1.684,4.706-3.211,9.523-4.646,14.087-1.445,4.6-2.8,8.944-3.813,13.045a58.845,58.845,0,0,0-1.85,11.649,76.029,76.029,0,0,0,.521,10.416,67.236,67.236,0,0,1,.429,12.2A63.235,63.235,0,0,1-89.855,152.1c4.916,1.665,10.37,2.414,15.5,3.121,3.134.43,6.153.845,8.885,1.432a27.954,27.954,0,0,1,11.639,4.942A22.225,22.225,0,0,1-46.5,172.558a61.253,61.253,0,0,1,2.632,17.06,79.926,79.926,0,0,1-.761,13.639,24.162,24.162,0,0,1,3.688-.9c3.6-.577,7.028-.192,9.272,1.434l.016.016.094.068.024.016a6.819,6.819,0,0,1,2.093,2.614Zm49.516-55.161q1.167-3.138,2.379-6.706c2.842-8.352,5.9-18.475,8.087-27.529,1.758-7.292,2.95-13.868,3-18.211a10.521,10.521,0,0,0-.806-4.924,1.463,1.463,0,0,0-.766-.762,1.908,1.908,0,0,0-1.2.127,9.18,9.18,0,0,0-3.464,2.722,26.358,26.358,0,0,0-4.784,9.848,84.041,84.041,0,0,0-2.7,17.1,190.482,190.482,0,0,0,.008,25.076q.107,1.634.244,3.257Zm113.4-98.563a111.742,111.742,0,0,0-12.5-11.177,82.231,82.231,0,0,0-17.954-10.33,90.511,90.511,0,0,0-17.615-5.282,83.307,83.307,0,0,0-16.683-1.637,97.222,97.222,0,0,0-17.894,1.9C42.375,27.881,32.776,30.569,24.085,33c-4.76,1.333-9.248,2.59-13.194,3.571a107.489,107.489,0,0,1-14.047,2.66,101.613,101.613,0,0,1-11.871.569c-.97,0-3.152-.022-5.4-.045-3.348-.035-6.852-.071-10.274,0q2.431.8,5.116,1.59A188.366,188.366,0,0,0-2.637,46.483a305.1,305.1,0,0,0,33.3,3.385c14.252.736,31.056.865,47.247.989,14.092.107,27.724.212,38.741.7,6.375.282,11.909.694,16.827,1.225ZM-52.46,39.357a39.429,39.429,0,0,1,4.693-1.638c-2.489-1-4.773-1.9-7.019-2.67a23.853,23.853,0,0,0-9.5-1.677c-3.153.226-6.559,1.444-10.689,4.279A72.5,72.5,0,0,0-90.351,52.761a92.537,92.537,0,0,0-11.866,20.095,107.185,107.185,0,0,0-7.145,25.664,94.584,94.584,0,0,0-.679,25.571,40.974,40.974,0,0,0,5.373,16.471A26.152,26.152,0,0,0-93.9,150.431l.268.131A58.6,58.6,0,0,0-90.77,137.95a63.746,63.746,0,0,0-.413-11.483,79.3,79.3,0,0,1-.537-10.959,62.66,62.66,0,0,1,1.962-12.463c1.056-4.261,2.42-8.649,3.877-13.284,1.467-4.67,3.027-9.589,4.693-14.247a115.047,115.047,0,0,1,5.564-13.3,55.852,55.852,0,0,1,6.678-10.294,46.787,46.787,0,0,1,7.676-7.39,39.86,39.86,0,0,1,8.809-5.175Zm-38.671,116.61c-.547,1.642-1.083,3.257-1.569,4.849a97.252,97.252,0,0,0-2.384,9.508c-.586,2.956-.974,5.623-1.23,7.95-.122,1.111-.233,2.4-.347,3.713a122.27,122.27,0,0,1-1.734,13.1c-.584,3.206-1.361,6.986-2.195,11.042-1.4,6.811-2.961,14.4-3.963,20.982-.336,2.208-.6,4.255-.831,6.163a2.745,2.745,0,0,1,2.074,1.345c.842,1.252.774,3.336.34,6.593-.15,1.133-.268,1.944-.4,2.84-.208,1.43-.442,3.048-.678,4.849,3.227-1.213,6.7-2.562,10.178-4.067a177.649,177.649,0,0,0,16-7.927A125.856,125.856,0,0,0-64.517,228.4q1.425-1.061,2.721-2.123A69.147,69.147,0,0,1-58,215.134a20.87,20.87,0,0,1,6.807-8.6,21.521,21.521,0,0,1,2.106-1.333,72.415,72.415,0,0,0,1.16-15.471,57.157,57.157,0,0,0-2.425-15.88,18.33,18.33,0,0,0-5.977-9.055,24.137,24.137,0,0,0-9.98-4.16c-2.65-.569-5.561-.969-8.582-1.384-5.328-.732-10.986-1.509-16.236-3.284Zm-20.747,92.976a45.7,45.7,0,0,0,1.658-9.115c-1.627,1.065-3.544,2.388-5.611,3.816-3.328,2.3-7.036,4.858-10.557,7.059-3.63,2.268-7.142,4.212-10.4,5.858s-6.225,2.987-8.788,4.055c-1.692.7-3.46,1.384-4.975,1.966-1.369.527-2.5.963-3.351,1.341l.083.025a26.412,26.412,0,0,0,6.482.869,37.2,37.2,0,0,0,7.375-.593,59.487,59.487,0,0,0,8.848-2.426c2.966-1.038,5.848-2.235,8.367-3.407a5.568,5.568,0,0,1,.848-1.2,13.413,13.413,0,0,1,3.786-2.692c1.19-.614,2.614-1.235,4.234-1.885a11.6,11.6,0,0,0,2-3.668Zm.378,7.117q-.419.436-.877.845a26.546,26.546,0,0,1-5.552,3.654,16.145,16.145,0,0,0,5.2.6c1.038-.013,2.19-.079,3.463-.209.114-2.093.263-4.062.434-5.9-.939.352-1.829.69-2.665,1.016Zm6.915-2.6c-.222,2.12-.423,4.426-.573,6.914q1.2-.208,2.507-.473a118.391,118.391,0,0,0,17.657-5.191,120.634,120.634,0,0,0,16.735-7.778q1.016-.573,2.026-1.175c.912-4.863,1.884-9.257,2.819-13.133a134.411,134.411,0,0,1-12.462,7.837,182.059,182.059,0,0,1-16.383,8.1c-4.521,1.958-8.661,3.531-12.327,4.895Zm-.767,11.071q-.088,2.679-.081,5.6c.024,6.49.462,13.892,1.173,21.492.788,8.411,1.912,17.064,3.182,24.99,1.47,9.172,3.139,17.371,4.658,24.835,1.011,4.965,1.958,9.617,2.676,13.642A143.21,143.21,0,0,1-91.7,370.7a70.489,70.489,0,0,1-.4,14.463,69.662,69.662,0,0,1-3.048,12.646c-.77,2.278-1.627,4.461-2.527,6.509h1.191c9.063,0,16.6,0,22.9-.026a43.393,43.393,0,0,0,3.069-6.879c2.043-5.951,2.99-13.106,3.286-21.34.3-8.342-.069-17.817-.647-28.276-.213-3.853-.463-7.969-.718-12.176-1.1-18.071-2.294-37.788-1.6-55.183a237.628,237.628,0,0,1,2.985-29.14l.054-.328a125.106,125.106,0,0,1-16.405,7.551,122.47,122.47,0,0,1-18.278,5.367q-1.855.379-3.515.641ZM-99.614,408.4q-.472.924-.949,1.789a46.675,46.675,0,0,1-5.563,8.166,34.814,34.814,0,0,1-6.229,5.648c-1.393.993-2.875,1.908-4.26,2.763-2.465,1.52-4.573,2.821-4.781,3.532-.029.1.4.48,1.053.989a26.159,26.159,0,0,0,4.616,2.619c.915.43,1.686.776,2.453,1.121a42.532,42.532,0,0,1,8.512,4.634c.672.507,1.332,1.065,1.975,1.607,1.677,1.417,3.169,2.678,3.864,2,.91-.89,1.97-3.176,3.31-6.062a80.779,80.779,0,0,1,6.837-12.539c1.653-2.378,3.641-4.771,5.71-7.263a112.672,112.672,0,0,0,6.976-9.017c-5.775.017-12.5.017-20.393.017ZM-54.32,216.856c-.471,1.008-.92,2.118-1.359,3.338q.424-.53.822-1.075a30.541,30.541,0,0,0,4.009-7.528,19.01,19.01,0,0,0-3.473,5.266Z" transform="translate(220 -20.287)"/>
    </g>
  </g>
</svg>