<svg xmlns="http://www.w3.org/2000/svg" width="773.513" height="784" viewBox="0 0 773.513 784">
  <g id="Group_9" data-name="Group 9" transform="translate(-1006.488 -94)">
    <g id="Group_2" data-name="Group 2" transform="translate(1044.995 121.775)">
      <path id="Path_1" data-name="Path 1" d="M476.02,159.3q-41.847-9-84.33-14.594c-28.632-3.77-58.937-2.733-87.188-7.837-42.562-7.687-87.654-13.842-130.578-3.287-43.277,10.642-81.85,36.107-102.849,76.2C57.607,235.5,53.122,264.925,50.9,293.867a424.224,424.224,0,0,0,.438,72.706c2.276,24.053,1.791,48.237,8.8,71.627,7,23.366,22.285,45.756,45.152,54.246,22.8,8.468,52.715-13.575,42.948-39.292-4.454-11.726-18.956-18.938-30.629-14.35-6.774,2.663-10.974,13.881-4.086,16.232,5.5,1.879,11.711-5.027,16.761-2.142,2.217,1.267,3.137,4.014,3.306,6.564.746,11.3-10.656,20.955-21.979,20.743s-21.4-8.271-26.809-18.225-6.867-21.549-7.361-32.863a222.472,222.472,0,0,1,17.544-96.606,47.67,47.67,0,0,1-30.95,7.471c2.056-11,12.058-18.68,22.115-23.58s21.14-8.289,29.482-15.747c13.688-12.237,16.709-32.16,18.887-50.389,2.419,5.908,1.187,12.634,2.229,18.933s6.442,13.062,12.585,11.329c3.562-1.006,5.776-4.472,7.56-7.715a195.681,195.681,0,0,0,15.989-38.139c-3.345,12.867-6.4,27.629,1.143,38.579,7.213,10.472,20.671,13.365,31.134,19.354,12.714,7.277,17.523,15.04,23.672,28.24,16.1,34.561,24.78,71.783,39.327,106.444,15.49,36.908,14.521,84.608,4.924,122.72a351.647,351.647,0,0,0,69.206-2.178c4.618-.606,9.771-1.63,12.369-5.5,1.8-2.673,1.916-6.095,1.976-9.317l2.481-134.657c-.077,4.2,34.549,12.6,38.764,13.6a202.67,202.67,0,0,0,44.341,5.356c24.007.247,57.031-.778,77.618-14q3.814,59.26,7.627,118.518a16.517,16.517,0,0,0,1.04,5.672c2.045,4.623,7.853,6.365,12.892,5.971s9.851-2.347,14.884-2.81a3.656,3.656,0,0,1,2.94.646c.825.812.762,2.126.82,3.283.337,6.619,6.676,11.671,13.2,12.836s13.175-.624,19.561-2.4c5.6-1.556,11.731-3.49,14.78-8.446,1.608-2.616,2.121-5.745,2.478-8.8,3.515-30.065-4.908-60.069-12.289-89.424-5.006-19.9-7.189-39.808-10.691-59.9-3.047-17.489,4.006-35.691,10.949-51.781,1.428-3.31,3.537-7.026,7.117-7.44,3.887-.449,6.858,3.244,9,6.521q4,6.132,8,12.26c6.821-12.551,7.484-27.645,2.865-41.037-3.956-11.472-4.965-23.115-8.6-34.86a131.545,131.545,0,0,0-43.764-64.285C545.142,176.229,510.229,166.658,476.02,159.3Z" transform="translate(2.856 4.115)" fill="#fff"/>
      <path id="Path_2" data-name="Path 2" d="M731.6,386.762c-9.893,7.332-17.557,16.152-24.508,26.239-6.552,9.505-16.053,17.7-28.334,14.477-11.355-2.984-20.471-12.652-26.776-22.12-6.372-9.566-10.567-20.38-13.338-31.5a141.741,141.741,0,0,1-4.166-37.96c.176-7.057.594-14.121.2-21.176a154.822,154.822,0,0,0-2.531-19.581A202.965,202.965,0,0,0,553.421,170.8a1.9,1.9,0,0,0-1.1-.394c-16.053-11.2-34.976-16.589-54.181-19.392-21.008-3.067-42.394-4.325-63.57-5.639-23.821-1.477-47.682-2.536-71.432-5-24.012-2.491-47.789-6.7-71.546-10.92-42.215-7.5-85.839-14.238-127.025,1.6a200.429,200.429,0,0,0-50.059,28.008A196.623,196.623,0,0,0,93.03,178.149c-6.3,6.5-12.6,13.409-17.285,21.187C66.42,214.81,62.32,233.076,58.912,250.615c-3.941,20.29-7.648,40.649-10.007,61.19a550.767,550.767,0,0,0-3.861,69.9c.285,21.819,2.64,44.031,10.3,64.6C61.67,463.29,71.5,479.291,85.2,491.33,98.658,503.17,116.6,512.9,134.16,503.871c15.952-8.2,24.377-28.455,17.471-45.33-6.1-14.905-25.14-23.725-39.813-15.428a19.265,19.265,0,0,0-9.642,19.73c1.048,7.14,7.129,15.428,15.231,14.226a8.96,8.96,0,0,0,7.474-6.341c.5-2.012-.387-5.7,2.7-5.6,3.021.094,3.977,4.029,3.743,6.443-.47,4.814-4.682,8.578-9.144,9.862-4.631,1.333-9.505-.236-13.3-3-8.915-6.494-11.083-18.12-12.056-28.4a299.671,299.671,0,0,1-1.249-33.172,287.635,287.635,0,0,1,8.843-66.6c1.68-6.551,3.638-13.02,5.805-19.421.68-.384,1.379-.742,2.054-1.136,7.277-4.242,14.71-8.775,20.168-15.309a49.7,49.7,0,0,0,9.6-18.355,58.452,58.452,0,0,0,2.08-12.568c1.594,5.263,3.523,11.475,9.089,13.616,5.136,1.975,9.766-1.447,12.6-5.519,4.234-6.085,5.817-13.5,8.438-20.328a80.447,80.447,0,0,0,4.084,11.461,64.779,64.779,0,0,0,11.511,17.617c4.531,4.9,10.205,9.647,17.14,10.148a22.553,22.553,0,0,0,4.254-.119,200.525,200.525,0,0,0,16.042,39.585c7.933,15.066,16.9,29.814,23.04,45.746,3.2,8.311,4.791,16.991,6.132,25.762q2.049,13.4,3.967,26.817c2.546,17.676,5.729,35.512,6.225,53.394a97.894,97.894,0,0,1-2.286,25.632c-1.592,6.616-4.983,12.89-5.195,19.794-.3,9.737,7.041,15.1,15.817,17.009a84.586,84.586,0,0,0,33.239.287c9.624-1.928,17.909-7.489,20.276-17.469.016-.075.024-.15.041-.225a16.718,16.718,0,0,0,3.4,7.793c4.928,5.712,15.441,4.057,22.075,3.6,7.469-.518,16.382-1.084,23.273-4.228,7.511-3.428,6.1-11.221,5.581-18.075-.677-9.019-1.4-18.034-2.11-27.05q-2.178-27.725-4.355-55.452a80.506,80.506,0,0,1-.526-11.3c.238-3.8.947-7.558,1.488-11.324a63.938,63.938,0,0,0,.877-10.734,207.741,207.741,0,0,0,29.544,8.56,154.979,154.979,0,0,0,44.107,2.509c14.633-1.107,29.793-2.09,43.917-6.256,6.126-1.807,12.227-3.686,18.343-5.519a36.151,36.151,0,0,0-1.547,12.509c.119,8.288.855,16.548,1.226,24.826.4,8.957.658,17.922,1.019,26.882.57,14.137,1.818,28.148.345,42.241-.78,7.469-2.517,20.945,7.234,23.418,8.149,2.066,18.933-.215,26.444-3.564a19.194,19.194,0,0,0,2.668-1.428c.059.746.122,1.491.221,2.234.383,2.847,1.079,6,3.207,8.091,2.964,2.921,8.14,3.868,12.052,4.68a62.889,62.889,0,0,0,29.778-1.146c6.971-1.947,15.443-3.777,19.69-10.215,6.942-10.52,3.078-25.471,1.88-37.039-.8-7.746-1.179-15.514-2.354-23.222-1.136-7.453-2.968-14.78-4.739-22.1-5.024-20.761-11.137-41.55-12.262-63a151.548,151.548,0,0,1,10.17-61.588c1.3-3.336,2.766-6.595,4.353-9.8,4.576,13.86,5.859,28.516,9.435,42.663,3.72,14.708,8.516,29.908,17.909,42.051,15.97,20.644,48.921,36.584,71.875,17.43,13.1-10.928,17.932-27.979,22.176-43.8C735.41,387.571,733.267,385.528,731.6,386.762ZM179.9,208.473c.879-3.894,1.83-7.773,2.808-11.645.917-3.637,1.582-7.514,3.025-10.99,1.473-3.547,5.1-5.913,7.825-1.884,2.548,3.765.607,9.118-.353,13.128q-5.77,24.1-13.5,47.677-1.922,5.848-4.039,11.62C174.078,240.457,176.431,223.816,179.9,208.473ZM543.57,542.583a53.9,53.9,0,0,1-12.807,2.351c-2.784.168-7.288.69-9.426-1.584-2.8-2.973-2.2-8.709-1.973-12.418.295-4.817,1.083-9.592,1.356-14.409.383-6.714-.413-13.595-.7-20.305-.736-17.155-1.2-34.322-2.224-51.462-.246-4.128-.469-8.262-.544-12.4-.067-3.612-.275-7.321.866-10.8a19.142,19.142,0,0,1,1.967-4.154c4.373-1.39,8.618-3.375,11.612-6.766,1.664,5.45,3.007,11,4.145,16.556,3.134,15.293,4.693,30.846,6.282,46.358,1.652,16.134,3.9,31.994,6.914,47.936.868,4.592,2,9.252,2.186,13.932.013.286.016.571.026.858C550.849,540.3,547.16,541.458,543.57,542.583ZM713.317,426.361c-10.067,10.673-23.787,13.059-37.555,8.7a65.053,65.053,0,0,1-31.6-22.506c-8.607-11.3-12.906-25.327-16.479-38.891-4.281-16.248-5.284-33.234-11.581-48.948-.676-1.685-3.142-2.421-4.159-.542-9.195,17-14,35.5-16.525,54.565-2.7,20.457.223,40.7,4.833,60.658,3.84,16.633,9.015,33.136,11.485,50.052,1.11,7.606,1.372,15.288,2.26,22.915.721,6.2,1.688,12.4,1.722,18.656.031,5.615-.509,12.457-4.968,16.481-2.932,2.645-7.309,3.575-10.967,4.758a67.156,67.156,0,0,1-16.326,3.44,56.668,56.668,0,0,1-14.01-.788c-4.071-.755-10.868-1.47-12.454-5.914a32.926,32.926,0,0,1-1.421-10.334,9.481,9.481,0,0,0,.223-1.035c.493-3.515-.334-7.236-.733-10.73q-.659-5.765-1.281-11.537c-3.021-28.023-5.193-56.323-10.01-84.107-2.87-16.559-7.3-32.962-15.066-47.944-7.15-13.792-16.9-30.385-33.361-33.8a2.332,2.332,0,0,0-2.911,2.217c-.238,8.556,8.335,12.566,13.992,17.3A68.877,68.877,0,0,1,520.3,385.008a98.316,98.316,0,0,1,9.37,19.55,24.08,24.08,0,0,0-12.489,8.9c-.2.055-.391.117-.586.171-6.2,1.726-12.315,3.627-18.454,5.548-12.667,3.966-25.545,5.253-38.706,6.525-13.092,1.263-26.5,2.178-39.583.282a197.89,197.89,0,0,1-38-9.636c-1.413-.5-2.815-1.037-4.215-1.573a19.852,19.852,0,0,0-.744-2.522c-2.339-6.23-8.179-10.274-13.676-13.554-6.435-3.839-12.983-7.667-20.577-8.4a2.242,2.242,0,0,0-1.993,1.143c-2.824,5.672.944,10.578,5.742,13.517a166.426,166.426,0,0,0,19.428,9.911c2.528,1.12,5.082,2.176,7.65,3.2a18.864,18.864,0,0,1,.192,1.994c.164,6.064-1.231,12.05-1.975,18.036-.912,7.321.1,14.619.679,21.935q1.949,24.683,3.9,49.365c.658,8.341,1.294,16.683,1.988,25.021.288,3.479,1.063,7.337.635,10.829-.531,4.332-4.814,5.211-8.4,6.028a111.4,111.4,0,0,1-25.072,2.745c-3.809-.013-8.527.4-10.832-3.267-1.849-2.942-1.978-6.865-2.339-10.209-1.787-16.558-3.109-33.169-3.848-49.808a648.191,648.191,0,0,1,.666-70.584c1.07-11.2,2.541-22.351,4.511-33.434a151.751,151.751,0,0,1,5.927-22.957c2.559-7.454,5.291-14.948,6.279-22.809.492-3.91,1.672-14.093-4.99-13.51-6.591.576-6.709,10.837-7.285,15.364-3.114,24.447-6.3,48.8-8.213,73.294q-2.1,20.253-2.58,40.633c-.415,16.628-.13,33.267.6,49.88q.53,12.126,1.351,24.235c.417,6.258,1.252,12.865-1.485,18.757-4.054,8.724-14.253,10.995-22.985,11.6-9.349.648-20.818,1.037-29.563-2.859-10.92-4.864-6.507-15.885-3.686-24.645,4.607-14.309,4.527-29.648,3.117-44.464-1.49-15.654-4-31.245-6.264-46.8-2.258-15.519-3.5-31.886-8.973-46.686-10.559-28.538-29.946-52.966-38.448-82.381-.365-1.26-.7-2.528-1.048-3.795A72.775,72.775,0,0,0,228.1,304.5a103.955,103.955,0,0,0,19.086-11.949,136.464,136.464,0,0,0,16.219-14.992c5.074-5.481,9.505-11.5,14.555-17,9.17-9.986,19.6-19.006,26.856-30.589a61.339,61.339,0,0,0,8.522-41.878c-2.323-14.935-10.731-27.44-22.3-36.881a134.82,134.82,0,0,0-17.547-11.876c-6.43-3.743-13.144-8.053-20.268-10.315-24.127-7.661-34.142,23.712-43.3,39.319-3.246,5.537-6.534,10.655-8.462,16.856a79.124,79.124,0,0,0-3.2,21.049c-.464,15.04,1.659,30.193,3.181,45.129,1.771,17.381,3.953,34.777,7.941,51.807.247,1.055.531,2.092.8,3.137a16.16,16.16,0,0,1-4.9-.286c-6.881-1.569-12.538-8.071-16.533-13.536a69.047,69.047,0,0,1-11.881-27.9c2.426-6.189,4.747-12.4,6.831-18.736,5.657-17.2,11.285-34.934,14.658-52.746,1.094-5.778.319-13.528-6.5-15.316-6.124-1.605-9.5,4.4-10.933,9.33-4.911,16.856-8.937,34.641-9.855,52.209a104.693,104.693,0,0,0,1.558,24.927c-.466,1.166-.925,2.333-1.408,3.492-2.652,6.364-4.114,13.294-7.5,19.335-1.387,2.473-3.394,5.675-6.406,6.336-3.15.69-5.514-2.041-6.837-4.544-3.059-5.779-4.249-13.005-6.1-19.25-1-3.375-2.069-6.733-3.271-10.043-.6-1.908-1.263-3.788-2.017-5.628a65.153,65.153,0,0,0-10.757-17.788c-4.513-5.261-12.53-12.68-20.028-8.569-7.09,3.888-5.94,14.165.134,18.358,5.823,4.019,15.039,2.178,18.812-3.7a37.262,37.262,0,0,1,5.051,7.617,73.08,73.08,0,0,1,4.688,10.43c.514,1.62.99,3.249,1.38,4.9,2.559,10.793,2.417,22.366-1.3,32.878-4.353,12.3-13.369,19.885-24.227,26.478-.173.1-.35.2-.524.3.692-1.9,1.382-3.8,2.115-5.681a2.093,2.093,0,0,0-.949-2.33c-7.287-5.27-16.139.461-22.5,4.478L62.337,339.41a2.1,2.1,0,0,0-.418,3.243c5.87,6.507,15.781,2.54,22.617.047a173.567,173.567,0,0,0,20.387-8.967,293.616,293.616,0,0,0-12.769,109.53c1.118,16.077,4.317,40.41,24.647,42.666,7.168.8,14.795-3.308,17.622-10.054,2.416-5.766.117-15.9-7.889-14.78a6.165,6.165,0,0,0-5.452,5.564c-.308,2.68-.293,5.091-3.318,6.093-2.877.954-5.849-.667-7.832-2.706-6.819-7-4.148-18.791,3.964-23.379,7.772-4.394,17.515-2.9,24.687,1.983,7.845,5.34,11.671,14.453,11.3,23.789-.778,19.76-20.312,36.083-39.835,29.514-17.528-5.9-31.86-21.38-41.159-36.822-22.124-36.742-21.178-82.054-18.539-123.41a559.42,559.42,0,0,1,8.5-68.3c3.223-17.048,5.83-34.3,11.169-50.86a95.767,95.767,0,0,1,10.8-23.585c5.185-7.842,11.928-14.9,18.625-21.461a194.89,194.89,0,0,1,46.03-33.364c17.985-9.406,37.24-16.151,57.518-18.1,21.279-2.05,42.731.1,63.78,3.331,21.951,3.37,43.734,7.734,65.695,11.049,22.688,3.425,45.484,5.494,68.379,6.9,22.431,1.38,44.854,2.618,67.256,4.417,19.384,1.556,39.054,3.176,57.594,9.439a98.343,98.343,0,0,1,24.857,12.473,2.228,2.228,0,0,0,.7.842c40.081,29.265,68.461,74.8,77.037,123.693a131.315,131.315,0,0,1,2.147,21.144c.086,7.3-.451,14.6-.467,21.9a139.75,139.75,0,0,0,5.058,36.441c5.6,20.712,17.819,44.568,38.963,52.953,11.931,4.732,23.353.661,31.709-8.569,4.361-4.82,7.524-10.526,11.617-15.553a92.008,92.008,0,0,1,11.407-11.672C725.527,406.222,721.535,417.65,713.317,426.361ZM518.5,374.723c-1.149-1.393-2.343-2.75-3.593-4.052a69.242,69.242,0,0,0-8.708-7.627c-2.974-2.207-6.964-4.563-8.509-8.058C506.912,358.3,513.307,366.338,518.5,374.723Zm-174.279,20.44c6.852,1.154,13.339,5.3,19.055,8.986,3.619,2.331,6.528,4.928,8.343,8.216q-5.421-2.278-10.708-4.869-4.686-2.3-9.25-4.843C349.09,401.226,343.837,398.75,344.218,395.163Zm-9.245-31.2c.917-7.054,1.846-14.1,2.743-21.156.182-1.431.433-10.528,2.767-10.692,2.649-.186,1.019,9.2.8,10.469-1.25,7.261-3.874,14.217-6.245,21.165C335.015,363.814,335,363.888,334.973,363.959ZM214.28,305.619c-6.806-26.849-9.287-55-11.345-82.5-.991-13.263-1.188-27.155,3.577-39.785,1.968-5.216,5.2-9.575,7.887-14.4,2.421-4.34,4.55-8.835,6.852-13.238,4.252-8.133,9.364-17.985,18.093-22.068,6.176-2.89,12.533-1.14,18.366,1.794,5.935,2.986,11.772,6.294,17.44,9.758,11.615,7.1,22.794,15.828,29.138,28.166,6.764,13.154,7.3,29.181,2.51,43.063-4.169,12.086-12.823,21.653-21.59,30.646-4.358,4.47-8.791,8.879-12.888,13.593-4.254,4.9-8.159,10.049-12.605,14.785-9.442,10.056-20.29,18.892-32.715,25A67.519,67.519,0,0,1,214.28,305.619Zm-89.686-67.4a1.745,1.745,0,0,0-.077.179c-2.146,7.379-14.979,7.495-16.844-.218-.752-3.113.746-6.86,4.145-7.477,4.075-.737,8.13,2.715,10.77,5.349C123.287,236.747,123.938,237.486,124.594,238.218Zm-17.769,89.831a164.328,164.328,0,0,1-18.79,8.915c-5.108,2.033-15.075,7.2-21.02,4.376l21.549-13.6c5.385-3.4,14.441-11.192,21.329-8.164Q108.285,323.787,106.825,328.049Z" transform="translate(0 0)" fill="#0a0a0a"/>
    </g>
    <g id="Group_7" data-name="Group 7">
      <path id="Path_5" data-name="Path 5" d="M1287.395,749.837s67.061.223,132.227,0,128.435-.891,128.435-.891,18.618.564,18.618,21.252,1.245,28.339,0,48.455,17.64,36.483-45.708,34.159-110.049-7.7-186.126-3.225c-39.94,2.352-54.608,1.512-60-3.73-4.452-4.319-1.03-12.656-7.306-18.341-13.212-11.969-15.165-7.275-16.787-13.678s19.069-7.371,21.517-15.1-.325-29.217,2.765-39.25S1287.395,749.837,1287.395,749.837Z" transform="translate(19 -15.918)" fill="#fff"/>
      <text id="Anything_that_is_measured_and_watched_improves" data-name="Anything that is measured
and watched, improves" transform="translate(1307 778.071)" fill="#0a0a0a" font-size="20" font-family="Avenir-BlackOblique, Avenir" font-weight="800" font-style="oblique"><tspan x="0" y="0">Anything that is measured</tspan><tspan x="0" y="27">and watched, improves</tspan></text>
      <text id="Bob_Parsons_GoDaddy_founder" data-name="Bob Parsons, GoDaddy founder" transform="translate(1288 871)" fill="#505050" font-size="20" font-family="Avenir-Medium, Avenir" font-weight="500"><tspan x="0" y="0">Bob Parsons, GoDaddy founder</tspan></text>
      <g id="Group_16767" data-name="Group 16767" transform="translate(1935.684 489.747)">
        <g id="Group_16767-2" data-name="Group 16767" transform="translate(-680.576 233.524)">
          <path id="Path_12667" data-name="Path 12667" d="M-653.413,325.54c1.581,7.074-.3,14.28,5.393,19.816,4.111,3.995,10.114,5.217,15.59,5.856,7.408.862,14.84.095,22.253-.18,13.464-.5,27.025.071,40.493.278,25.873.394,171.543.8,197.364,2.54,14.786,1,29.026-1.03,31.046-18.622,1.244-10.848-1.358-22.987-1.659-33.949-.356-12.894.824-25.783.446-38.637-.449-15.308-6.684-27.188-23.117-27.9-10.663-.465-21.667,1.125-32.358,1.277-14.029.2-147.744.254-161.773.157-13.345-.093-26.8.071-40.127-.753-10.722-.66-21.648-2.97-32.389-1.31-7.351,1.137-14.282,4.332-18.472,10.807-2.877,4.444-1.474,6.91-1.009,11.785.669,7.021.154,14.382,0,21.418-.154,6.872,1.5,10.508-4.709,13.673-6.822,3.477-21.577,8.175-24.055,16.018a2.03,2.03,0,0,0,.928,2.279c8.647,4.273,20.174,7.325,25.268,16.21,1.244,2.17,4.524.24,3.347-1.956-4.769-8.88-13.832-10.587-21.833-15.491-3.069-1.88-3.143.387-1.992-1.949,1.08-2.191,6.658-4.114,8.965-5.433,5.434-3.107,10.945-6.2,16.659-8.768a2,2,0,0,0,1-1.74c.378-8.56.6-17.124.565-25.693-.024-5.331-1.5-12.092.237-16.877,5.789-15.89,31.423-10.269,44.179-9.219,35.432,2.908,192.664,2.509,228.1-.1,9.421-.693,19.9-1.344,25.418,8.08,4.648,7.933,3.309,18.809,2.875,27.594-.9,18.156,1.161,35.99,1.664,54.054.745,26.714-23.542,21.178-41.644,20.495-18.8-.71-157.286-1.165-176.091-1.417-17.779-.237-35.608-.57-53.361.48-6.922.411-14.219.933-21.026-.681-4.488-1.066-9.241-3.1-11.643-7.37-2.362-4.2-1.576-10.473-2.97-15.2A.809.809,0,0,0-653.413,325.54Z" transform="translate(680.576 -233.524)" fill="#231f20"/>
        </g>
        <path id="Path_12668" data-name="Path 12668" d="M-671.34,266.07l4.947,4.14c.422.351,1.03-.256.605-.605q-2.492-2.055-4.985-4.1c-.4-.325-.966.235-.567.567Z" transform="translate(12.502 43.794)" fill="#231f20"/>
        <path id="Path_12669" data-name="Path 12669" d="M-670.365,266.166q2.514,1.517,5.03,3.038a.509.509,0,0,0,.515-.878l-5.077-2.962a.465.465,0,0,0-.468.8Z" transform="translate(13.721 43.646)" fill="#231f20"/>
        <path id="Path_12670" data-name="Path 12670" d="M-543.435,247.975a362.779,362.779,0,0,0-1.339,37.293.563.563,0,0,0,1.125,0c-.223-12.462.256-24.85.857-37.293.019-.418-.6-.406-.643,0Z" transform="translate(186.525 19.426)" fill="#231f20"/>
        <path id="Path_12671" data-name="Path 12671" d="M-542.132,245.894c-1.427,18.107-1.666,36.282-1.386,54.434a.767.767,0,0,0,1.533,0c-.42-18.166.021-36.28.655-54.434.019-.52-.762-.508-.8,0Z" transform="translate(188.135 16.463)" fill="#231f20"/>
        <path id="Path_12672" data-name="Path 12672" d="M-556.176,241.281a19.564,19.564,0,0,1,8.878-.477c.772.135,1.087-1.056.323-1.17a18.639,18.639,0,0,0-9.383.976c-.413.154-.254.8.183.672Z" transform="translate(170.307 8.099)" fill="#231f20"/>
        <path id="Path_12673" data-name="Path 12673" d="M-554.46,240.085q3.023.025,6.048.045a.526.526,0,0,0,0-1.052l-6.048.043a.482.482,0,0,0,0,.964Z" transform="translate(172.605 7.631)" fill="#231f20"/>
      </g>
    </g>
    <g id="Group_8" data-name="Group 8" transform="translate(69 -614)">
      <path id="Path_5-2" data-name="Path 5" d="M1290.907,743.1l275.334-1.209s24.248-1.088,24.248,19.6-1.757,48.763-3.06,68.879-22.455,16.77-22.455,16.77-163.923-6.815-171.4-2.7-.567,20.137-4.6,17.479-9.984-11.843-13.994-13.81-11.472-4.082-36.776-2.659c-28.27,1.59-49.442-.769-56.064-3.233s-5.327-16.24-5.566-34.755-2.829-41.828,4.388-54.707C1284.2,742.727,1290.907,743.1,1290.907,743.1Z" fill="#fff"/>
      <text id="As_long_as_you_re_going_to_be_thinking_anyway_think_big" data-name="As long as you’re going to 
be thinking anyway, think big" transform="translate(1294 787)" fill="#0a0a0a" font-size="20" font-family="Avenir-BlackOblique, Avenir" font-weight="800" font-style="oblique"><tspan x="0" y="0">As long as you’re going to </tspan><tspan x="0" y="27">be thinking anyway, think big</tspan></text>
      <text id="Jude_Onicha" data-name="Jude Onicha" transform="translate(1370.425 728)" fill="#505050" font-size="20" font-family="Avenir-Medium, Avenir" font-weight="500"><tspan x="0" y="0">Jude Onicha</tspan></text>
      <g id="Group_16768" data-name="Group 16768" transform="translate(1951.834 443.867)">
        <path id="Path_12674" data-name="Path 12674" d="M-679.783,301.542c-2.278,26-.954,52.5.755,78.49.133,2.007,3.281,2.017,3.138,0-1.843-26.169-1.591-52.3-2.485-78.49a.7.7,0,0,0-1.408,0Z" transform="translate(0 8.562)" fill="#231f20"/>
        <path id="Path_12675" data-name="Path 12675" d="M-359.03,388.593c1.708-25.994,3.033-52.494.753-78.49a.723.723,0,0,0-1.172-.521c-3.048-20.568-31.554-17.494-46.782-17.243-35.577.589-213.247-.025-248.826-.454a1.532,1.532,0,0,0-.17-.033q-.746.009-1.488.014a1.59,1.59,0,0,0-.48.1c-10.84.907-21.086,6.992-23.456,18.284-.468,2.231,2.97,3.179,3.421.942,2.114-10.471,11.856-15.645,21.853-16.028,28.831.131,57.688.626,86.515.224,13.131-.183,168.435-.969,181.563-.661,11.643.273,23.979,2.978,27.612,15.5-.889,26.148-.64,52.237-2.481,78.365,0,.053.018.088.018.137a1.715,1.715,0,0,0-.4.989c-.77,11.477-10.428,15.253-20.4,15.433-10.383-.043-162.871-.088-173.256-.135a1.525,1.525,0,0,0,0,3.048c10.274.117,162.65.238,172.925.361.059,0,.1.031.162.031l1.488-.012a1.726,1.726,0,0,0,.215-.045c11.593-.55,21.463-6.05,22.411-18.682a1.667,1.667,0,0,0-.119-.78A1.663,1.663,0,0,0-359.03,388.593Z" transform="translate(0.287 0)" fill="#231f20"/>
        <path id="Path_12676" data-name="Path 12676" d="M-679.855,342.022c1.387,13.061,13.044,17.3,24.847,18.3,23.5,2,47.743-.46,71.349-.041a1.526,1.526,0,0,0,0-3.05c-18.914.033-37.808.312-56.718.655-14.3.261-34.762,1.654-39.248-15.9-.031-.125-.244-.1-.23.031Z" transform="translate(1.084 47.567)" fill="#231f20"/>
        <path id="Path_12677" data-name="Path 12677" d="M-630.523,351.222c6.75,8.107,15.22,15.719,24.141,22.707,1.131.887,3.468-.275,2.321-1.162-9.086-7.041-16.38-15-25.071-22.243-.663-.554-1.909.078-1.391.7Z" transform="translate(47.847 55.552)" fill="#231f20"/>
        <path id="Path_12678" data-name="Path 12678" d="M-615.422,374.463c2.218-7.444.864-15.608,1.209-23.173.076-1.664-3.77-1.668-3.8,0-.144,7.534-.821,15.766,1.451,23.173.117.384,1.028.386,1.143,0Z" transform="translate(59.654 55.295)" fill="#231f20"/>
        <path id="Path_12679" data-name="Path 12679" d="M-522.882,348.93c1.117-.8,2.214-1.63,3.306-2.465a.563.563,0,1,0-.685-.887c-1.063.876-2.118,1.755-3.154,2.662-.372.324.125.983.532.69Z" transform="translate(149.624 50.905)" fill="#231f20"/>
        <path id="Path_12680" data-name="Path 12680" d="M-523.278,347.881c.866-.788,1.708-1.6,2.551-2.416.511-.491-.285-1.287-.776-.778-.815.844-1.628,1.685-2.418,2.553a.455.455,0,0,0,.644.642Z" transform="translate(149.145 50.052)" fill="#231f20"/>
        <path id="Path_12681" data-name="Path 12681" d="M-519.2,308.4c-.6,16.014-1.256,32.026-1.847,48.038-.02.548.833.548.85,0,.519-16.01.977-32.026,1.48-48.038.01-.312-.472-.31-.484,0Z" transform="translate(151.999 15.502)" fill="#231f20"/>
        <path id="Path_12682" data-name="Path 12682" d="M-518.367,308.84c.059,16.035-.647,32.053-1.892,48.038-.051.657.979.657,1.026,0,1.127-16,1.525-31.995,1.422-48.038a.278.278,0,0,0-.556,0Z" transform="translate(152.745 15.887)" fill="#231f20"/>
        <path id="Path_12683" data-name="Path 12683" d="M-676.619,313.941a69.015,69.015,0,0,0,1.469,20.817c.1.443.776.256.679-.187a70.686,70.686,0,0,1-1.574-20.63c.025-.367-.544-.365-.573,0Z" transform="translate(3.951 20.729)" fill="#231f20"/>
        <path id="Path_12684" data-name="Path 12684" d="M-675.5,314.835q-.026,8.282-.051,16.564a.432.432,0,0,0,.864,0q-.026-8.282-.051-16.564a.381.381,0,0,0-.763,0Z" transform="translate(5.177 21.489)" fill="#231f20"/>
        <path id="Path_12685" data-name="Path 12685" d="M-674.575,343.632l2.434,2.537c.456.478,1.2-.267.725-.725l-2.537-2.434a.44.44,0,0,0-.622.622Z" transform="translate(5.981 48.493)" fill="#231f20"/>
      </g>
    </g>
    <g id="Group_16741" data-name="Group 16741" transform="translate(-196.836 -391.221)">
      <path id="Path_12568" data-name="Path 12568" d="M1362.482,1113.862c-23.368-6.23-41.946,9.683-62.714,3.39-11.028-3.341-32.662-15.328-37.967-16.1-3.9-.578-7.557,14.092-10.509,18.814-6.293,10.069-37.482,26.65-35.594,34.832s24.263,1.916,26.781,11.356,1.356,15.085-4.238,15.424c-3.585,1.831-7.337,4.84-11.412,7.288-4.212,2.53-8.485,4.437-9.267,5.593-.423.51,7.352-.974,9.267-1.186,5.664-.629-5.035,4.158,0,17.373,3.071,8.06-2.064,24.336-5.326,35.34-.4,1.36,8.582,2.816,8.136,4.237-1.115,3.549-1.017,4.576-1.017,4.576s15.089,14.227,24.542,6.78c3.592-2.83,7.143-12.818,6.815-21.7-.493-13.426-6.815-27.01-6.815-27.01a28.953,28.953,0,0,0,10.883,8.2c.412.182,2.937,7.141,3.729,14.318.52,4.712.249,11.131,1.017,12.293,4.644,7.02,20.679-3.9,20.679-3.9l-5.084-14.509s11.17,2.506,12.316,8.235-3.36,22.118,5.234,22.118,38.34-7.492,33.713-24.238,6.39-18.509,17.628-22.916,8.705,1.816,30.848,13.882,37.238-7.6,40.1-19.391-6.451-20.164-4.187-26.442c3.2-8.874,8.961-9.61,9.916-11.458-18.729-7.051-38.307-50.636-41.866-55.2C1385.406,1110.4,1370.521,1116,1362.482,1113.862Z" transform="translate(4.216 2.128)" fill="#fff"/>
      <g id="OBJECTS" transform="translate(1203.324 1094.928)">
        <g id="Group_1" data-name="Group 1" transform="translate(0 0)">
          <path id="Path_1-2" data-name="Path 1" d="M230.531,400.668h0Z" transform="translate(-126.011 -230.113)"/>
          <path id="Path_2-2" data-name="Path 2" d="M217.853,398.441l.006,0-.015,0Z" transform="translate(-122.094 -229.424)"/>
          <path id="Path_3" data-name="Path 3" d="M89.265,298.335l.031.052,0-.006Z" transform="translate(-82.393 -198.516)"/>
          <path id="Path_4" data-name="Path 4" d="M82.859,260.309l0,.008v-.008Z" transform="translate(-80.415 -186.775)"/>
          <path id="Path_5-3" data-name="Path 5" d="M397.6,345.7l.046-.041-.05.045Z" transform="translate(-177.594 -213.127)"/>
          <path id="Path_6" data-name="Path 6" d="M413.146,299.017h0l-.008-.039C413.141,298.99,413.144,299,413.146,299.017Z" transform="translate(-182.394 -198.714)"/>
          <path id="Path_7" data-name="Path 7" d="M365.537,281.746h0l-.006,0Z" transform="translate(-167.695 -193.393)"/>
          <path id="Path_8" data-name="Path 8" d="M339.709,186.276l.074.064c-.04-.036-.082-.072-.123-.107Z" transform="translate(-159.706 -163.903)"/>
          <path id="Path_9" data-name="Path 9" d="M224.346,189.935a.037.037,0,0,1-.012.006.163.163,0,0,1-.04.014c-.037.009-.074.015-.111.022h0a8.517,8.517,0,0,1-.968.044c-1.01.006-2.023-.07-3.024-.16-.984-.089-1.969-.18-2.949-.291-1.192-.152-2.376-.368-3.553-.611q-1.9-.393-3.78-.854l-.074-.018-.03-.007-.009,0h-.009l-.037-.01h0l-.137-.034-.015,0h0l-.125-.032c-1.769-.451-3.538-.916-5.271-1.478-.886-.288-1.778-.57-2.652-.889s-1.757-.653-2.632-.993q-2.475-.985-4.912-2.067c-1.621-.718-3.238-1.444-4.838-2.209-1.62-.778-3.241-1.555-4.882-2.287-1.659-.739-3.369-1.367-5.079-1.978-.776-.279-1.54-.592-2.322-.862-.758-.263-1.532-.5-2.307-.7a14.715,14.715,0,0,0-2.495-.442,11.077,11.077,0,0,0-2.108.037,12.393,12.393,0,0,0-3.485.9,11.829,11.829,0,0,0-3.214,2.065.193.193,0,0,0,.241.3c.306-.213.612-.421.928-.62a.024.024,0,0,1,.012-.006,9.19,9.19,0,0,1,1.02-.538h0a13.2,13.2,0,0,1,1.421-.527.23.23,0,0,0,.024-.008l.024-.008-.008,0a12.812,12.812,0,0,1,1.423-.3,9.788,9.788,0,0,1,1.232-.1h0a9.029,9.029,0,0,1,.987.057l.021,0h.01a14.908,14.908,0,0,1,1.622.292,20.678,20.678,0,0,1,2.2.709h0l.008,0,.018.006.032.014h.006a34.747,34.747,0,0,1,3.72,1.751c.953.527,1.885,1.093,2.822,1.647,1.056.626,2.126,1.227,3.2,1.817.446.244.892.488,1.344.727,1.617.868,3.292,1.617,4.969,2.37,1.591.716,3.189,1.416,4.812,2.057h0l.063.026a.48.48,0,0,0,.05.019l.05.021.1.04-.077-.032c1.392.547,2.8,1.076,4.219,1.526s2.84.823,4.279,1.165c1.779.422,3.568.735,5.376.984,1.76.242,3.52.42,5.3.494.907.037,1.813.065,2.717.065.8,0,1.606-.022,2.405-.079a23.7,23.7,0,0,0,2.56-.275c.384-.07.767-.149,1.145-.252.235-.066.464-.147.7-.216.039-.01.074-.021.115-.028l.036,0A.139.139,0,1,0,224.346,189.935Z" transform="translate(-105.228 -160.143)"/>
          <path id="Path_10" data-name="Path 10" d="M161.34,204.312a.038.038,0,0,0,.009-.01l.008-.008c.254-.272.513-.54.774-.8,1.65-1.647,3.382-3.2,5.168-4.7a6.776,6.776,0,0,1,.55-.431l.025-.016h0l.017-.01.008,0h0a.2.2,0,0,0,.026-.012c.142-.071,0-.288-.131-.178-.009.006-.018.015-.027.022-.128.1-.271.185-.406.278l-.571.39c-.411.282-.82.563-1.227.849q-1.161.814-2.249,1.723l-.013.009-.006.006,0,0h0l-.006.006h0l0,0c-.7.581-1.381,1.176-2.058,1.776-.917.816-1.815,1.649-2.686,2.514-.845.838-1.68,1.692-2.491,2.567l0,0c-.4.433-.8.869-1.2,1.309-1.6,1.8-3.16,3.648-4.58,5.6a53.307,53.307,0,0,0-3.666,6c-.568,1.045-1.112,2.1-1.655,3.161q-.783,1.525-1.589,3.035c.008-.012.015-.023.022-.037-.367.686-.734,1.375-1.118,2.053-.37.656-.761,1.3-1.136,1.951a.437.437,0,0,0,.141.594.429.429,0,0,0,.225.064.439.439,0,0,0,.339-.16c.205-.248.4-.507.594-.765q1.058-1.414,2.073-2.86c.646-.921,1.247-1.87,1.854-2.817,1.253-1.958,2.412-3.974,3.617-5.962.6-.987,1.186-1.983,1.8-2.961s1.277-1.951,1.951-2.9c.452-.633.916-1.255,1.381-1.875.452-.6.908-1.206,1.382-1.79q1.151-1.418,2.334-2.806c.77-.9,1.567-1.773,2.371-2.643Z" transform="translate(-98.39 -167.57)"/>
          <path id="Path_11" data-name="Path 11" d="M188.7,205.236a3.619,3.619,0,0,0-.477.478c-.335.381-.642.783-.951,1.185-.714.92-1.387,1.869-2.059,2.819-.691.979-1.358,1.976-1.967,3.009q-1.839,3.122-3.394,6.4c-.51,1.074-1,2.158-1.458,3.258-.474,1.146-.908,2.312-1.336,3.476q-1.256,3.41-2.257,6.9-.482,1.681-.923,3.376c-.3,1.164-.579,2.334-.874,3.5-.593,2.329-1.215,4.653-1.8,6.984-.142.561-.292,1.117-.442,1.674s-.292,1.1-.452,1.642c-.167.561-.328,1.125-.5,1.685s-.363,1.092-.563,1.632c-.324.85-.7,1.678-1.066,2.51a.277.277,0,0,0,.136.362.254.254,0,0,0,.112.026.285.285,0,0,0,.235-.131,18.9,18.9,0,0,0,1.022-1.745,34.444,34.444,0,0,0,1.745-3.772c.418-1.087.816-2.179,1.208-3.275.4-1.125.764-2.263,1.119-3.4s.7-2.279,1.042-3.422.706-2.3,1.022-3.464c.623-2.3,1.265-4.606,1.982-6.883q.551-1.744,1.127-3.482c.372-1.107.743-2.213,1.145-3.311.434-1.15.865-2.3,1.333-3.443.447-1.082.931-2.15,1.434-3.207s1.031-2.13,1.582-3.177a.05.05,0,0,1,.008-.013c.008-.012.013-.027.021-.041l.008-.013c.477-.89.978-1.766,1.479-2.641q.444-.778.9-1.548c.288-.489.57-.981.859-1.469s.6-.982.9-1.469c.138-.218.278-.44.4-.669a.557.557,0,0,0,.1-.349.125.125,0,0,0-.083-.088A.372.372,0,0,0,188.7,205.236Z" transform="translate(-106.749 -169.739)"/>
          <path id="Path_12" data-name="Path 12" d="M131.247,392.04c.017-.006.036-.01.054-.016l.028-.012Z" transform="translate(-95.356 -227.44)"/>
          <path id="Path_13" data-name="Path 13" d="M315.224,231.085a7.256,7.256,0,0,0-.553-1.99,11.363,11.363,0,0,0-1.01-1.875,14.033,14.033,0,0,0-1.306-1.6,29.318,29.318,0,0,0-2.858-2.6v0l-.01-.009-.009-.008c-1.353-1.119-2.725-2.215-4.081-3.333a54.7,54.7,0,0,1-4.866-4.359c-.656-.709-1.277-1.442-1.884-2.194s-1.176-1.483-1.729-2.25a53.344,53.344,0,0,1-3.053-4.989c-.345-.649-.683-1.3-1.018-1.958-.919-1.8-1.83-3.608-2.719-5.425-.856-1.747-1.67-3.516-2.473-5.29-.834-1.844-1.644-3.7-2.505-5.533-.794-1.694-1.615-3.377-2.493-5.029-.008-.013-.013-.026-.021-.039-1.066-1.995-2.212-3.938-3.386-5.873-.991-1.631-2-3.258-3.088-4.824a41.336,41.336,0,0,0-3.37-4.329c-.026-.028-.053-.056-.079-.086l-.011-.012c-.563-.606-1.132-1.215-1.754-1.763a8.389,8.389,0,0,0-2.257-1.436,8.266,8.266,0,0,0-2.636-.607,13.628,13.628,0,0,0-2.628.064,14.057,14.057,0,0,0-5.486,1.927c-1.3.772-2.519,1.661-3.842,2.389a13.078,13.078,0,0,1-1.288.6q-.434.159-.884.275c-.258.056-.516.1-.778.136s-.527.037-.791.037c-.408-.016-.814-.061-1.222-.066-.427-.008-.85.015-1.275.041a1.514,1.514,0,0,0-.434.093q-1.248-.51-2.529-.95a58.362,58.362,0,0,0-11.36-2.7c-2.046-.265-4.111-.391-6.173-.453q-3.145-.1-6.286.091l-.226.014c.048,0,.1-.006.143-.008a63.325,63.325,0,0,0-7.055.812c-2.016.355-4.012.773-5.99,1.307-2,.539-3.966,1.2-5.9,1.938-1.759.666-3.5,1.383-5.255,2.061s-3.51,1.36-5.287,1.978l-.505.174c-.133.044-.268.087-.4.127q-.653-.064-1.305-.142h-.009a1.765,1.765,0,0,0-.186-.024c-.138-.021-.279-.033-.417-.05q-.678-.086-1.353-.187c-1.635-.242-3.262-.548-4.865-.95-1.678-.442-3.349-.938-4.985-1.514-1.734-.609-3.452-1.264-5.161-1.938q-1.338-.542-2.664-1.111c-.482-.207-.968-.409-1.439-.636-.435-.21-.859-.435-1.282-.669a36.942,36.942,0,0,1-3.724-2.462c-1.317-1.02-2.6-2.079-3.893-3.125-1.275-1.03-2.549-2.08-3.9-3.006a25.589,25.589,0,0,0-3.049-1.8,15.143,15.143,0,0,0-1.564-.649c-.482-.176-.97-.342-1.464-.484a22.7,22.7,0,0,0-3.369-.725,14.526,14.526,0,0,0-5.17.191,12.77,12.77,0,0,0-2.019.68,9.864,9.864,0,0,0-1.685.9,13.309,13.309,0,0,0-2.611,2.316,13.611,13.611,0,0,0-1.064,1.34c-.308.449-.574.929-.84,1.4q-.339.6-.648,1.219a62.842,62.842,0,0,0-2.549,6.064c-.757,2.025-1.506,4.053-2.3,6.063-.406,1-.822,2-1.27,2.985s-.9,1.944-1.415,2.878a19.742,19.742,0,0,1-1.268,1.924,50.405,50.405,0,0,1-4.031,4.644,38.982,38.982,0,0,1-3.727,3.264,48.321,48.321,0,0,1-5,3.318l.126-.071-.217.124-.091.053-.028.016q-1.36.777-2.727,1.551c-.03.016-.059.034-.089.052q-.917.524-1.824,1.057c-1.5.883-2.985,1.806-4.4,2.817-.95.676-1.888,1.378-2.773,2.138s-1.738,1.589-2.551,2.437c-.353.366-.687.751-1.015,1.138-.344.408-.688.814-1.011,1.237A25.958,25.958,0,0,0,91.82,208.7a11.772,11.772,0,0,0-1.373,3.483,14.544,14.544,0,0,0-.21,1.558,9.56,9.56,0,0,0,.018,1.541,13.814,13.814,0,0,0,.208,1.635,9.539,9.539,0,0,0,.55,1.789,7.562,7.562,0,0,0,2.025,2.877c.391.324.809.615,1.22.911a10.377,10.377,0,0,0,1.35.809c.439.226.873.465,1.325.662.485.213.981.4,1.483.568.939.306,1.906.531,2.868.756.991.235,2,.453,3.008.6a26.622,26.622,0,0,0,3.29.269c.563.009,1.127,0,1.69.028s1.137.068,1.7.133a16.516,16.516,0,0,1,1.635.292,13.552,13.552,0,0,1,1.39.468,6.8,6.8,0,0,1,1.494.856q.27.215.519.451c.189.195.367.4.536.608.171.234.327.478.474.729.1.189.2.38.29.576.141.376.259.76.364,1.146a15.741,15.741,0,0,1,.373,1.81c.122.92.238,1.842.338,2.765.047.455.095.91.162,1.362-.315.041-.63.1-.941.168a12.615,12.615,0,0,0-3.735,1.573c-.32.194-.626.409-.928.632-.385.285-.767.574-1.138.879a22.517,22.517,0,0,0-1.68,1.549l-.041.041c-.52.52-1.042,1.038-1.549,1.57-.527.553-1.051,1.109-1.584,1.654-.006.006-.013.012-.019.019a29.612,29.612,0,0,1-2.654,2.346c-.367.272-.743.528-1.112.8-.349.25-.693.5-1.058.724a25.77,25.77,0,0,1-2.615,1.317,11.535,11.535,0,0,1-1.1.394c-.391.1-.789.168-1.19.226a15.526,15.526,0,0,1-1.672.128c-.44-.006-.879-.052-1.316-.1-.34-.045-.677-.1-1.011-.177a12.62,12.62,0,0,1-1.295-.43,10.146,10.146,0,0,1-1.078-.534c-.214-.12-.428-.243-.642-.362a15.71,15.71,0,0,1-1.447-.96,2.392,2.392,0,0,0,.329-.073,6.072,6.072,0,0,0,1.329-.624,7.209,7.209,0,0,0,1.342-.986,4.8,4.8,0,0,0,.6-.655,6.592,6.592,0,0,0,.386-.586c.131-.218.253-.441.367-.667a2.709,2.709,0,0,0,.293-.74,2.531,2.531,0,0,0,.1-1.276,1.058,1.058,0,0,0-.47-.586,1.387,1.387,0,0,0-.563-.146,4.8,4.8,0,0,0-.9.052c-.279.031-.557.072-.836.111.088-.105.176-.211.262-.319.379-.474.761-.948,1.125-1.434a11.352,11.352,0,0,0,.983-1.6,12.575,12.575,0,0,0,1.271-3.816,19.107,19.107,0,0,0,.224-2.052A8.17,8.17,0,0,0,94.6,232.3a5.128,5.128,0,0,0-.066-.563c-.028-.135-.05-.271-.071-.406a3.779,3.779,0,0,0-.189-.818,2.044,2.044,0,0,0-.384-.675,1.476,1.476,0,0,0-.571-.4,1.2,1.2,0,0,0-.854.036,3.473,3.473,0,0,0-1.164,1.012c-.278.333-.557.669-.82,1.014a8.014,8.014,0,0,0-.744-1.691c-.168-.289-.341-.574-.529-.852a9.523,9.523,0,0,0-2.739-2.722,11.824,11.824,0,0,0-1.518-.829c-.248-.11-.5-.216-.758-.3-.217-.076-.438-.122-.66-.177-.276-.073-.55-.155-.827-.223a2.178,2.178,0,0,0-.742-.1.926.926,0,0,0-.795.627,1.226,1.226,0,0,0,.079.868c.08.2.187.38.273.571a6.549,6.549,0,0,1,.2.623c.009.037.019.073.03.109v0l.013.052v-.013a.038.038,0,0,0,0,.016v0a.023.023,0,0,0,0,.01.042.042,0,0,0,0,.017.186.186,0,0,1,.006.025,12.939,12.939,0,0,1,.285,1.42c.036.312.061.626.067.939,0,.373-.033.747-.073,1.117a10.922,10.922,0,0,1-.244,1.219A21.273,21.273,0,0,1,81,234.666c-.176.425-.377.834-.565,1.253-.207.458-.384.932-.554,1.4a8.992,8.992,0,0,0-.556,2.7,7,7,0,0,0,.733,3.372,8.378,8.378,0,0,0,.733,1.25c.147.2.293.4.459.583s.326.339.5.5a9.822,9.822,0,0,0,.816.675,6.109,6.109,0,0,0,.947.6c.294.151.6.29.9.435,0,.28-.008.561.015.84.028.356.07.708.122,1.059a12.815,12.815,0,0,0,1.649,4.408l.031.052c.006.012.013.022.019.035s.028.049.041.074c-.006-.013-.013-.027-.021-.04.244.421.5.831.783,1.226a10.081,10.081,0,0,0,.881,1.085,11.607,11.607,0,0,0,1.079.982,8.471,8.471,0,0,0,2.16,1.295c.792.324,1.579.684,2.4.943a11.49,11.49,0,0,0,1.236.3c.33.067.659.134.994.178a10.152,10.152,0,0,0,1.395.089c.41,0,.821-.019,1.229-.052a15.507,15.507,0,0,0,2.208-.314c.223-.05.443-.107.66-.172-.044.092-.088.182-.131.274-.012.026-.024.053-.037.077a12.354,12.354,0,0,0-1,2.938,15.162,15.162,0,0,0-.236,3.554,22.845,22.845,0,0,0,1.1,5.81,45.834,45.834,0,0,0,1.913,4.934c-.026.431-.049.863-.079,1.292-.1,1.391-.194,2.786-.371,4.169-.183,1.418-.315,2.841-.491,4.261-.185,1.5-.364,3-.617,4.493l0,.025a46.305,46.305,0,0,1-1.363,5.559c-.292.907-.611,1.808-.944,2.7s-.679,1.787-1.033,2.674a17.318,17.318,0,0,0-.739,2.056,10.328,10.328,0,0,0-.353,2.271,5.587,5.587,0,0,0,.415,2.306,5.261,5.261,0,0,0,.438.859,6.8,6.8,0,0,0,.565.736,7.49,7.49,0,0,0,.863.839,7.841,7.841,0,0,0,1.491.926c.519.251,1.045.486,1.586.685.492.18.987.353,1.49.5a3.48,3.48,0,0,0,.35.083c-.194.484-.382.97-.551,1.461a9.283,9.283,0,0,0-.525,2.073,4.064,4.064,0,0,0,.375,2.251,6.084,6.084,0,0,0,1.882,2.081c.408.3.827.583,1.262.841.385.232.773.467,1.173.673.464.238.944.431,1.421.636.427.185.851.369,1.277.55q2.157.91,4.369,1.671a35.919,35.919,0,0,0,5.041,1.32c.823.158,1.643.324,2.464.494.756.155,1.521.236,2.28.366a.087.087,0,0,0,.023,0c.328.058.657.117.988.154.442.054.885.068,1.327.107s.861.077,1.293.089c.083,0,.166,0,.25,0,.614,0,1.228-.057,1.84-.075.632-.018,1.262-.039,1.891-.1.438-.047.873-.115,1.309-.163a3.009,3.009,0,0,0,.63-.023c.059-.012.118-.021.177-.03a1.9,1.9,0,0,0,.666.089,4.854,4.854,0,0,0,.625-.072,6.307,6.307,0,0,0,1.022-.259c.04-.013.081-.026.121-.041l.023-.009a3.586,3.586,0,0,0,.353-.146,3.662,3.662,0,0,0,.872-.6,5.084,5.084,0,0,0,.626-.737,10.5,10.5,0,0,0,.637-.984c.18-.312.33-.639.5-.955.2-.377.409-.753.6-1.136.439-.865.872-1.745,1.239-2.647.3-.73.568-1.463.81-2.212.068-.211.138-.422.214-.63.491-1.353,1.056-2.676,1.548-4.029.218-.6.433-1.207.653-1.809.346.18.708.337,1.067.483a20.236,20.236,0,0,0,4.329,1.2,32.88,32.88,0,0,0,4.725.381c.18,0,.359,0,.541,0a32.039,32.039,0,0,0,4.117-.267.485.485,0,0,0,.055-.008c1.114-.149,2.231-.318,3.325-.575a24.3,24.3,0,0,0,3.816-1.279,38.2,38.2,0,0,0,3.552-1.693c.248-.135.495-.275.74-.417-.017.165-.035.329-.052.492-.089.8-.225,1.6-.364,2.4-.158.871-.345,1.739-.553,2.6-.364,1.512-.818,3-1.232,4.5a13.09,13.09,0,0,0-.4,1.751,2.4,2.4,0,0,0-.015.766,3.444,3.444,0,0,0,.411,1.056,4.667,4.667,0,0,0,1.043,1.222,6.827,6.827,0,0,0,.98.684,9.784,9.784,0,0,0,1.048.512c.621.266,1.262.479,1.906.684,1.209.382,2.425.743,3.665,1.009a37.231,37.231,0,0,0,5.537.718c.843.049,1.687.068,2.531.068h.507c.889-.008,1.776-.035,2.664-.1.919-.07,1.832-.193,2.739-.354.932-.163,1.861-.352,2.775-.6a16.4,16.4,0,0,0,2.456-.834c.868-.393,1.72-.814,2.545-1.288a20.058,20.058,0,0,0,4.1-2.974,6.2,6.2,0,0,0,1.539-2.389,11.757,11.757,0,0,0,.349-1.186c.194-.019.384-.042.571-.061.663-.066,1.324-.158,1.983-.265a55.159,55.159,0,0,0,5.6-1.285c.829-.224,1.667-.443,2.48-.724a20.8,20.8,0,0,0,2.386-.939c.771-.378,1.522-.8,2.251-1.255a13,13,0,0,0,2.165-1.663,5.747,5.747,0,0,0,1.174-1.371,3.969,3.969,0,0,0,.447-1.762,6.6,6.6,0,0,0-.186-1.447c-.114-.566-.254-1.125-.377-1.687.006.027.012.055.016.084-.01-.053-.022-.106-.033-.158l0-.014c-.187-.874-.373-1.748-.581-2.619-.25-1.042-.505-2.085-.736-3.131,0,.026.01.049.015.075l-.036-.167-.009-.04c-.2-.943-.4-1.888-.566-2.837-.176-.995-.312-1.991-.406-3-.1-1.216-.173-2.438-.214-3.657-.036-1.1-.067-2.2-.156-3.3-.058-.652-.135-1.3-.238-1.952,1.288-.619,2.556-1.275,3.818-1.943,1.628-.861,3.24-1.756,4.884-2.587.807-.395,1.623-.772,2.451-1.123.89-.379,1.78-.764,2.688-1.1l.113-.04.046-.017h0a43.7,43.7,0,0,1,4.784-1.271,24.682,24.682,0,0,1,2.683-.377h.014c.371-.027.742-.049,1.114-.059a37.756,37.756,0,0,0,4.946,8.131,34.075,34.075,0,0,0,4.077,4.336,27.726,27.726,0,0,0,2.327,1.872c.724.519,1.476,1,2.243,1.452a38.677,38.677,0,0,0,5.2,2.552,35.161,35.161,0,0,0,5.484,1.741c1,.223,2.009.407,3.027.535s2.056.205,3.088.257c.843.041,1.687.059,2.532.059,1.066,0,2.13-.03,3.195-.083a40.537,40.537,0,0,0,5.912-.754A36.106,36.106,0,0,0,291.206,295a44.042,44.042,0,0,0,5.392-2.545,27.477,27.477,0,0,0,4.709-3.149.047.047,0,0,1,.012-.01l.151-.132.156-.138c.244-.214.483-.433.712-.662a23,23,0,0,0,3.568-4.709,27.7,27.7,0,0,0,1.391-2.7c.424-.953.8-1.925,1.142-2.909h0c.008-.022.017-.044.024-.067.023-.068.049-.138.073-.208a38.886,38.886,0,0,0,1.505-5.629,52.5,52.5,0,0,0,.715-5.625,47.411,47.411,0,0,0,.073-6.29c-.059-1.014-.133-2.028-.26-3.037-.124-.988-.3-1.965-.494-2.942l0-.017h0c0-.014,0-.027-.008-.04-.024-.116-.046-.232-.068-.348a45.6,45.6,0,0,0-1.479-5.667.213.213,0,0,0-.008-.022,26.954,26.954,0,0,0-1.274-3.16,29.061,29.061,0,0,0-1.593-2.858l0,0a2.043,2.043,0,0,0,.186-.185c.23-.266.409-.566.623-.846.1-.11.2-.214.3-.315a16.725,16.725,0,0,1,1.362-1.1,11.816,11.816,0,0,1,1.1-.684l.128-.067c.4-.205.816-.391,1.232-.567s.824-.332,1.219-.534a6.436,6.436,0,0,0,2-1.526,6.6,6.6,0,0,0,.908-1.462,5.557,5.557,0,0,0,.464-1.591,9.56,9.56,0,0,0,.1-.952A6.953,6.953,0,0,0,315.224,231.085ZM105.052,311.223c-.127-.061-.254-.119-.385-.168-.27-.1-.55-.177-.825-.264a17.763,17.763,0,0,1-1.985-.75,11.11,11.11,0,0,1-1.08-.589q-.268-.178-.517-.38c-.067-.062-.131-.124-.194-.189l-.061-.075c-.043-.07-.083-.14-.122-.21s-.057-.131-.084-.2c-.048-.144-.087-.29-.123-.439a4.612,4.612,0,0,1-.077-.476c-.017-.243-.019-.485-.012-.727.013-.225.037-.446.071-.668a10.146,10.146,0,0,1,.252-.984c.263-.809.53-1.621.835-2.417q.471-1.226.931-2.459c.264-.712.505-1.432.746-2.153.01-.031.021-.061.03-.093l0-.006c.133-.337.265-.678.391-1.02.708-1.9,1.285-3.844,1.852-5.789.261-.892.483-1.79.691-2.694.223-.975.429-1.951.6-2.934.04-.235.076-.467.11-.7.027-.192.053-.384.077-.575q.467,1.151.888,2.318c.223.642.427,1.293.669,1.93a9.294,9.294,0,0,0,.44.993c.129.244.272.476.4.717.054.116.1.235.146.354a16.538,16.538,0,0,1,.509,1.748,17.041,17.041,0,0,1,.361,4.454c-.021.437-.044.874-.093,1.309-.043.407-.106.811-.172,1.216a32.846,32.846,0,0,1-.932,3.684c-.158.49-.319.975-.491,1.463q-.7,2-1.567,3.931C105.914,309.333,105.475,310.274,105.052,311.223Zm13.935,12.253a5.442,5.442,0,0,0-.128.916c0,.054,0,.107,0,.159-.708-.232-1.408-.482-2.106-.745-.735-.276-1.465-.568-2.18-.9q-1.233-.582-2.421-1.256c.291-.243.6-.464.91-.678a9.185,9.185,0,0,1,.865-.531,9.842,9.842,0,0,1,1.045-.431,10.556,10.556,0,0,1,1.1-.321c.168-.036.337-.066.506-.086a3.886,3.886,0,0,1,.411-.01,2.439,2.439,0,0,1,.245.026c.044.008.086.021.131.033.087.03.174.064.26.1s.156.084.23.129c.041.028.079.057.118.086s.049.046.073.07c.037.045.073.091.107.138.08.126.156.257.236.387s.154.252.227.383c.052.109.1.221.14.333q.091.272.156.55a5.005,5.005,0,0,1,.08.507,7.478,7.478,0,0,1,.016.816C119,323.265,119,323.37,118.986,323.476Zm7.569,1.817a3.412,3.412,0,0,0-.017.46c0,.057.009.113.017.17-.247-.024-.494-.051-.742-.072-.462-.041-.928-.05-1.388-.11-.381-.05-.76-.119-1.139-.178s-.742-.107-1.114-.167q-.829-.151-1.646-.361a.875.875,0,0,0,.048-.164c.008-.028.015-.055.024-.084.016-.046.034-.091.053-.135.082-.164.176-.326.274-.482a3.98,3.98,0,0,1,.278-.378,5.478,5.478,0,0,1,.4-.394,6.483,6.483,0,0,1,.568-.449l.008,0,.012-.009.006,0,.009-.006.01-.006a7.348,7.348,0,0,1,.633-.377,9.7,9.7,0,0,1,.919-.37,4.84,4.84,0,0,1,.48-.141,3.128,3.128,0,0,1,.312-.046c.073,0,.146-.006.22-.006.1.006.2.018.3.033.073.014.146.031.217.052s.125.045.186.07.131.072.195.112.125.087.185.136.091.085.135.131.091.111.133.171c.059.091.113.185.165.279a1.768,1.768,0,0,1,.077.174,3.337,3.337,0,0,1,.089.326,6.852,6.852,0,0,1,.109.766,5.589,5.589,0,0,1,.01.6C126.576,324.983,126.566,325.138,126.555,325.293Zm7.79-.315a2.284,2.284,0,0,0-.615.4c-.04.009-.08.018-.12.03a2.88,2.88,0,0,0-.547.2c-.4.086-.812.154-1.221.214-.519.075-1.039.155-1.562.205a10.775,10.775,0,0,1-1.12.024c-.337-.015-.672-.042-1.011-.05l-.214-.006c.019-.026.039-.052.057-.079.212-.3.432-.6.675-.889a7.415,7.415,0,0,1,.584-.6,13.345,13.345,0,0,1,1.253-.964,8.339,8.339,0,0,1,.763-.457,4.056,4.056,0,0,1,.385-.168q.169-.058.344-.1.134-.027.268-.04c.092-.006.182-.009.275-.009.113.008.225.019.339.037s.229.049.342.08c.079.027.154.055.23.086.094.046.186.095.275.147.034.025.068.05.1.077s.059.057.088.086c.061.071.118.144.172.218.037.058.07.116.1.175.055.116.109.236.153.357.057.169.106.342.146.515.03.136.057.274.086.413C134.5,324.907,134.419,324.94,134.346,324.978Zm49.523-.494.122.006-.146-.006h0a39.694,39.694,0,0,1-4.3-.436c.071-.12.146-.239.222-.357a10.628,10.628,0,0,1,.773-1.012,10.007,10.007,0,0,1,.868-.861,11.447,11.447,0,0,1,.993-.8c.119-.077.242-.147.367-.213.155-.075.31-.144.471-.2a3.74,3.74,0,0,1,.4-.115q.231-.043.465-.066c.141-.008.282-.013.424-.008.089.006.177.016.265.028a6.12,6.12,0,0,1,.614.146,3.517,3.517,0,0,1,.34.133c.086.043.171.089.253.14.04.028.079.057.116.088s.074.07.11.107c.142.164.279.335.406.511.131.2.256.4.368.611a4.909,4.909,0,0,1,.207.487,9.1,9.1,0,0,1,.259.988v0c.033.146.048.294.075.443.026.129.054.253.091.376C186.377,324.531,185.12,324.528,183.868,324.484Zm12.557-2.082c-.5.249-1.014.489-1.535.7a24.656,24.656,0,0,1-2.538.721c-.925.2-1.854.361-2.793.482.019-.073.042-.146.064-.217a10.86,10.86,0,0,1,.5-1.254,11.192,11.192,0,0,1,.585-1.064,9.761,9.761,0,0,1,.691-.941c.158-.178.323-.35.5-.514.15-.129.306-.254.468-.368a4.9,4.9,0,0,1,.425-.252q.176-.085.36-.156a3.621,3.621,0,0,1,.349-.1,3.842,3.842,0,0,1,.394-.061,4.567,4.567,0,0,1,.457-.01c.122.009.243.022.366.043a3.65,3.65,0,0,1,.358.085,2.229,2.229,0,0,1,.29.113c.077.039.152.08.225.124a3.389,3.389,0,0,1,.308.229,5.492,5.492,0,0,1,.4.4l0,0h0l0,0,.009.01a12.5,12.5,0,0,1,.97,1.247l.008.017c.04.079.079.158.122.235Q196.924,322.145,196.425,322.4Zm5.362-4.472c-.074.223-.157.443-.251.661-.036.067-.073.134-.11.2-.07.1-.14.195-.216.289-.173.193-.358.373-.55.548a17.342,17.342,0,0,1-1.531,1.191c-.124.083-.248.165-.375.245.037-.178.08-.359.133-.532a10.109,10.109,0,0,1,.4-1.027,4.388,4.388,0,0,1,.232-.422,7.456,7.456,0,0,1,.525-.714c.091-.1.186-.2.287-.3a3.608,3.608,0,0,1,.3-.236,6.128,6.128,0,0,1,.547-.315,5.767,5.767,0,0,1,.614-.263c.059-.021.119-.041.178-.059C201.921,317.444,201.859,317.69,201.787,317.93Zm1.059-20.96a16.827,16.827,0,0,0-.751,2.9,10.99,10.99,0,0,0-.125,1.313c-.022.444-.049.889-.052,1.333-.006.8-.024,1.6-.033,2.4-.01.837.01,1.671-.015,2.509-.019.38-.048.762-.039,1.145.009.354.024.708.04,1.061.036.791.019,1.585.068,2.376.082,1.322.226,2.642.191,3.968,0,.071-.01.142-.016.213l-.1.007a3.832,3.832,0,0,0-1.792.705,6.2,6.2,0,0,0-1.57,1.437,6.1,6.1,0,0,0-.618,1.023,5.273,5.273,0,0,0-.241.648,5.532,5.532,0,0,0-2.8-1.852,4.594,4.594,0,0,0-1.143-.146,3.815,3.815,0,0,0-1.247.244,6.059,6.059,0,0,0-2.193,1.482,8.767,8.767,0,0,0-1.376,1.908c-.014-.031-.028-.061-.044-.093a4.472,4.472,0,0,0-1.485-1.794l-.021-.014a.069.069,0,0,1-.015-.01c-.006,0-.01-.008-.017-.01l-.006,0a5.717,5.717,0,0,0-1.164-.58,3.737,3.737,0,0,0-.832-.182,4.475,4.475,0,0,0-.833.014,5.392,5.392,0,0,0-.908.154,6.353,6.353,0,0,0-.934.344,7.105,7.105,0,0,0-.908.505,8.333,8.333,0,0,0-.88.629,7.669,7.669,0,0,0-1.185,1.288,6.642,6.642,0,0,0-.467.72,6.138,6.138,0,0,0-.336.731,5.433,5.433,0,0,0-.19.575,36.479,36.479,0,0,1-3.72-.972h-.006l-.009,0-.032-.012-.077-.022-.037-.014h0l-.034-.012a18.59,18.59,0,0,1-1.86-.688c-.209-.1-.415-.211-.616-.331-.1-.07-.2-.143-.3-.22-.064-.057-.124-.119-.185-.181a.209.209,0,0,1-.018-.023c.144-.714.355-1.413.556-2.112.311-1.078.614-2.157.876-3.249a44.206,44.206,0,0,0,.938-5.191c.113-.97.165-1.945.185-2.92.008-.335,0-.67-.006-1.006a1.35,1.35,0,0,0-.082-1.216c-.017-.18-.037-.358-.061-.535a13,13,0,0,0-.629-2.708c-.243-.675-.544-1.328-.852-1.974-.363-.766-.709-1.539-1.081-2.3-.276-.568-.562-1.13-.849-1.693a1.467,1.467,0,0,0-.1-.205c-.012-.019-.024-.039-.036-.057-.109-.211-.216-.422-.322-.635-.176-.349-.355-.7-.534-1.045-.194-.4-.349-.813-.525-1.219-.163-.38-.326-.764-.474-1.15a7.33,7.33,0,0,0-.37-.872.863.863,0,0,0-.268-.327.1.1,0,0,0-.177-.018.7.7,0,0,0-.31.408,2.491,2.491,0,0,0-.1.437,4.92,4.92,0,0,0-.073.566,10.347,10.347,0,0,0,.006,1.389,13.425,13.425,0,0,0,.205,1.447,13.854,13.854,0,0,0,.339,1.451c.084.279.176.554.274.83v0c.012.034.023.07.037.1.08.217.163.434.25.65.6,1.5,1.409,2.909,1.973,4.425a12.218,12.218,0,0,1,.337,1.223c.064.319.113.639.146.965.036.46.05.923.054,1.387-.353.268-.709.53-1.08.769-.438.285-.889.555-1.342.816a25.937,25.937,0,0,1-2.744,1.349c-.641.261-1.292.516-1.953.724-.642.2-1.294.375-1.943.552a38.048,38.048,0,0,1-4.57.9h0a32.791,32.791,0,0,1-3.732.285,29.818,29.818,0,0,1-3.351-.165,29.207,29.207,0,0,1-3.269-.644c-.657-.171-1.3-.366-1.94-.6a16.1,16.1,0,0,0,.563-1.9,15.9,15.9,0,0,0,.306-2.694,19.3,19.3,0,0,0-.109-2.819,51.7,51.7,0,0,0-.751-5.262c-.178-.886-.415-1.752-.668-2.62-.207-.7-.424-1.407-.664-2.1-.55-1.594-1.185-3.158-1.757-4.745-.039-.113-.079-.226-.118-.339-.218-.657-.418-1.323-.616-1.986-.165-.559-.3-1.124-.465-1.683-.133-.461-.287-.913-.424-1.374-.118-.386-.212-.782-.324-1.172a.3.3,0,0,0-.575.048,8.052,8.052,0,0,0-.085,1.07c-.01.384-.019.765-.006,1.148a15.767,15.767,0,0,0,.491,3.015c.165.7.364,1.4.55,2.1.21.782.476,1.546.713,2.319.459,1.5.91,3.012,1.253,4.549,0,.015.006.028.009.042l0,.012,0,.021c0,.012,0,.023.008.035,0-.009,0-.016-.006-.023a53.018,53.018,0,0,1,.879,5.914,21.024,21.024,0,0,1,.068,2.325,18.5,18.5,0,0,1-.2,1.932c-.057.283-.122.563-.2.839-.312.978-.633,1.95-.944,2.929-.376,1.183-.845,2.337-1.268,3.505-.185.511-.362,1.023-.567,1.528-.19.467-.388.937-.6,1.4-.191.393-.4.773-.6,1.165-.269.547-.523,1.1-.774,1.659-.467,1.035-.9,2.088-1.376,3.119-.092.19-.191.375-.3.556a16.669,16.669,0,0,1-1.077,1.487c-.041.044-.083.092-.127.137l-.011.009-.066.035a3.688,3.688,0,0,0-.017-.948,3.12,3.12,0,0,0-.729-1.606,1.8,1.8,0,0,0-.284-.269,2.4,2.4,0,0,0-.419-.235,2.361,2.361,0,0,0-.747-.186,4.008,4.008,0,0,0-1.609.3,7.867,7.867,0,0,0-.866.368,9.451,9.451,0,0,0-2.616,1.95c-.1.1-.2.212-.292.32a5.844,5.844,0,0,0-.05-.944,3.771,3.771,0,0,0-.344-1.2,2.439,2.439,0,0,0-.837-.925,3.877,3.877,0,0,0-2.737-.449,4.44,4.44,0,0,0-.773.185,5.007,5.007,0,0,0-.832.4,8.857,8.857,0,0,0-1.317.944c-.08.071-.16.14-.239.212a7.858,7.858,0,0,0-.217-1.481,3.742,3.742,0,0,0-.636-1.4,3.459,3.459,0,0,0-1.246-.892,4.1,4.1,0,0,0-.778-.288,4.378,4.378,0,0,0-.892-.111,3.907,3.907,0,0,0-.894.061,6.362,6.362,0,0,0-.85.256,13.762,13.762,0,0,0-1.621.7,8.617,8.617,0,0,0-.948.543,5.438,5.438,0,0,0-1.064.877,3.048,3.048,0,0,0-.37.508q-.4-.236-.783-.485c-.348-.229-.688-.47-1.042-.693-.308-.2-.624-.381-.932-.577a16.935,16.935,0,0,1-1.577-1.129c-.077-.072-.153-.143-.225-.218s-.129-.157-.189-.237l-.032-.054-.023-.057-.027-.092c0-.018-.006-.039-.009-.059s0-.059,0-.089c.008-.08.016-.158.028-.238a7.307,7.307,0,0,1,.189-.753c.324-1,.73-1.98,1.143-2.947.621-1.447,1.3-2.869,1.922-4.317.571-1.336,1.075-2.691,1.513-4.077.235-.752.456-1.513.616-2.289.115-.565.218-1.133.281-1.707.059-.544.084-1.091.1-1.638a23.951,23.951,0,0,0-.079-2.691c-.08-.943-.207-1.879-.33-2.816-.089-.69-.192-1.376-.3-2.066-.056-.363-.109-.726-.153-1.091s-.109-.758-.149-1.136c-.015-.309-.009-.619-.033-.928a7.477,7.477,0,0,0-.221-1.27c-.174-.672-.411-1.329-.642-1.983q-.779-2.194-1.716-4.324c-.678-1.552-1.416-3.074-2.135-4.608-.694-1.481-1.332-2.982-1.894-4.517a30.88,30.88,0,0,1-1.023-3.5,23.7,23.7,0,0,1-.376-2.6,20.758,20.758,0,0,1-.055-2.262c.018-.375.035-.749.074-1.118s.1-.746.158-1.118a15.693,15.693,0,0,1,.39-1.689c.194-.609.428-1.21.666-1.8.232-.579.474-1.154.735-1.719h0c.043-.092.084-.181.129-.274a.083.083,0,0,0,.006-.013c.207-.439.408-.882.615-1.323.242-.509.476-1.017.7-1.528.178-.4.319-.815.48-1.219.1-.259.2-.523.3-.782a1.253,1.253,0,0,0,.146-.408c.059-.092-.077-.193-.151-.113-.165.066-.288.267-.4.4-.225.274-.444.55-.673.821-.037.042-.075.083-.113.128-.578.657-1.092,1.365-1.614,2.066-.44.592-.858,1.192-1.259,1.812a1.089,1.089,0,0,0-.241.028,6.186,6.186,0,0,0-1.121.437c-.3.135-.592.271-.894.4a13.569,13.569,0,0,1-1.341.458,9.546,9.546,0,0,1-.957.2c-.266.031-.535.049-.8.057a12.569,12.569,0,0,1-1.4-.091,15.879,15.879,0,0,1-1.827-.327,13.647,13.647,0,0,1-1.318-.422c-.259-.107-.508-.229-.755-.361a17.611,17.611,0,0,1-1.644-1.078c-.2-.159-.391-.328-.575-.505a15.747,15.747,0,0,1-1.094-1.268,21.455,21.455,0,0,1-1.3-1.9c-.6-1.057-1.115-2.151-1.684-3.225-.14-.266-.283-.531-.424-.8a1.249,1.249,0,0,0-.155-.5,2.674,2.674,0,0,0-.485-.62c-.187-.178-.394-.341-.581-.519-.3-.3-.617-.584-.922-.88a8.287,8.287,0,0,1-1.138-1.458,6.865,6.865,0,0,1-.332-.666c-.041-.112-.08-.225-.113-.339a7.7,7.7,0,0,1-.167-.782c-.028-.262-.039-.523-.041-.785a8.177,8.177,0,0,1,.049-.834c.039-.272.093-.54.158-.806a12.049,12.049,0,0,1,.476-1.466q.227-.562.467-1.123c.2-.476.421-.944.6-1.427a11.18,11.18,0,0,0,.7-3.16,11.877,11.877,0,0,0-.378-4.282,6.911,6.911,0,0,0-.536-1.307l.453.179h-.006a13.275,13.275,0,0,1,1.374.642,8.124,8.124,0,0,1,.791.525,10.055,10.055,0,0,1,.787.67,6.938,6.938,0,0,1,.489.575,11.866,11.866,0,0,1,.726,1.085,12.865,12.865,0,0,1,.682,1.359c.092.241.172.485.241.733.039.149.073.3.1.451a1.311,1.311,0,0,0,.348.92.767.767,0,0,0,.834.106,1.269,1.269,0,0,0,.4-.377c.071-.091.145-.178.215-.269.119-.155.213-.319.32-.482a16.554,16.554,0,0,1,1.11-1.3c.113-.111.231-.221.355-.323.009.109.015.217.017.328,0,.141-.009.281-.024.422-.026.186-.045.375-.063.562-.04.353-.056.705-.082,1.057-.027.335-.057.669-.1,1a14.82,14.82,0,0,1-.288,1.5,14.218,14.218,0,0,1-.5,1.609q-.372.905-.827,1.775c-.273.522-.523,1.054-.805,1.57,0,0,0,.009-.008.012l0,.009,0,.008-.006.01c-.23.4-.468.791-.728,1.168a3.374,3.374,0,0,0-.5.865.772.772,0,0,0,.171.822.668.668,0,0,0,.547.162c.216-.023.425-.076.639-.11.153-.019.3-.021.458-.046.137-.023.274-.045.411-.067.249-.043.494-.093.744-.129a3.606,3.606,0,0,1,.422-.031h.05c-.039.088-.079.174-.125.259-.1.167-.221.317-.306.494s-.162.326-.25.485a6.59,6.59,0,0,1-.394.6,14.542,14.542,0,0,1-1.1,1.293,8.16,8.16,0,0,1-.713.662,9.727,9.727,0,0,1-.9.593l-.008,0-.062.036c-.1.057-.2.111-.3.159a.691.691,0,0,0-.364.272.333.333,0,0,0,.079.386c0,.019.009.037.013.053a2.3,2.3,0,0,0,.3.573,6.324,6.324,0,0,0,.671.84,8.765,8.765,0,0,0,2.124,1.669,12.3,12.3,0,0,0,4.521,1.31l.053.006a16.3,16.3,0,0,0,1.926.137c.12,0,.242,0,.362-.007a10.484,10.484,0,0,0,2.428-.348,17.286,17.286,0,0,0,2.406-.871c.328-.147.651-.309.969-.479a12.456,12.456,0,0,0,1.111-.639,28.855,28.855,0,0,0,3.834-3.254c1.057-1.02,2.081-2.072,3.115-3.115.379-.382.78-.738,1.186-1.091.429-.372.863-.739,1.309-1.088a15.522,15.522,0,0,1,1.458-.959,9.923,9.923,0,0,1,1.018-.5,9.141,9.141,0,0,1,.872-.3,11.1,11.1,0,0,1,1.182-.256c.2-.023.4-.04.6-.058a13.572,13.572,0,0,0,1.509,3.014,11.48,11.48,0,0,0,3.644,3.511,7.719,7.719,0,0,0,2.738.974,17.249,17.249,0,0,0,2.462.19c.827.009,1.647-.032,2.47-.093.4-.03.79-.066,1.182-.1.363-.034.73-.079,1.1-.088.16,0,.322.017.481.035.257.037.515.082.767.141.109.033.217.07.323.108.08.035.158.071.235.111.062.039.124.079.184.121.044.034.085.07.125.105s.086.094.128.143c.108.149.207.3.3.464.113.2.216.407.31.62.064.167.12.335.169.505a15.549,15.549,0,0,1,.308,1.57c.061.474.086.95.125,1.425.043.531.068,1.058.071,1.591v-.147c0,.571.009,1.143.015,1.714v.012c0,.046,0,.092,0,.14,0-.007,0-.016,0-.023.006,1.017.031,2.029.1,3.041a13.151,13.151,0,0,0,.535,3.341,9.269,9.269,0,0,0,1.767,3.144,6.947,6.947,0,0,0,3.147,2.1,6.056,6.056,0,0,0,1.661.218c.114,0,.227,0,.341-.008a5.728,5.728,0,0,0,1.979-.429,11.762,11.762,0,0,0,2.789-1.753,17.241,17.241,0,0,0,2.488-2.572c.655-.812,1.271-1.658,1.854-2.522.133-.2.265-.393.394-.593.045.111.093.221.14.329a18.521,18.521,0,0,0,.984,1.959c.071.122.146.244.218.364.222.381.438.77.677,1.141s.488.722.74,1.076q.482.682.983,1.353a29.13,29.13,0,0,0,2.038,2.643c.756.876,1.537,1.732,2.361,2.546.807.8,1.644,1.565,2.5,2.31.551.482,1.118.947,1.694,1.4a56.107,56.107,0,0,0,5.293,4.226,58.839,58.839,0,0,0,5.405,3.394c1.8.991,3.656,1.873,5.541,2.688a52.167,52.167,0,0,0,5.828,2.142c.922.272,1.857.505,2.8.707.986.208,1.978.4,2.975.556a43.848,43.848,0,0,0,6,.547l.489,0a39.275,39.275,0,0,0,5.479-.386l.077-.012c-.648.961-1.3,1.92-1.929,2.892l-.027.041-.032.05A23.431,23.431,0,0,0,202.846,296.971Zm18.2,11.295.133.028c.025.088.049.177.07.266.046.23.084.464.113.7.008.119.01.238.009.357,0,.019,0,.037-.006.055-.017.076-.036.15-.057.225s-.059.163-.092.243l-.023.039c-.032.046-.067.091-.1.135-.122.134-.25.261-.384.384-.124.106-.25.205-.381.3-.556.359-1.15.664-1.738.968a.5.5,0,0,1-.054.028,30.9,30.9,0,0,1-3.083,1.309l0-.016a8.412,8.412,0,0,1,.257-.989,6.409,6.409,0,0,1,.3-.765,7.426,7.426,0,0,1,.462-.833,7.271,7.271,0,0,1,.458-.6,9.39,9.39,0,0,1,.747-.775c.155-.133.317-.261.483-.379a6.226,6.226,0,0,1,.572-.337c.11-.054.223-.1.337-.146l.012,0c.1-.034.2-.064.3-.089a7.133,7.133,0,0,1,.762-.118c.185-.012.371-.017.557-.013h.017A2.612,2.612,0,0,1,221.043,308.266Zm-.23-1.13a3.039,3.039,0,0,0-1.337-.079,5.778,5.778,0,0,0-1.6.576,5.706,5.706,0,0,0-.919.59,5.936,5.936,0,0,0-.789.724,7.825,7.825,0,0,0-.712.969,8.935,8.935,0,0,0-.507.888c-.083.171-.164.344-.234.52s-.134.376-.194.568c-.018.058-.036.117-.05.176a5.362,5.362,0,0,0-1.559-1.256,4.916,4.916,0,0,0-1.1-.444,4.465,4.465,0,0,0-1.252-.131,4.413,4.413,0,0,0-1.359.269,4.348,4.348,0,0,0-.648.287,4.832,4.832,0,0,0-.578.391,4.885,4.885,0,0,0-.992.984,4.6,4.6,0,0,0-.61,1.12,3.135,3.135,0,0,0-.159.522c-.025.146-.039.293-.053.44s-.059.544.165.554h.01c.14,0,.177-.15.216-.259.047-.131.093-.261.151-.387v-.01c.137-.27.281-.536.444-.792l.006-.009,0-.008,0-.006h0a5.094,5.094,0,0,1,.354-.47h0l.032-.039.006-.006c.074-.084.154-.163.236-.24a4.561,4.561,0,0,1,.458-.357c.094-.061.189-.119.287-.173a3.817,3.817,0,0,1,.412-.172c.169-.058.342-.112.517-.153s.324-.058.488-.076h.032a5.474,5.474,0,0,1,.6-.007,4.077,4.077,0,0,1,.431.046c.14.027.278.061.413.1a5.3,5.3,0,0,1,.505.182,4.2,4.2,0,0,1,.4.226c.1.07.2.143.3.222a6.124,6.124,0,0,1,.552.529c.089.1.171.209.25.32.091.136.177.278.256.422l.088.165q-.91.27-1.837.474a30.482,30.482,0,0,1-3.418.488l-.049,0h-.019l-.064.006-.048,0c-.807.068-1.613.131-2.423.171-.122.006-.243.012-.364.014,0-.2-.013-.4-.022-.606-.044-.883-.11-1.771-.21-2.649s-.282-1.766-.41-2.651c-.059-.415-.118-.829-.189-1.241-.068-.394-.131-.785-.171-1.18-.049-.594-.074-1.187-.091-1.78-.015-.552-.027-1.1-.012-1.655.019-.371.05-.743.106-1.111a11.161,11.161,0,0,1,.3-1.167,31.537,31.537,0,0,1,1.34-3.569,28.949,28.949,0,0,1,1.727-3.053c1.307-2,2.694-3.941,4-5.944,0-.008.01-.015.015-.024s.015-.022.022-.034q.651-.17,1.3-.363a49.827,49.827,0,0,0,5.166-1.868,14.079,14.079,0,0,0-.234,1.6,40.948,40.948,0,0,0-.1,6.312c.068,1.063.18,2.117.348,3.169.159.989.348,1.971.553,2.952.368,1.775.77,3.545,1.288,5.283C220.447,306,220.64,306.566,220.813,307.135Zm85.174-56.419c.226.846.4,1.7.57,2.56l0,.022a.2.2,0,0,0,.006.027c.007.039.014.077.022.116.1.549.2,1.1.274,1.651.079.57.14,1.141.211,1.71.146,1.155.266,2.307.339,3.468,0,.017,0,.035,0,.051v0a48.276,48.276,0,0,1-.061,5.9c0,.071-.01.144-.017.216,0,.01,0,.021,0,.031v.006a48.031,48.031,0,0,1-.8,5.786,42.509,42.509,0,0,1-1.247,4.457h0l0,.012v0l0,.007h0c0,.01-.008.02-.01.029l0,.008v.008c-.006.016-.012.031-.017.048h0l-.049.138,0,.009c-.006.017-.012.035-.019.053a33.892,33.892,0,0,1-1.527,3.626,28.565,28.565,0,0,1-1.561,2.632,23.663,23.663,0,0,1-1.487,1.934c-.388.422-.785.832-1.212,1.213a.061.061,0,0,1-.012.012c-.016.015-.034.03-.05.045l-.073.062-.07.061c-.58.485-1.182.935-1.807,1.363a44.382,44.382,0,0,1-4.424,2.51,36.484,36.484,0,0,1-3.937,1.653,40.9,40.9,0,0,1-4.355,1.131,43.774,43.774,0,0,1-5.151.663,56.442,56.442,0,0,1-6.848-.05,33.644,33.644,0,0,1-3.916-.562,35.591,35.591,0,0,1-3.762-1.073,41.072,41.072,0,0,1-4.376-1.878,35.7,35.7,0,0,1-3.379-1.971,26.58,26.58,0,0,1-2.385-1.849,33.136,33.136,0,0,1-2.7-2.692,42.2,42.2,0,0,1-2.922-3.83,36.223,36.223,0,0,1-2.238-3.872,57.258,57.258,0,0,1-2.7-6.75q-.326-.959-.617-1.931c-.278-.926-.5-1.863-.7-2.808-.167-.809-.341-1.615-.5-2.425-.363-1.8-.725-3.593-1.116-5.383-.369-1.689-.731-3.384-1.19-5.052-.226-.828-.469-1.649-.771-2.453-.294-.788-.638-1.557-1.009-2.311-.018-.035-.035-.068-.05-.1a6.839,6.839,0,0,0-.989-1.518c-.079-.089-.159-.182-.238-.272l0,0h0l-.008-.01a2.646,2.646,0,0,0-.236-.229.385.385,0,0,0-.321-.126c-.2.044-.2.393-.195.552.012.271.045.541.079.811a15.646,15.646,0,0,0,.437,1.859c.211.828.428,1.653.635,2.483.091.362.18.722.265,1.084a3.086,3.086,0,0,0-.464.055c-.241.048-.479.1-.715.162-.281.075-.548.176-.821.276a8.984,8.984,0,0,0-2.518,1.448,8.054,8.054,0,0,0-1.041.984,3.809,3.809,0,0,0-.729,1.367l-.062-.044c-.135-.109-.265-.226-.388-.346l0,0-.006-.006a10.114,10.114,0,0,1-.769-.889h0a2.7,2.7,0,0,1-.177-.263,3.26,3.26,0,0,1-.164-.315l-.008-.019-.009-.019h0v-.006a5.771,5.771,0,0,1-.2-.621,3.656,3.656,0,0,1-.076-.4v.01c-.017-.14-.041-.279-.062-.417a.365.365,0,0,0-.041-.147.16.16,0,0,0-.107-.084c-.185-.057-.3.133-.382.268a1.1,1.1,0,0,0-.14.516,3.564,3.564,0,0,0,.384,1.592,5.425,5.425,0,0,0,.538,1,6.667,6.667,0,0,0,.756.849c.116.111.234.223.353.331a3.665,3.665,0,0,0,.321.256,6.063,6.063,0,0,0-.021.784c.015.4.082.8.124,1.2q.058.548.129,1.1a40.534,40.534,0,0,1,.452,4.768c0,.42,0,.838-.035,1.258-.031.361-.075.719-.12,1.078-.023.162-.053.321-.092.478-.1.352-.216.7-.314,1.058-.064.238-.128.474-.174.716-.028.143-.053.287-.088.429-.1.348-.221.691-.336,1.035a2.949,2.949,0,0,0-.145,1.968,2.612,2.612,0,0,0,1.986,1.644,2.717,2.717,0,0,0,.468.04,2.527,2.527,0,0,0,.87-.151,6.852,6.852,0,0,0,.867-.424,11.932,11.932,0,0,0,3.6-3.1,20.414,20.414,0,0,0,1.377-2.025,10.968,10.968,0,0,0,.6-1.137q.109-.248.2-.5c.232,1.136.487,2.267.785,3.388a41.015,41.015,0,0,0,1.467,4.434c-.294-.019-.588-.026-.879-.025a28.726,28.726,0,0,0-5.938.725,48.45,48.45,0,0,0-5.587,1.539c-.864.3-1.717.63-2.572.955s-1.694.656-2.529,1.008c-1.846.781-3.654,1.652-5.477,2.486s-3.687,1.591-5.581,2.262c-.076.025-.151.052-.226.077a42.7,42.7,0,0,1-4.851,1.32,40.564,40.564,0,0,1-4.736.673,37.144,37.144,0,0,1-4.124.079,50.108,50.108,0,0,1-5.608-.643,45.384,45.384,0,0,1-5.031-1.206,61.736,61.736,0,0,1-6.918-2.768,57.782,57.782,0,0,1-6.1-3.368,59.163,59.163,0,0,1-5.937-4.4,63.144,63.144,0,0,1-5.414-5.244l-.006-.008a47.492,47.492,0,0,1-3.616-4.653c-.314-.467-.623-.939-.9-1.426-.232-.4-.447-.809-.655-1.219a.234.234,0,0,0-.015-.033.26.26,0,0,1-.015-.032,23.39,23.39,0,0,1-1.054-2.46,17.007,17.007,0,0,1-.534-1.907,16.533,16.533,0,0,1-.268-1.879c-.009-.141-.018-.284-.033-.424.8-1.616,1.539-3.259,2.315-4.885.947-1.987,1.915-3.97,2.984-5.893.458-.806.95-1.593,1.485-2.351.451-.641.891-1.293,1.358-1.925a36.011,36.011,0,0,1,2.573-2.907,32.962,32.962,0,0,1,2.994-2.573,39.536,39.536,0,0,1,3.861-2.468c1.576-.9,3.234-1.651,4.863-2.451.8-.395,1.613-.766,2.416-1.157.283-.137.572-.268.845-.426a1.321,1.321,0,0,0,.294-.2.124.124,0,0,0,.067-.113.122.122,0,0,0-.124-.109.985.985,0,0,0-.375.035,8.965,8.965,0,0,0-.88.223c-.838.24-1.673.5-2.506.76-1.058.324-2.09.7-3.112,1.125-.965.4-1.926.807-2.863,1.268-1.032.505-2.05,1.042-3.037,1.631-.921.55-1.8,1.159-2.663,1.793a31.621,31.621,0,0,0-2.869,2.325,28.173,28.173,0,0,0-2.392,2.541,36.4,36.4,0,0,0-2.238,2.979c-.718,1.056-1.362,2.155-1.989,3.266-1.036,1.835-1.977,3.717-2.891,5.616-.9,1.853-1.787,3.715-2.789,5.514a42.776,42.776,0,0,1-2.906,4.4,22.779,22.779,0,0,1-1.719,2.012,12.977,12.977,0,0,1-1.094.965,12.112,12.112,0,0,1-1.11.742c-.208.115-.42.225-.637.321-.057.021-.113.04-.169.058-.085.019-.169.035-.254.049-.153.017-.306.028-.459.034s-.3-.01-.457-.026c-.091-.014-.181-.031-.27-.05s-.177-.058-.265-.091c-.062-.028-.124-.057-.185-.088-.156-.1-.308-.195-.455-.3-.16-.127-.315-.259-.464-.4-.122-.129-.238-.261-.349-.4-.173-.238-.336-.48-.487-.731-.2-.384-.38-.783-.548-1.185a18.27,18.27,0,0,1-.678-1.935,31.34,31.34,0,0,1-.6-3.467c0,.037.009.074.014.113-.1-.73-.186-1.46-.286-2.188l0-.03c-.006-.037-.01-.074-.015-.11-.086-.685-.153-1.375-.289-2.053a12.891,12.891,0,0,0-.478-1.983,12.059,12.059,0,0,0-.738-1.676,5.682,5.682,0,0,0-.549-.809,3.983,3.983,0,0,0-.663-.628,7.462,7.462,0,0,0-.85-.545,4.238,4.238,0,0,0-1.056-.4,11.66,11.66,0,0,0-1.951-.32c-1.287-.1-2.581-.031-3.865-.171a12.561,12.561,0,0,1-1.336-.236,7.491,7.491,0,0,1-.714-.234c-.354-.15-.7-.319-1.031-.5-.262-.156-.512-.328-.757-.508a12.47,12.47,0,0,1-.993-.859,11.614,11.614,0,0,1-.807-.922,12.381,12.381,0,0,1-.739-1.1,13.287,13.287,0,0,1-.61-1.259,14.881,14.881,0,0,1-.53-1.556,13.576,13.576,0,0,1-.3-1.5c-.066-.521-.112-1.044-.174-1.564-.076-.644-.172-1.282-.293-1.92-.111-.584-.227-1.173-.358-1.754a9.968,9.968,0,0,0-.684-2.107,8.95,8.95,0,0,0-1.85-2.486,10.292,10.292,0,0,0-1.116-.981,12.179,12.179,0,0,0-1.292-.792c-.2-.109-.4-.22-.606-.311a6.033,6.033,0,0,0-.907-.3c-.534-.137-1.082-.216-1.624-.3-1.1-.174-2.2-.284-3.3-.416-.6-.08-1.188-.185-1.781-.279-.659-.1-1.322-.173-1.983-.242-1.134-.118-2.275-.187-3.406-.321a22.047,22.047,0,0,1-2.453-.44,15.564,15.564,0,0,1-1.615-.525,11.375,11.375,0,0,1-1.168-.568c-.259-.153-.513-.317-.76-.492a12.856,12.856,0,0,1-1-.883c-.2-.2-.385-.4-.562-.615-.126-.173-.244-.354-.355-.54q-.246-.452-.455-.924c-.107-.275-.2-.554-.283-.841s-.132-.584-.177-.88c-.062-.543-.105-1.088-.118-1.633q.009-.375.049-.745c.053-.394.115-.785.2-1.17.082-.282.177-.557.281-.829.185-.437.385-.865.608-1.283a25.72,25.72,0,0,1,1.555-2.34,30.375,30.375,0,0,1,2.374-2.749c.5-.5,1.015-.986,1.54-1.46.508-.462,1.044-.894,1.586-1.314.583-.439,1.173-.87,1.775-1.283,1.794-1.231,3.668-2.338,5.554-3.421l.079-.044c.919-.526,1.841-1.047,2.759-1.573l.193-.112a45.119,45.119,0,0,0,8.26-6.014,48.369,48.369,0,0,0,4.622-5.014,24.136,24.136,0,0,0,2.056-2.859c.59-1.005,1.111-2.045,1.6-3.1.9-1.967,1.708-3.977,2.484-6,.806-2.107,1.56-4.234,2.394-6.33a40.784,40.784,0,0,1,2.076-4.417,14.127,14.127,0,0,1,.789-1.264,16.917,16.917,0,0,1,1.158-1.329q.461-.444.964-.838c.256-.187.513-.368.782-.534.33-.172.665-.33,1.005-.48.336-.131.677-.248,1.023-.349.348-.08.7-.144,1.051-.2a14.105,14.105,0,0,1,1.459-.107c.46,0,.916.031,1.373.079a20.051,20.051,0,0,1,4.986,1.293c.5.213.975.452,1.448.712a29.684,29.684,0,0,1,2.856,1.884c1.375,1.058,2.719,2.155,4.066,3.249,1.367,1.11,2.735,2.224,4.192,3.213,1.026.694,2.088,1.326,3.176,1.919,1.062.577,2.2,1.024,3.312,1.493q3.358,1.413,6.8,2.629c1.08.384,2.172.731,3.272,1.056,1.12.332,2.244.653,3.384.9q1.594.353,3.207.616c.584.1,1.17.181,1.757.26.288.039.577.074.865.11.077.009.151.019.226.027.282.034.565.068.847.1q1.454.17,2.916.275c2.15.155,4.307.272,6.464.265h.174c.743-.006,1.49-.015,2.23-.08s1.469-.125,2.191-.252c.607-.1,1.215-.2,1.814-.34a5.506,5.506,0,0,0,.6-.156c.187-.068.373-.137.563-.194.272-.083.545-.165.819-.242.344-.091.688-.182,1.033-.266a.584.584,0,0,0-.081-1.156l-.223-.024-.08-.009c-.149-.019-.3-.036-.451-.055h-.017c-.455-.057-.91-.123-1.359-.218-.171-.037-.34-.082-.511-.116-.152-.029-.312-.038-.467-.055-.224-.027-.452-.044-.676-.064-.478-.041-.957-.082-1.436-.1-.5-.019-1-.027-1.5-.048-1.045-.044-2.094-.032-3.14-.043-.171,0-.341,0-.513-.008,1.947-.57,3.854-1.274,5.768-1.934.041-.015.084-.028.124-.041s.064-.024.1-.035l-.06.023a69.368,69.368,0,0,1,8.232-2.267l.268-.054c1.425-.27,2.855-.518,4.294-.7,1.418-.18,2.842-.324,4.267-.424a75.939,75.939,0,0,1,9.5.067,51.176,51.176,0,0,1,5.784.779,62.3,62.3,0,0,1,7.552,2.034l.012,0a49.1,49.1,0,0,1,4.979,2.052,50.522,50.522,0,0,1,5.08,2.923,32.192,32.192,0,0,1,2.867,2.15l0,0c.012.01.026.021.037.032.077.068.156.135.234.2.637.568,1.259,1.151,1.854,1.765.562.576,1.1,1.168,1.642,1.762.674.757,1.329,1.526,1.955,2.319s1.208,1.593,1.776,2.413c.563.841,1.119,1.687,1.632,2.56s.991,1.757,1.448,2.658c.687,1.389,1.322,2.8,1.89,4.24s1.087,2.889,1.592,4.347c.159.47.319.938.471,1.409,1.257,3.825,2.4,7.683,3.543,11.546.509,1.723,1.015,3.447,1.6,5.148.254.743.518,1.483.81,2.213a17.372,17.372,0,0,0,.741,1.6q.153.411.327.814c.22.51.45,1.02.7,1.518v0l.032.064c.149.293.3.586.467.87s.357.577.549.856c.16.235.326.47.5.693a5.073,5.073,0,0,0-.366.685,3.792,3.792,0,0,0-.265,1.961,4.143,4.143,0,0,0,.565,1.708,4.473,4.473,0,0,0,1.345,1.354,4.694,4.694,0,0,0,.713.409c.182.083.363.165.546.244.336.145.669.3,1.005.438l.167.072c.209.33.459.635.693.95a11.9,11.9,0,0,1,.7,1.128c.149.283.285.572.406.868s.2.593.293.889q.167.507.3,1.02a27.555,27.555,0,0,1,.562,3.162,17.591,17.591,0,0,1,.088,2.108,19.22,19.22,0,0,1-.2,2.4,26.611,26.611,0,0,1-.664,3.041c-.169.532-.353,1.06-.541,1.585-.194.541-.39,1.078-.621,1.6-.21.443-.439.876-.669,1.306-.243.449-.473.9-.72,1.349-.421.763-.829,1.537-1.286,2.28a.152.152,0,0,0-.017.026l-.1-.018c-.286-.068-.563-.154-.84-.25-.6-.245-1.188-.507-1.77-.794a17.137,17.137,0,0,1-1.608-.935c-.357-.252-.7-.525-1.029-.81a14.722,14.722,0,0,1-1.085-1.084v0a.188.188,0,0,1-.018-.021.037.037,0,0,1-.009-.009l0-.006-.008-.009c-.012-.013-.023-.027-.037-.04l0,0-.008-.009a18.463,18.463,0,0,1-1.319-1.659c-.256-.393-.491-.8-.712-1.213.453.107.911.185,1.371.259h.008a.146.146,0,0,0,.019,0l.066.01a14.706,14.706,0,0,0,2.2.158c.235,0,.471-.006.706-.015a19.685,19.685,0,0,0,2.333-.227,9.3,9.3,0,0,0,2.564-.738,8.272,8.272,0,0,0,1.128-.639,4.246,4.246,0,0,0,1.048-.946,2.747,2.747,0,0,0,.5-1.08,2.454,2.454,0,0,0-.047-1.161,2.568,2.568,0,0,0-1.261-1.47,11.315,11.315,0,0,0-1.554-.77c-.317-.126-.639-.236-.96-.35-.368-.129-.73-.274-1.093-.415-.571-.223-1.139-.448-1.7-.7l-.155-.071c-.057-.026-.113-.051-.169-.077-.629-.285-1.259-.563-1.888-.846l.024.012a.229.229,0,0,0-.027-.012l-.018-.009-.012-.006-.03-.014a32.829,32.829,0,0,1-3.439-1.867q-1.182-.752-2.316-1.572c-.241-.172-.478-.354-.72-.527-.082-.485-.165-.969-.245-1.454-.1-.588-.185-1.18-.3-1.766a10.833,10.833,0,0,0-.318-1.228,9.755,9.755,0,0,0-.375-1.027,6.373,6.373,0,0,0-.91-1.608.324.324,0,0,0-.567.279c.133.505.315,1,.42,1.508.055.3.1.6.145.9.051.355.073.713.111,1.069.149,1.4.256,2.814.41,4.218.091.819.187,1.635.306,2.45.061.411.117.82.183,1.228.073.458.171.911.263,1.365.164.812.33,1.624.528,2.428.059.244.122.487.189.729a.557.557,0,0,0,.076.568,1.434,1.434,0,0,0,.12.138q.127.446.265.889a21.314,21.314,0,0,0,2.107,4.841c.208.342.42.681.653,1.006.248.348.529.669.807.991a20.213,20.213,0,0,0,2.034,2.067,13.326,13.326,0,0,0,1.145.932c.345.234.7.451,1.062.661s.722.412,1.084.617c.239.135.48.271.73.387a5.807,5.807,0,0,0,.7.247,8.169,8.169,0,0,0,2.352.389c.088,0,.176,0,.263-.006.462-.021.931-.04,1.389-.1a8.871,8.871,0,0,0,1.425-.328,10.607,10.607,0,0,0,2.5-1.059,17.434,17.434,0,0,0,2.305-1.748l0,0a11.66,11.66,0,0,0,1.6-1.658,13.427,13.427,0,0,0,1.3-2.151,12.55,12.55,0,0,0,.861-2.224,15.126,15.126,0,0,0,.467-2.522c.044-.43.082-.859.12-1.291a14.178,14.178,0,0,0,.093-1.42,19.96,19.96,0,0,0-.141-2.5,18.207,18.207,0,0,0-.473-2.414,16.759,16.759,0,0,0-.815-2.3,16,16,0,0,0-1.315-2.456,11.446,11.446,0,0,0-4.252-3.784,15.877,15.877,0,0,0-2.694-1.1c-.754-.232-1.524-.415-2.271-.671.03.011.06.021.089.033l-.113-.04a.472.472,0,0,0-.055-.019l.042.013-.253-.089-.079-.027h0l-.034-.013.034.012h0l-.035-.013h0c-.036-.014-.073-.027-.107-.041l-.138-.086c-.066-.048-.129-.1-.191-.147-.086-.08-.168-.165-.247-.253-.042-.05-.082-.1-.119-.156s-.075-.125-.109-.189-.061-.141-.087-.212c-.04-.129-.075-.259-.1-.39-.012-.07-.021-.14-.028-.211-.006-.14-.006-.281,0-.42.008-.073.017-.144.027-.216s.034-.12.053-.18c.039-.1.08-.205.126-.306.019-.034.04-.068.061-.1.07-.1.143-.187.219-.278.344-.375.722-.724,1.092-1.072a12.889,12.889,0,0,0,1.877-2.025,21.357,21.357,0,0,1-.05,2.38c-.018.239-.046.476-.086.713a5.922,5.922,0,0,0-.149,1.142.32.32,0,0,0,.509.256,2.274,2.274,0,0,0,.624-.917c.092-.216.166-.437.239-.66a8.241,8.241,0,0,0,.326-1.436,19.718,19.718,0,0,0,.171-2.585c0-.505.008-1.009-.019-1.514-.03-.584-.08-1.165-.114-1.748v-.014a24.793,24.793,0,0,1-.009-2.92c.019-.207.049-.413.088-.617.025-.1.053-.2.084-.3.031-.079.066-.158.1-.234s.092-.163.144-.242.11-.149.169-.22c.044-.044.086-.089.133-.132l.04-.031.057-.033h0l.062-.009h.118c.03,0,.059.008.089.012l.008,0c.023.017.048.037.071.056.066.062.128.126.189.191a4.632,4.632,0,0,1,.3.39c.1.164.2.33.292.5a19.549,19.549,0,0,1,.847,2.15c.068.209.132.421.2.632.071.232.149.465.205.7.073.444.132.891.217,1.334.062.327.133.651.211.973q.08.567.18,1.129c.075.407.167.811.263,1.213.137.568.288,1.133.464,1.689.159.5.335.99.519,1.478,0,.012.008.022.013.032l.009.026v0c.22.579.477,1.141.739,1.7.257.545.514,1.091.8,1.622l0,0,0,0,0,.01v0l0,0,.008.013c.25.467.508.928.78,1.382.257.423.535.834.824,1.237.052.074.105.149.158.221l.008.012c.47.659.959,1.305,1.461,1.94s1.015,1.259,1.513,1.9c.561.716,1.146,1.415,1.711,2.127.544.683,1.071,1.374,1.583,2.08l.006.008.021.03a.015.015,0,0,0,.006.008c.457.65.912,1.3,1.337,1.971.438.691.846,1.4,1.235,2.12v0l0,.008.023.045,0,.007a.344.344,0,0,1,.016.031l.009.017,0,.006h0l0,.01v0c.076.144.15.287.222.432.114.312.223.628.331.941C305.495,249.064,305.762,249.885,305.987,250.717Zm-71.479,11.752q-.138-1.3-.294-2.6c-.045-.371-.092-.739-.137-1.109a11.074,11.074,0,0,1-.1-1.112,7.639,7.639,0,0,1,.044-.764c.015-.1.032-.2.057-.3.058-.186.132-.368.191-.553.066-.2.126-.409.2-.608.03-.067.062-.133.1-.2.073-.116.155-.227.238-.337s.194-.234.3-.345.24-.212.364-.311a11.916,11.916,0,0,1,1.015-.669c.319-.18.646-.346.964-.53l.559-.324c.019.083.037.167.053.25.169.828.346,1.653.512,2.483q.459,2.38.819,4.779c.132.877.269,1.754.4,2.632.052.356.1.711.158,1.067-.03.073-.062.145-.091.218a13.422,13.422,0,0,1-.666,1.322c-.327.545-.706,1.054-1.075,1.574-.44.62-.877,1.243-1.337,1.848-.288.368-.59.73-.889,1.093s-.6.73-.934,1.07c-.11.106-.223.208-.34.3-.107.077-.218.15-.332.22s-.212.113-.322.162c-.066.026-.131.049-.2.071l-.085.017-.057,0-.092-.006c-.008-.009-.014-.019-.022-.03,0-.06,0-.119.01-.179.032-.193.079-.384.128-.574.082-.283.194-.552.3-.826a7.718,7.718,0,0,0,.292-1.084c.073-.347.113-.7.18-1.045.082-.43.16-.855.2-1.291a16.381,16.381,0,0,0,.088-2.067C234.679,263.964,234.587,263.218,234.508,262.469Zm55.855-18.757a17.182,17.182,0,0,0-.309-2.541,16.377,16.377,0,0,0-.718-2.561c-.153-.4-.31-.8-.5-1.187-.1-.2-.207-.4-.321-.6.138.11.274.223.408.339.278.256.543.527.8.809.177.207.347.422.5.646a16.128,16.128,0,0,1,.867,1.518,16.772,16.772,0,0,1,.664,1.593c.006.017.012.031.016.048a15.829,15.829,0,0,1,.458,1.7,26.134,26.134,0,0,1,.389,3.033,16.638,16.638,0,0,1-.05,1.982,20.131,20.131,0,0,1-.266,2.188c-.086.364-.194.724-.312,1.079a9.817,9.817,0,0,1-.419.983c-.158.3-.326.584-.51.865a15.517,15.517,0,0,1-1.024,1.3,21.437,21.437,0,0,1-1.6,1.634,10.2,10.2,0,0,1-.839.645c-.219.141-.443.27-.674.391a11.2,11.2,0,0,1-1.049.433c-.066.021-.129.042-.195.061a13.339,13.339,0,0,0,1.226-1.652A27.344,27.344,0,0,0,288.661,253a19.271,19.271,0,0,0,1.136-3.55A21.093,21.093,0,0,0,290.363,243.712Zm-16.777,4.78h0l-.222-.1,0,0-.008,0h0c-.252-.116-.5-.233-.745-.366-.027-.073-.053-.145-.079-.217s-.04-.117-.059-.177a28.178,28.178,0,0,1-.9-3.5l-.026-.143c-.227-1.225-.4-2.457-.592-3.69a17.6,17.6,0,0,0,2.526,1.893,30.581,30.581,0,0,0,4.078,2.19c.625.278,1.27.507,1.905.764s1.293.521,1.931.8a16.965,16.965,0,0,1,1.826.937c.1.064.191.131.283.2.027.022.053.046.077.07s.045.053.066.082.031.051.048.075l-.089.122q-.05.054-.1.106c-.052.046-.107.089-.162.131-.08.055-.162.1-.247.153-.22.114-.444.22-.675.315a14.566,14.566,0,0,1-1.559.492,16.134,16.134,0,0,1-1.725.3,15.938,15.938,0,0,1-1.772.067c-.355-.013-.713-.042-1.068-.073-.331-.028-.663-.057-.991-.1-.346-.058-.693-.123-1.036-.2A4.533,4.533,0,0,0,273.586,248.492Zm39.027-16.455c-.022.115-.046.229-.076.342s-.079.23-.126.345q-.1.2-.209.394c-.067.1-.137.191-.209.285-.1.118-.208.232-.318.34-.294.261-.6.513-.914.747-.119.08-.241.155-.366.225-.552.282-1.132.5-1.694.758a13.316,13.316,0,0,0-2.107,1.2l-.017.012h0l-.012.009a.023.023,0,0,0-.012.009,10.885,10.885,0,0,0-1.215,1.023,8.8,8.8,0,0,0-1.017,1.228c-.15.214-.306.434-.447.663-.041-.053-.086-.107-.131-.159-.6-.711-1.205-1.424-1.838-2.11-.507-.548-1.012-1.1-1.558-1.613q-.981-.922-1.933-1.878c-.481-.486-.969-.968-1.424-1.479a14.955,14.955,0,0,1-1.125-1.423,10.468,10.468,0,0,1-.572-.982,14.509,14.509,0,0,1-.684-1.717,15.146,15.146,0,0,1-.427-1.512c-.048-.256-.086-.513-.11-.77-.021-.431-.039-.865-.03-1.3.008-.413.019-.825,0-1.238a18.073,18.073,0,0,0-.217-2.428q-.107-.593-.259-1.174c-.1-.4-.183-.8-.293-1.19a13.921,13.921,0,0,0-.74-2.13,9.212,9.212,0,0,0-.995-1.712,4.7,4.7,0,0,0-.716-.734,3.426,3.426,0,0,0-.646-.445,3.743,3.743,0,0,0-.876-.336,3.523,3.523,0,0,0-1.121-.046,2.885,2.885,0,0,0-1.894,1.089,6.468,6.468,0,0,0-.984,1.521,5.153,5.153,0,0,0-.418,1.94,10.558,10.558,0,0,0,.131,1.788c.079.579.23,1.143.345,1.716.074.376.156.752.23,1.13.028.153.055.306.079.459a.44.44,0,0,1-.017.048,3.383,3.383,0,0,1-.135.328c-.037.067-.075.134-.116.2-.075.1-.156.2-.241.3-.191.209-.391.41-.6.6l-.14.122c-.021.018-.04.036-.061.052a4.938,4.938,0,0,1-.438.348c-.142.092-.284.183-.43.273s-.309.189-.465.281q-.172-.3-.333-.615c-.234-.471-.453-.953-.669-1.433q-.341-.756-.679-1.514-.517-1.158-.986-2.336c-.319-.8-.644-1.593-.926-2.4l0-.015a.573.573,0,0,1-.019-.055h0q-.2-.607-.4-1.217c-.7-2.251-1.334-4.522-2.013-6.78-1.2-4-2.441-7.988-3.869-11.915a57.921,57.921,0,0,0-2.372-5.669c-.488-1-.989-1.987-1.539-2.951-.523-.914-1.082-1.8-1.661-2.685a45.182,45.182,0,0,0-3.775-4.991,47.791,47.791,0,0,0-4.443-4.567c-.017-.015-.033-.028-.049-.044l-.1-.088a32.17,32.17,0,0,0-3.239-2.47c-.846-.565-1.708-1.109-2.585-1.624q.374-.114.744-.254a17.9,17.9,0,0,0,2.883-1.481c1.067-.664,2.1-1.4,3.2-2q.665-.345,1.358-.623c.378-.138.757-.262,1.147-.363q.644-.147,1.3-.23a12.866,12.866,0,0,1,1.316-.057c.35.014.7.041,1.048.088.218.041.433.091.647.149.164.053.327.115.487.181.177.085.351.178.522.278s.333.231.495.357a21.93,21.93,0,0,1,1.727,1.711.384.384,0,0,1,.028.031l.024.026,0,.006a40.8,40.8,0,0,1,2.853,3.639c.261.373.52.746.773,1.127,1.057,1.592,2.062,3.22,3.055,4.855,1.024,1.686,2.017,3.388,2.954,5.125l.015.028c1.12,2.1,2.17,4.249,3.205,6.4.85,1.767,1.705,3.529,2.611,5.269q1.382,2.658,2.74,5.33a63.263,63.263,0,0,0,6.057,10.245,33.865,33.865,0,0,0,3.993,4.31c1.424,1.295,2.9,2.545,4.381,3.773l.017.013h0l.021.018c1.646,1.364,3.361,2.647,5.01,4.009a25.164,25.164,0,0,1,2.254,2.123c.321.357.623.724.907,1.11.225.332.434.668.627,1.019s.353.725.5,1.1c.082.236.156.474.222.715.062.269.114.536.15.81.021.247.03.495.028.742C312.641,231.782,312.629,231.909,312.613,232.037Z" transform="translate(-79.324 -153.928)"/>
          <path id="Path_14" data-name="Path 14" d="M155.006,396.366l.047-.014c.01,0,.02-.01.03-.013Z" transform="translate(-102.692 -228.776)"/>
          <path id="Path_15" data-name="Path 15" d="M290.916,280.035a3.886,3.886,0,0,0-2-.962c-.1-.037-.205-.07-.308-.1a7.566,7.566,0,0,0-2.466-.185,16.755,16.755,0,0,0-3.161.509,12.4,12.4,0,0,0-2.771,1.051,3.877,3.877,0,0,0-1.968,2.358,3.163,3.163,0,0,0,.015,1.6,2.966,2.966,0,0,0,1.026,1.588,5.829,5.829,0,0,0,3.1,1.127,11.827,11.827,0,0,0,1.27.066,13.029,13.029,0,0,0,2.306-.209,14.619,14.619,0,0,0,2.774-.749,6.384,6.384,0,0,0,2.052-1.212,3.573,3.573,0,0,0,.8-1.146,3.727,3.727,0,0,0,.33-1.071,2.777,2.777,0,0,0-.26-1.55A3.733,3.733,0,0,0,290.916,280.035Z" transform="translate(-140.714 -192.474)"/>
          <path id="Path_16" data-name="Path 16" d="M377.263,293.649c-.189-.579-.4-1.156-.646-1.717a4.62,4.62,0,0,0-.329-.633c-.065-.106-.141-.205-.207-.312a.16.16,0,0,0-.247-.044.168.168,0,0,0,.018.257c.006.01.01.021.017.033.023.058.04.117.058.177.138.492.318.97.462,1.461.117.415.233.83.33,1.249.125.535.209,1.085.292,1.629a31.043,31.043,0,0,1,.288,3.626c0,.195.008.388.012.581,0-.026,0-.052,0-.077a29.332,29.332,0,0,1-.137,3.407,34.6,34.6,0,0,1-.779,4.132h0c-.266,1.039-.568,2.067-.89,3.09s-.671,2.031-1.068,3.026a33.547,33.547,0,0,1-1.646,3.4c-.234.406-.476.807-.736,1.2-.287.433-.6.849-.91,1.265a21.214,21.214,0,0,1-1.644,1.86,32.638,32.638,0,0,1-2.531,2.233l-.118.092-.123.1a.229.229,0,0,1-.027.021.233.233,0,0,1-.027.021,35.718,35.718,0,0,1-3.071,2.108c-.018.012-.036.023-.054.032l-.135.081a30.189,30.189,0,0,1-3.077,1.539,28.111,28.111,0,0,1-3.011,1.085,35.886,35.886,0,0,1-3.771.807c-1.209.176-2.423.317-3.641.411s-2.427.176-3.643.205h-.014a29.066,29.066,0,0,1-3.338-.14H342.9a24.283,24.283,0,0,1-2.9-.521,23.673,23.673,0,0,1-2.854-.973c-1.7-.685-3.373-1.451-5.016-2.269a.377.377,0,0,0-.412.625,12.073,12.073,0,0,0,2.779,1.965,22.837,22.837,0,0,0,2.655,1.2c.715.267,1.434.523,2.164.749.642.2,1.283.415,1.931.593a20.93,20.93,0,0,0,2.133.455c.685.113,1.372.216,2.061.294h.01l.039,0h.012l.028,0,.025,0h.017l.046.006h.022l.026,0h.024c.761.086,1.523.156,2.289.195q.589.029,1.179.03a30.961,30.961,0,0,0,3.424-.205c.8-.087,1.589-.189,2.382-.313.73-.115,1.458-.243,2.175-.429a29.75,29.75,0,0,0,4.28-1.44c.751-.321,1.5-.646,2.223-1.03a20.458,20.458,0,0,0,2.072-1.259c.66-.46,1.3-.947,1.925-1.456.588-.478,1.17-.966,1.723-1.485a29.062,29.062,0,0,0,3.149-3.366c.006-.007.01-.015.017-.022a24.246,24.246,0,0,0,1.723-2.643,32.378,32.378,0,0,0,1.58-3.22,37.648,37.648,0,0,0,1.548-4.266,29.648,29.648,0,0,0,1.009-4.48,33.033,33.033,0,0,0-.118-8.793A24.312,24.312,0,0,0,377.263,293.649Z" transform="translate(-157.214 -196.221)"/>
          <path id="Path_17" data-name="Path 17" d="M358.372,269.455a3.766,3.766,0,0,0,1.108.168,4.147,4.147,0,0,0,1.25-.2,13.406,13.406,0,0,0,1.793-.745c.205-.092.421-.158.625-.248a7.791,7.791,0,0,0,.756-.377,5.817,5.817,0,0,0,.891-.638,2.312,2.312,0,0,0,.795-1.664,1.952,1.952,0,0,0-1.009-1.672,2.663,2.663,0,0,0-1.1-.347,4.763,4.763,0,0,0-1.57.129,6.206,6.206,0,0,0-.939.319,7.021,7.021,0,0,0-1.664.59,6.208,6.208,0,0,0-1.228.861,4.538,4.538,0,0,0-.471.479,2.737,2.737,0,0,0-.534.813,1.953,1.953,0,0,0,.217,1.8A2.154,2.154,0,0,0,358.372,269.455Z" transform="translate(-165.043 -187.827)"/>
        </g>
      </g>
    </g>
  </g>
</svg>
