<svg xmlns="http://www.w3.org/2000/svg" width="352.57" height="447.677" viewBox="0 0 352.57 447.677">
  <g id="Group_16779" data-name="Group 16779" transform="translate(-19.031 -605.243)">
    <g id="Group_2" data-name="Group 2" transform="translate(19.031 716.862)">
      <path id="Path_1" data-name="Path 1" d="M267.466,143.973q-21.383-4.6-43.09-7.457c-14.63-1.926-30.115-1.4-44.551-4-21.748-3.928-44.789-7.073-66.721-1.679-22.113,5.438-41.823,18.45-52.553,38.935-6.882,13.139-9.173,28.176-10.309,42.965a216.766,216.766,0,0,0,.224,37.151c1.163,12.29.915,24.648,4.5,36.6s11.387,23.38,23.071,27.718c11.652,4.327,26.936-6.937,21.945-20.077-2.276-5.992-9.686-9.677-15.651-7.333-3.461,1.361-5.607,7.093-2.088,8.294,2.812.96,5.984-2.569,8.564-1.095a4.052,4.052,0,0,1,1.689,3.354c.381,5.775-5.445,10.707-11.23,10.6s-10.937-4.227-13.7-9.312-3.509-11.011-3.762-16.792a113.677,113.677,0,0,1,8.965-49.363,24.358,24.358,0,0,1-15.815,3.817c1.051-5.619,6.161-9.545,11.3-12.049s10.8-4.236,15.064-8.046c6.994-6.253,8.538-16.433,9.651-25.747,1.236,3.019.606,6.456,1.139,9.674s3.292,6.675,6.431,5.789c1.82-.514,2.951-2.285,3.863-3.942a99.989,99.989,0,0,0,8.17-19.488c-1.709,6.575-3.269,14.118.584,19.713,3.686,5.351,10.562,6.829,15.909,9.89,6.5,3.718,8.954,7.685,12.1,14.43,8.228,17.66,12.662,36.679,20.1,54.39,7.915,18.859,7.42,43.232,2.516,62.706a179.684,179.684,0,0,0,35.362-1.113c2.36-.309,4.993-.833,6.32-2.808a8.694,8.694,0,0,0,1.01-4.761q.634-34.4,1.268-68.806c-.039,2.144,17.654,6.441,19.807,6.949a103.555,103.555,0,0,0,22.657,2.737c12.267.126,29.141-.4,39.661-7.152q1.949,30.28,3.9,60.559a8.44,8.44,0,0,0,.532,2.9c1.045,2.362,4.013,3.252,6.587,3.051s5.033-1.2,7.605-1.436a1.868,1.868,0,0,1,1.5.33,2.435,2.435,0,0,1,.419,1.678c.172,3.382,3.411,5.963,6.745,6.559s6.732-.319,10-1.225c2.864-.8,5.994-1.783,7.552-4.315a10.877,10.877,0,0,0,1.266-4.494c1.8-15.362-2.508-30.693-6.279-45.693-2.558-10.169-3.673-20.341-5.463-30.608-1.557-8.936,2.047-18.237,5.595-26.459.73-1.691,1.808-3.59,3.637-3.8,1.986-.23,3.5,1.658,4.6,3.332l4.09,6.264a26.227,26.227,0,0,0,1.464-20.969c-2.021-5.862-2.537-11.811-4.395-17.813a67.216,67.216,0,0,0-22.362-32.848C302.785,152.622,284.946,147.732,267.466,143.973Z" transform="translate(-45.77 -122.505)" fill="#fff"/>
      <path id="Path_2" data-name="Path 2" d="M395.837,256.993A54.869,54.869,0,0,0,383.314,270.4c-3.348,4.857-8.2,9.046-14.478,7.4-5.8-1.525-10.46-6.465-13.682-11.3a51.2,51.2,0,0,1-6.815-16.093,72.426,72.426,0,0,1-2.129-19.4c.09-3.606.3-7.215.1-10.82a79.1,79.1,0,0,0-1.293-10.005,103.71,103.71,0,0,0-40.227-63.536.97.97,0,0,0-.562-.2c-8.2-5.723-17.872-8.476-27.685-9.909-10.735-1.567-21.662-2.21-32.483-2.881-12.172-.754-24.364-1.3-36.5-2.555-12.269-1.273-24.419-3.424-36.558-5.58-21.571-3.832-43.861-7.275-64.906.819a102.413,102.413,0,0,0-25.579,14.311,100.468,100.468,0,0,0-10.974,9.75,62.064,62.064,0,0,0-8.832,10.826c-4.765,7.906-6.86,17.24-8.6,26.2C50.1,197.794,48.2,208.2,47,218.693a281.424,281.424,0,0,0-1.973,35.715c.146,11.149,1.349,22.5,5.263,33.009,3.232,8.68,8.258,16.856,15.253,23.007,6.879,6.05,16.048,11.02,25.02,6.408,8.151-4.19,12.456-14.539,8.927-23.162-3.116-7.616-12.846-12.123-20.343-7.883a9.844,9.844,0,0,0-4.927,10.082c.536,3.648,3.643,7.883,7.783,7.269a4.579,4.579,0,0,0,3.819-3.24c.255-1.028-.2-2.912,1.378-2.861,1.544.048,2.032,2.059,1.912,3.292-.24,2.46-2.392,4.383-4.672,5.039a7.971,7.971,0,0,1-6.794-1.532c-4.555-3.318-5.663-9.259-6.16-14.514a153.123,153.123,0,0,1-.638-16.95,146.973,146.973,0,0,1,4.518-34.031c.858-3.347,1.859-6.653,2.966-9.924.348-.2.7-.379,1.05-.581,3.718-2.168,7.516-4.484,10.305-7.822a25.4,25.4,0,0,0,4.906-9.379,29.87,29.87,0,0,0,1.063-6.422c.814,2.689,1.8,5.864,4.644,6.957,2.624,1.009,4.99-.74,6.438-2.82,2.164-3.109,2.972-6.9,4.311-10.387a41.1,41.1,0,0,0,2.087,5.856,33.1,33.1,0,0,0,5.882,9c2.315,2.5,5.215,4.929,8.758,5.186a11.525,11.525,0,0,0,2.174-.061,102.465,102.465,0,0,0,8.2,20.227c4.053,7.7,8.636,15.234,11.773,23.375a62.5,62.5,0,0,1,3.133,13.164q1.047,6.846,2.027,13.7c1.3,9.032,2.927,18.145,3.181,27.283a50.02,50.02,0,0,1-1.168,13.1c-.814,3.381-2.546,6.586-2.654,10.114-.153,4.975,3.6,7.714,8.082,8.691a43.222,43.222,0,0,0,16.984.146c4.918-.985,9.151-3.826,10.36-8.926.008-.038.012-.077.021-.115a8.542,8.542,0,0,0,1.739,3.982c2.518,2.919,7.89,2.073,11.279,1.838,3.816-.265,8.371-.554,11.892-2.16,3.838-1.752,3.115-5.734,2.852-9.236-.346-4.608-.716-9.215-1.078-13.822q-1.113-14.167-2.225-28.334a41.135,41.135,0,0,1-.269-5.775c.121-1.943.484-3.862.76-5.786a32.665,32.665,0,0,0,.448-5.485,106.149,106.149,0,0,0,15.1,4.374,79.189,79.189,0,0,0,22.537,1.282c7.477-.566,15.223-1.068,22.44-3.2,3.13-.923,6.248-1.883,9.373-2.82a18.473,18.473,0,0,0-.79,6.392c.061,4.235.437,8.455.626,12.685.205,4.577.336,9.158.521,13.736.291,7.224.929,14.383.176,21.584-.4,3.816-1.286,10.7,3.7,11.966,4.164,1.056,9.674-.11,13.512-1.821a9.816,9.816,0,0,0,1.363-.729c.03.381.062.762.113,1.141a6.974,6.974,0,0,0,1.639,4.134c1.515,1.492,4.159,1.976,6.158,2.391a32.133,32.133,0,0,0,15.216-.586c3.562-.995,7.891-1.93,10.061-5.22,3.547-5.375,1.573-13.015.961-18.926-.411-3.958-.6-7.927-1.2-11.866-.581-3.808-1.516-7.552-2.421-11.293-2.567-10.608-5.691-21.231-6.265-32.189a77.437,77.437,0,0,1,5.2-31.47c.662-1.7,1.413-3.37,2.224-5.005,2.338,7.082,2.994,14.571,4.821,21.8,1.9,7.516,4.351,15.282,9.151,21.487,8.16,10.548,25,18.694,36.726,8.906,6.693-5.584,9.162-14.3,11.331-22.383C397.782,257.407,396.687,256.363,395.837,256.993Zm-281.9-91.1c.449-1.99.935-3.972,1.435-5.95a40.308,40.308,0,0,1,1.546-5.616c.753-1.813,2.607-3.021,4-.962,1.3,1.924.31,4.659-.181,6.708q-2.948,12.314-6.9,24.362-.982,2.988-2.064,5.938C110.958,182.236,112.16,173.733,113.932,165.893ZM299.758,336.614a27.542,27.542,0,0,1-6.544,1.2c-1.422.086-3.724.353-4.816-.809-1.428-1.519-1.125-4.45-1.008-6.345.151-2.461.553-4.9.693-7.362.2-3.43-.211-6.947-.359-10.375-.376-8.766-.615-17.537-1.136-26.3-.126-2.109-.24-4.221-.278-6.335a16.582,16.582,0,0,1,.443-5.519,9.782,9.782,0,0,1,1-2.123,12.928,12.928,0,0,0,5.933-3.457c.85,2.785,1.536,5.623,2.118,8.46a239.038,239.038,0,0,1,3.21,23.688c.844,8.244,1.995,16.348,3.533,24.494a49.687,49.687,0,0,1,1.117,7.119c.007.146.008.292.013.438C303.477,335.447,301.592,336.039,299.758,336.614Zm86.736-59.386c-5.144,5.453-12.155,6.673-19.189,4.446a33.24,33.24,0,0,1-16.146-11.5c-4.4-5.773-6.595-12.941-8.421-19.872-2.188-8.3-2.7-16.982-5.918-25.011a1.18,1.18,0,0,0-2.125-.277c-4.7,8.686-7.155,18.137-8.444,27.881-1.382,10.453.114,20.8,2.47,30.995,1.962,8.5,4.607,16.932,5.868,25.575.567,3.886.7,7.812,1.155,11.709a86.8,86.8,0,0,1,.88,9.533c.016,2.869-.26,6.365-2.539,8.421-1.5,1.352-3.735,1.827-5.6,2.431a34.316,34.316,0,0,1-8.342,1.758,28.952,28.952,0,0,1-7.159-.4c-2.08-.386-5.553-.751-6.363-3.022a16.824,16.824,0,0,1-.726-5.28,4.848,4.848,0,0,0,.114-.529,22.182,22.182,0,0,0-.374-5.483q-.337-2.946-.655-5.9c-1.544-14.319-2.654-28.779-5.115-42.976-1.466-8.461-3.73-16.843-7.7-24.5-3.653-7.047-8.638-15.526-17.047-17.269a1.192,1.192,0,0,0-1.487,1.133c-.121,4.372,4.259,6.421,7.149,8.84a35.194,35.194,0,0,1,7.089,8.164,50.233,50.233,0,0,1,4.788,9.989,12.3,12.3,0,0,0-6.382,4.545c-.1.028-.2.06-.3.087-3.168.882-6.293,1.853-9.43,2.835-6.472,2.026-13.053,2.684-19.777,3.334-6.69.646-13.543,1.113-20.226.144a101.117,101.117,0,0,1-19.419-4.924c-.722-.258-1.438-.53-2.154-.8a10.148,10.148,0,0,0-.38-1.289c-1.2-3.183-4.179-5.25-6.988-6.926-3.288-1.961-6.634-3.918-10.514-4.292a1.145,1.145,0,0,0-1.018.584c-1.443,2.9.482,5.405,2.934,6.907a85.025,85.025,0,0,0,9.927,5.064c1.292.572,2.6,1.112,3.909,1.635a9.638,9.638,0,0,1,.1,1.019c.084,3.1-.629,6.157-1.009,9.216-.466,3.741.052,7.47.347,11.208q1,12.612,1.992,25.224c.336,4.262.661,8.524,1.016,12.785a28.066,28.066,0,0,1,.324,5.533c-.271,2.214-2.46,2.663-4.293,3.08a56.927,56.927,0,0,1-12.811,1.4c-1.946-.007-4.357.205-5.535-1.669-.945-1.5-1.011-3.508-1.2-5.216-.913-8.46-1.589-16.948-1.966-25.45a331.209,331.209,0,0,1,.34-36.066c.547-5.72,1.3-11.421,2.3-17.084a77.538,77.538,0,0,1,3.029-11.73,58.905,58.905,0,0,0,3.208-11.655c.251-2,.854-7.2-2.55-6.9-3.368.294-3.428,5.537-3.722,7.851-1.591,12.491-3.218,24.936-4.2,37.451q-1.076,10.349-1.318,20.762c-.212,8.5-.067,17,.306,25.487q.271,6.2.69,12.383c.213,3.2.64,6.574-.759,9.584-2.071,4.458-7.283,5.618-11.745,5.927-4.777.331-10.637.53-15.106-1.461-5.58-2.485-3.325-8.117-1.883-12.593,2.354-7.312,2.313-15.149,1.593-22.72-.761-8-2.044-15.965-3.2-23.915-1.154-7.93-1.788-16.293-4.585-23.855-5.4-14.582-15.3-27.064-19.646-42.094-.186-.644-.36-1.292-.536-1.939a37.186,37.186,0,0,0,6.535-2.59,53.119,53.119,0,0,0,9.752-6.106,69.733,69.733,0,0,0,8.287-7.66c2.593-2.8,4.857-5.875,7.437-8.685,4.686-5.1,10.014-9.712,13.723-15.63a31.343,31.343,0,0,0,4.355-21.4c-1.187-7.631-5.483-14.021-11.4-18.845a68.892,68.892,0,0,0-8.966-6.068c-3.286-1.912-6.716-4.115-10.356-5.27-12.328-3.915-17.446,12.116-22.123,20.091A41.177,41.177,0,0,0,124.952,154a40.43,40.43,0,0,0-1.635,10.755c-.237,7.685.848,15.428,1.625,23.06A208.638,208.638,0,0,0,129,214.288c.126.539.271,1.069.407,1.6a8.257,8.257,0,0,1-2.5-.146c-3.516-.8-6.407-4.124-8.448-6.917a35.281,35.281,0,0,1-6.071-14.258c1.239-3.163,2.426-6.337,3.49-9.573,2.891-8.788,5.766-17.85,7.49-26.952.559-2.952.163-6.912-3.322-7.826-3.129-.82-4.853,2.248-5.587,4.767-2.51,8.613-4.567,17.7-5.036,26.677a53.494,53.494,0,0,0,.8,12.737c-.238.6-.472,1.192-.72,1.784-1.355,3.252-2.1,6.793-3.833,9.88-.709,1.264-1.734,2.9-3.273,3.237-1.61.353-2.817-1.043-3.494-2.322-1.563-2.953-2.171-6.645-3.118-9.836-.512-1.724-1.057-3.44-1.671-5.132-.3-.975-.645-1.936-1.031-2.876a33.292,33.292,0,0,0-5.5-9.089c-2.306-2.688-6.4-6.479-10.234-4.379-3.623,1.986-3.035,7.238.068,9.38a7.163,7.163,0,0,0,9.613-1.89,19.04,19.04,0,0,1,2.581,3.892,37.339,37.339,0,0,1,2.4,5.329c.263.828.506,1.66.705,2.5a29.934,29.934,0,0,1-.666,16.8c-2.224,6.285-6.831,10.161-12.379,13.53-.088.053-.179.1-.268.156.354-.97.706-1.941,1.081-2.9a1.069,1.069,0,0,0-.485-1.19c-3.723-2.693-8.247.235-11.5,2.288L53.861,232.8a1.071,1.071,0,0,0-.214,1.657c3,3.325,8.064,1.3,11.557.024A88.7,88.7,0,0,0,75.621,229.9,150.029,150.029,0,0,0,69.1,285.864c.571,8.215,2.206,20.648,12.594,21.8a8.891,8.891,0,0,0,9-5.137c1.234-2.946.06-8.124-4.031-7.552a3.15,3.15,0,0,0-2.786,2.843c-.157,1.369-.15,2.6-1.7,3.114a4.047,4.047,0,0,1-4-1.382c-3.484-3.578-2.119-9.6,2.026-11.946,3.971-2.245,8.95-1.482,12.615,1.013A13.811,13.811,0,0,1,98.6,300.773c-.4,10.1-10.379,18.437-20.355,15.081-8.956-3.014-16.28-10.924-21.031-18.815-11.3-18.774-10.821-41.927-9.473-63.059a285.846,285.846,0,0,1,4.341-34.9c1.647-8.711,2.979-17.528,5.707-25.988a48.935,48.935,0,0,1,5.519-12.051,69.545,69.545,0,0,1,9.517-10.966,99.582,99.582,0,0,1,23.52-17.048,80.176,80.176,0,0,1,29.39-9.251c10.873-1.047,21.835.052,32.59,1.7,11.216,1.722,22.347,3.952,33.568,5.646,11.593,1.75,23.241,2.807,34.94,3.527,11.462.705,22.919,1.338,34.366,2.257,9.9.8,19.955,1.623,29.429,4.823a50.251,50.251,0,0,1,12.7,6.373,1.139,1.139,0,0,0,.359.43,100.99,100.99,0,0,1,39.363,63.2,67.1,67.1,0,0,1,1.1,10.8c.044,3.732-.23,7.459-.239,11.19a71.4,71.4,0,0,0,2.585,18.62c2.862,10.583,9.105,22.773,19.909,27.057,6.1,2.418,11.932.338,16.2-4.379,2.228-2.463,3.845-5.379,5.936-7.947a47.016,47.016,0,0,1,5.829-5.964C392.732,266.937,390.692,272.776,386.493,277.227Zm-99.548-26.385c-.587-.712-1.2-1.4-1.836-2.07a35.379,35.379,0,0,0-4.449-3.9c-1.52-1.128-3.559-2.332-4.348-4.118C281.026,242.451,284.294,246.557,286.946,250.842Zm-89.052,10.444c3.5.59,6.816,2.71,9.736,4.592a12.16,12.16,0,0,1,4.263,4.2q-2.77-1.164-5.472-2.488-2.394-1.175-4.726-2.475C200.384,264.384,197.7,263.119,197.894,261.286Zm-4.724-15.944c.468-3.6.943-7.207,1.4-10.81.093-.731.221-5.379,1.414-5.463,1.353-.095.521,4.7.409,5.349a71.441,71.441,0,0,1-3.191,10.815C193.192,245.268,193.182,245.305,193.17,245.342ZM131.5,215.532c-3.478-13.719-4.746-28.1-5.8-42.158-.507-6.777-.607-13.876,1.828-20.329,1.006-2.665,2.656-4.893,4.03-7.357,1.237-2.218,2.325-4.514,3.5-6.764,2.173-4.156,4.785-9.19,9.245-11.276,3.156-1.477,6.4-.582,9.385.917,3.033,1.526,6.015,3.216,8.911,4.986,5.935,3.627,11.647,8.088,14.889,14.392a28.487,28.487,0,0,1,1.283,22c-2.13,6.175-6.552,11.064-11.032,15.659-2.227,2.284-4.492,4.537-6.586,6.946-2.174,2.5-4.169,5.135-6.441,7.555A58.853,58.853,0,0,1,138,212.882,34.5,34.5,0,0,1,131.5,215.532Zm-45.827-34.44a.9.9,0,0,0-.039.092c-1.1,3.771-7.654,3.83-8.607-.111a3.035,3.035,0,0,1,2.118-3.821c2.082-.377,4.154,1.387,5.5,2.733C85,180.34,85.338,180.718,85.673,181.092Zm-9.079,45.9a83.967,83.967,0,0,1-9.6,4.555c-2.61,1.039-7.7,3.681-10.74,2.236l11.011-6.951c2.752-1.738,7.379-5.719,10.9-4.172Q77.339,224.815,76.594,226.993Z" transform="translate(-45.005 -121.403)" fill="#0a0a0a"/>
    </g>
    <g id="Group_7" data-name="Group 7" transform="translate(152.658 966.887)">
      <path id="Path_5" data-name="Path 5" d="M1274.52,749.492s43.559.136,85.885,0,83.423-.547,83.423-.547,12.093.346,12.093,13.036.809,17.383,0,29.722,11.458,22.379-29.689,20.953-71.481-4.726-120.895-1.978c-25.943,1.443-35.47.927-38.971-2.288-2.892-2.649-.669-7.763-4.745-11.25-8.582-7.341-9.85-4.463-10.9-8.39s12.386-4.521,13.976-9.259-.211-17.922,1.8-24.075A8.381,8.381,0,0,1,1274.52,749.492Z" transform="translate(-1242.311 -747.348)" fill="#fff"/>
      <text id="Anything_that_is_measured_and_watched_improves" data-name="Anything that is measured
and watched, improves" transform="translate(34.122 28.076)" fill="#0a0a0a" font-size="12" font-family="Avenir-BlackOblique, Avenir" font-weight="800" font-style="oblique"><tspan x="0" y="0">Anything that is measured</tspan><tspan x="0" y="16">and watched, improves</tspan></text>
      <text id="Bob_Parsons_GoDaddy_founder" data-name="Bob Parsons, GoDaddy founder" transform="translate(41.391 81.017)" fill="#505050" font-size="10" font-family="Avenir-Medium, Avenir" font-weight="500"><tspan x="0" y="0">Bob Parsons, GoDaddy founder</tspan></text>
      <g id="Group_16767" data-name="Group 16767" transform="translate(0 -4)">
        <g id="Group_16767-2" data-name="Group 16767" transform="translate(0 0)">
          <path id="Path_12667" data-name="Path 12667" d="M-663.066,289.468c1.019,4.3-.2,8.682,3.477,12.047,2.65,2.429,6.52,3.172,10.05,3.56,4.776.524,9.567.058,14.346-.11,8.679-.3,17.421.043,26.1.169,16.679.24,110.583.484,127.229,1.544,9.532.608,18.711-.626,20.013-11.322.8-6.6-.875-13.976-1.07-20.64-.23-7.839.531-15.676.288-23.49-.289-9.307-4.309-16.53-14.9-16.963-6.874-.283-13.968.684-20.859.776-9.043.123-95.242.154-104.285.1-8.6-.056-17.277.043-25.868-.457-6.912-.4-13.955-1.805-20.879-.8-4.739.691-9.207,2.634-11.908,6.571-1.855,2.7-.95,4.2-.651,7.165a105.922,105.922,0,0,1,0,13.022c-.1,4.178.967,6.389-3.036,8.313-4.4,2.114-13.909,4.97-15.507,9.738a1.205,1.205,0,0,0,.6,1.385c5.574,2.6,13,4.454,16.289,9.855.8,1.319,2.916.146,2.158-1.189-3.074-5.4-8.916-6.436-14.075-9.418-1.979-1.143-2.026.235-1.284-1.185.7-1.332,4.292-2.5,5.779-3.3,3.5-1.889,7.056-3.772,10.739-5.331a1.2,1.2,0,0,0,.644-1.058c.243-5.2.389-10.411.364-15.621-.015-3.241-.97-7.351.153-10.261,3.732-9.661,20.256-6.243,28.479-5.605,22.841,1.768,124.2,1.525,147.044-.061,6.073-.421,12.826-.817,16.385,4.913,3,4.823,2.133,11.436,1.853,16.777-.578,11.039.748,21.881,1.073,32.864.48,16.241-15.176,12.876-26.846,12.46-12.116-.432-101.393-.709-113.515-.862-11.461-.144-22.954-.346-34.4.292-4.462.25-9.166.567-13.555-.414-2.894-.648-5.957-1.883-7.505-4.481-1.523-2.554-1.016-6.367-1.914-9.24A.521.521,0,0,0-663.066,289.468Z" transform="translate(680.576 -233.524)" fill="#231f20"/>
        </g>
        <path id="Path_12668" data-name="Path 12668" d="M-671.4,265.786l2.838,2.375c.242.2.591-.147.347-.347q-1.43-1.179-2.86-2.353c-.227-.187-.554.135-.325.325Z" transform="translate(683.87 -219.286)" fill="#231f20"/>
        <path id="Path_12669" data-name="Path 12669" d="M-670.46,265.8l2.886,1.743a.292.292,0,0,0,.3-.5l-2.913-1.7a.267.267,0,0,0-.268.46Z" transform="translate(684.191 -219.355)" fill="#231f20"/>
        <path id="Path_12670" data-name="Path 12670" d="M-544.014,247.843a208.128,208.128,0,0,0-.768,21.4.323.323,0,0,0,.645,0c-.128-7.15.147-14.257.492-21.4.011-.24-.346-.233-.369,0Z" transform="translate(753.795 -226.725)" fill="#231f20"/>
        <path id="Path_12671" data-name="Path 12671" d="M-542.767,245.73c-.818,10.388-.956,20.816-.8,31.23a.44.44,0,0,0,.88,0c-.241-10.422.012-20.815.376-31.23.011-.3-.437-.291-.46,0Z" transform="translate(754.219 -227.38)" fill="#231f20"/>
        <path id="Path_12672" data-name="Path 12672" d="M-556.357,240.488a11.226,11.226,0,0,1,5.093-.274c.443.078.624-.606.185-.671a10.694,10.694,0,0,0-5.383.56c-.237.089-.146.458.1.385Z" transform="translate(749.523 -231.391)" fill="#231f20"/>
        <path id="Path_12673" data-name="Path 12673" d="M-554.659,239.656l3.47.026a.3.3,0,0,0,0-.6l-3.47.025a.277.277,0,0,0,0,.553Z" transform="translate(750.128 -231.514)" fill="#231f20"/>
      </g>
    </g>
    <g id="Group_8" data-name="Group 8" transform="translate(94 622.243)">
      <path id="Path_5-2" data-name="Path 5" d="M1285.453,742.646l175.045-.755s15.416-.68,15.416,12.239-1.117,30.449-1.945,43.01-14.276,10.472-14.276,10.472-104.215-4.256-108.967-1.686-.361,12.574-2.922,10.914-6.347-7.4-8.9-8.623-7.294-2.549-23.38-1.66c-17.973.993-31.433-.48-35.643-2.019s-3.387-10.141-3.538-21.7-1.8-26.119,2.789-34.161C1281.19,742.411,1285.453,742.646,1285.453,742.646Z" transform="translate(-1273.913 -739.444)" fill="#fff"/>
      <text id="As_long_as_you_re_going_to_be_thinking_anyway_think_big" data-name="As long as you’re going to 
be thinking anyway, think big" transform="translate(15.43 30.66)" fill="#0a0a0a" font-size="12" font-family="Avenir-BlackOblique, Avenir" font-weight="800" font-style="oblique"><tspan x="0" y="0">As long as you’re going to </tspan><tspan x="0" y="16">be thinking anyway, think big</tspan></text>
      <text id="Jude_Onicha_CEO_Usecheckin" data-name="Jude Onicha, CEO Usecheckin" transform="translate(40.088 -7)" fill="#505050" font-size="10" font-family="Avenir-Medium, Avenir" font-weight="500"><tspan x="0" y="0">Jude Onicha, CEO Usecheckin</tspan></text>
      <g id="Group_16768" data-name="Group 16768" transform="translate(0 -1.05)">
        <path id="Path_12674" data-name="Path 12674" d="M-680.24,301.279c-1.419,15.947-.594,32.2.47,48.151.083,1.231,2.044,1.237,1.955,0-1.148-16.054-.991-32.084-1.548-48.151a.439.439,0,0,0-.877,0Z" transform="translate(680.996 -290.083)" fill="#231f20"/>
        <path id="Path_12675" data-name="Path 12675" d="M-480.286,351.2c1.064-15.946,1.889-32.2.469-48.151a.452.452,0,0,0-.73-.319c-1.9-12.618-19.659-10.732-29.147-10.578-22.166.361-132.86-.016-155.027-.279a.958.958,0,0,0-.106-.02l-.927.008a1,1,0,0,0-.3.061c-6.753.556-13.138,4.289-14.614,11.217-.292,1.369,1.851,1.95,2.131.578,1.317-6.424,7.387-9.6,13.615-9.832,17.963.08,35.941.384,53.9.138,8.181-.112,104.941-.595,113.12-.406,7.254.168,14.94,1.827,17.2,9.509-.554,16.041-.4,32.046-1.546,48.074a.829.829,0,0,0,.011.084,1.044,1.044,0,0,0-.25.607c-.48,7.041-6.5,9.357-12.708,9.467-6.469-.026-101.474-.054-107.945-.083a.935.935,0,0,0,0,1.87c6.4.072,101.337.146,107.738.221.037,0,.062.019.1.019l.927-.007a1.1,1.1,0,0,0,.134-.028c7.223-.337,13.372-3.711,13.963-11.461a1.01,1.01,0,0,0-.074-.479A1,1,0,0,0-480.286,351.2Z" transform="translate(681.061 -291.853)" fill="#231f20"/>
        <path id="Path_12676" data-name="Path 12676" d="M-679.855,341.979c.864,8.013,8.127,10.614,15.481,11.229,14.641,1.224,29.745-.282,44.453-.025a.936.936,0,0,0,0-1.871c-11.784.02-23.556.191-35.338.4-8.908.16-21.658,1.015-24.453-9.753-.019-.077-.152-.063-.143.019Z" transform="translate(681.241 -282.02)" fill="#231f20"/>
        <path id="Path_12677" data-name="Path 12677" d="M-630.569,350.87a98.681,98.681,0,0,0,15.041,13.93c.7.544,2.16-.169,1.446-.713-5.661-4.319-10.206-9.2-15.62-13.645-.413-.34-1.19.048-.866.428Z" transform="translate(691.826 -280.37)" fill="#231f20"/>
        <path id="Path_12678" data-name="Path 12678" d="M-616.477,365.023c1.381-4.567.538-9.575.753-14.216.048-1.021-2.349-1.023-2.369,0-.09,4.622-.511,9.672.9,14.216.073.236.64.237.712,0Z" transform="translate(694.499 -280.423)" fill="#231f20"/>
        <path id="Path_12679" data-name="Path 12679" d="M-523.132,347.573c.7-.493,1.379-1,2.06-1.512a.347.347,0,1,0-.426-.544c-.662.537-1.32,1.077-1.965,1.633-.232.2.078.6.332.424Z" transform="translate(714.863 -281.33)" fill="#231f20"/>
        <path id="Path_12680" data-name="Path 12680" d="M-523.569,346.583c.539-.483,1.064-.983,1.589-1.482.318-.3-.177-.79-.484-.477-.508.518-1.015,1.034-1.507,1.566a.281.281,0,0,0,.4.394Z" transform="translate(714.755 -281.507)" fill="#231f20"/>
        <path id="Path_12681" data-name="Path 12681" d="M-519.9,308.309c-.377,9.824-.783,19.647-1.151,29.469-.012.336.519.336.53,0,.323-9.822.609-19.647.922-29.469.006-.191-.294-.19-.3,0Z" transform="translate(715.401 -288.649)" fill="#231f20"/>
        <path id="Path_12682" data-name="Path 12682" d="M-519.081,308.736c.037,9.837-.4,19.663-1.179,29.469-.032.4.61.4.639,0,.7-9.818.95-19.628.886-29.469a.173.173,0,0,0-.346,0Z" transform="translate(715.57 -288.569)" fill="#231f20"/>
        <path id="Path_12683" data-name="Path 12683" d="M-676.7,313.835a41.709,41.709,0,0,0,.915,12.771c.063.272.484.157.423-.115a42.714,42.714,0,0,1-.981-12.656c.016-.225-.339-.224-.357,0Z" transform="translate(681.89 -287.568)" fill="#231f20"/>
        <path id="Path_12684" data-name="Path 12684" d="M-675.516,314.692q-.017,5.081-.032,10.161a.269.269,0,0,0,.538,0q-.016-5.081-.031-10.161a.238.238,0,0,0-.475,0Z" transform="translate(682.168 -287.411)" fill="#231f20"/>
        <path id="Path_12685" data-name="Path 12685" d="M-674.623,343.342l1.517,1.557c.284.293.75-.164.452-.445l-1.581-1.493a.272.272,0,0,0-.388.382Z" transform="translate(682.35 -281.829)" fill="#231f20"/>
      </g>
    </g>
    <g id="Group_16741" data-name="Group 16741" transform="translate(19.031 957.887)">
      <path id="Path_12568" data-name="Path 12568" d="M1295.693,1108.073c-12.741-3.4-22.871,5.28-34.194,1.848-6.013-1.822-17.809-8.357-20.7-8.78-2.125-.315-4.121,7.683-5.73,10.258-3.431,5.49-20.437,14.531-19.407,18.992s13.229,1.045,14.6,6.192.739,8.225-2.311,8.41c-1.955,1-4,2.639-6.222,3.974-2.3,1.379-4.626,2.419-5.053,3.05-.23.278,4.009-.531,5.053-.647,3.088-.343-2.745,2.267,0,9.473,1.674,4.395-1.125,13.269-2.9,19.269-.22.741,4.679,1.536,4.436,2.31a8.206,8.206,0,0,0-.554,2.5s8.227,7.757,13.381,3.7c1.958-1.543,3.895-6.989,3.716-11.829-.269-7.321-3.716-14.727-3.716-14.727a15.787,15.787,0,0,0,5.934,4.469,25.24,25.24,0,0,1,2.033,7.807c.283,2.569.136,6.069.555,6.7,2.532,3.827,11.275-2.125,11.275-2.125l-2.771-7.911s6.09,1.366,6.715,4.49-1.832,12.059,2.854,12.059,20.9-4.085,18.382-13.216,3.484-10.092,9.611-12.495,4.746.99,16.82,7.569,20.3-4.145,21.866-10.573-3.517-10.994-2.283-14.417c1.745-4.839,4.886-5.24,5.406-6.248-10.212-3.844-20.886-27.609-22.827-30.1C1308.193,1106.188,1300.077,1109.242,1295.693,1108.073Z" transform="translate(-1206.615 -1096.589)" fill="#fff"/>
      <g id="OBJECTS" transform="translate(0 0)">
        <g id="Group_1" data-name="Group 1" transform="translate(0 0)">
          <path id="Path_1-2" data-name="Path 1" d="M230.531,400.668h0Z" transform="translate(-173.542 -307.674)"/>
          <path id="Path_2-2" data-name="Path 2" d="M217.848,398.44h0l-.008,0Z" transform="translate(-165.636 -306.284)"/>
          <path id="Path_3" data-name="Path 3" d="M89.265,298.335l.017.028,0,0Z" transform="translate(-85.518 -243.909)"/>
          <path id="Path_4" data-name="Path 4" d="M82.859,260.309v0Z" transform="translate(-81.527 -220.215)"/>
          <path id="Path_5-3" data-name="Path 5" d="M397.6,345.678l.025-.023-.027.025Z" transform="translate(-277.641 -273.395)"/>
          <path id="Path_6" data-name="Path 6" d="M413.143,299h0l0-.021C413.14,298.984,413.141,298.991,413.143,299Z" transform="translate(-287.326 -244.309)"/>
          <path id="Path_7" data-name="Path 7" d="M365.536,281.746h0Z" transform="translate(-257.664 -233.572)"/>
          <path id="Path_8" data-name="Path 8" d="M339.687,186.256l.04.035-.067-.058Z" transform="translate(-241.542 -174.058)"/>
          <path id="Path_9" data-name="Path 9" d="M196.548,182.715l-.006,0a.091.091,0,0,1-.022.008l-.061.012h0a4.655,4.655,0,0,1-.528.024c-.551,0-1.1-.038-1.649-.087s-1.073-.1-1.608-.159c-.65-.083-1.3-.2-1.937-.333q-1.034-.214-2.061-.465l-.04-.01-.016,0h-.01l-.02-.006h0l-.075-.018-.008,0h0l-.068-.018c-.964-.246-1.929-.5-2.874-.806-.483-.157-.969-.311-1.446-.485s-.958-.356-1.435-.542q-1.349-.537-2.678-1.127c-.884-.392-1.765-.787-2.638-1.2s-1.767-.848-2.662-1.247-1.837-.745-2.769-1.078c-.423-.152-.84-.323-1.266-.47s-.835-.273-1.258-.381a8.023,8.023,0,0,0-1.36-.241,6.038,6.038,0,0,0-1.15.02,6.757,6.757,0,0,0-1.9.49,6.449,6.449,0,0,0-1.753,1.126.1.1,0,0,0,.132.162c.167-.116.334-.23.506-.338a.013.013,0,0,1,.006,0,5.007,5.007,0,0,1,.556-.294h0a7.194,7.194,0,0,1,.775-.288l.013,0,.013,0,0,0a6.986,6.986,0,0,1,.776-.164,5.34,5.34,0,0,1,.672-.054h0a4.919,4.919,0,0,1,.538.031h.017a8.124,8.124,0,0,1,.884.159,11.281,11.281,0,0,1,1.2.387h0l0,0,.01,0,.018.008h0a18.949,18.949,0,0,1,2.028.955c.519.287,1.028.6,1.538.9.576.341,1.159.669,1.746.99.243.133.486.266.733.4.882.473,1.795.882,2.709,1.292.867.39,1.739.772,2.624,1.122h0l.034.014.027.011.028.011.055.022-.042-.018c.759.3,1.524.587,2.3.832s1.548.449,2.333.635c.97.23,1.945.4,2.931.537.96.132,1.919.229,2.887.269.494.02.989.035,1.482.035.438,0,.876-.012,1.312-.043a12.919,12.919,0,0,0,1.4-.15c.209-.038.418-.081.624-.138.128-.036.253-.08.381-.118.021-.006.04-.011.063-.015l.02,0A.076.076,0,1,0,196.548,182.715Z" transform="translate(-131.6 -166.471)"/>
          <path id="Path_10" data-name="Path 10" d="M152.124,201.491l0-.006,0,0c.138-.148.28-.294.422-.437.9-.9,1.844-1.747,2.818-2.562a3.7,3.7,0,0,1,.3-.235l.014-.009h0l.009-.006,0,0h0l.014-.006c.078-.039,0-.157-.071-.1l-.015.012c-.07.054-.148.1-.221.152l-.311.213c-.224.154-.447.307-.669.463q-.633.444-1.226.94l-.007,0,0,0h0l0,0h0l0,0c-.38.317-.753.641-1.122.969-.5.445-.99.9-1.465,1.371s-.916.923-1.358,1.4h0c-.219.236-.437.474-.652.713-.874.98-1.723,1.989-2.5,3.051a29.06,29.06,0,0,0-2,3.271c-.31.57-.606,1.146-.9,1.724-.285.554-.575,1.1-.866,1.655l.012-.02c-.2.374-.4.75-.609,1.119s-.415.708-.619,1.064a.238.238,0,0,0,.077.324.234.234,0,0,0,.122.035.239.239,0,0,0,.185-.087c.112-.135.218-.276.324-.417q.577-.771,1.13-1.56c.352-.5.68-1.02,1.011-1.536.683-1.068,1.315-2.167,1.972-3.251.326-.538.647-1.081.981-1.615s.7-1.064,1.064-1.582c.247-.345.5-.684.753-1.022s.5-.658.754-.976q.628-.773,1.273-1.53c.42-.491.854-.967,1.293-1.441Z" transform="translate(-117.8 -181.458)"/>
          <path id="Path_11" data-name="Path 11" d="M179.351,205.19a1.972,1.972,0,0,0-.26.26c-.182.208-.35.427-.519.646-.389.5-.756,1.019-1.123,1.537-.377.534-.74,1.077-1.073,1.641q-1,1.7-1.851,3.492c-.278.586-.547,1.177-.8,1.777-.259.625-.5,1.261-.729,1.9q-.685,1.859-1.231,3.765-.263.916-.5,1.841c-.166.635-.315,1.273-.477,1.908-.323,1.27-.662,2.537-.983,3.808-.077.306-.159.609-.241.913s-.159.6-.246.9-.179.614-.274.918-.2.6-.307.89c-.177.464-.382.915-.581,1.368a.151.151,0,0,0,.074.2.139.139,0,0,0,.061.014.155.155,0,0,0,.128-.071,10.311,10.311,0,0,0,.557-.952,18.785,18.785,0,0,0,.952-2.057c.228-.592.445-1.188.658-1.786.218-.614.416-1.234.61-1.855s.382-1.243.568-1.866.385-1.255.557-1.889c.34-1.256.69-2.511,1.081-3.753q.3-.951.614-1.9c.2-.6.405-1.207.624-1.805.237-.627.472-1.256.727-1.877.243-.59.508-1.172.782-1.748s.562-1.162.862-1.732a.027.027,0,0,1,0-.007c0-.007.007-.015.011-.022l0-.007c.26-.485.533-.963.807-1.44q.242-.424.491-.844c.157-.266.311-.535.468-.8s.324-.536.492-.8c.075-.119.152-.24.217-.365a.3.3,0,0,0,.054-.19.068.068,0,0,0-.045-.048A.2.2,0,0,0,179.351,205.19Z" transform="translate(-134.67 -185.835)"/>
          <path id="Path_12" data-name="Path 12" d="M131.247,392.027l.029-.009.015-.006Z" transform="translate(-111.678 -302.28)"/>
          <path id="Path_13" data-name="Path 13" d="M207.946,196a3.954,3.954,0,0,0-.3-1.085,6.2,6.2,0,0,0-.551-1.022,7.651,7.651,0,0,0-.712-.874,15.993,15.993,0,0,0-1.558-1.416v0l-.006,0,0,0c-.738-.61-1.486-1.208-2.225-1.817a29.827,29.827,0,0,1-2.653-2.377c-.358-.387-.7-.786-1.027-1.2s-.641-.808-.943-1.227a29.084,29.084,0,0,1-1.665-2.72c-.188-.354-.372-.711-.555-1.067-.5-.983-1-1.967-1.482-2.958-.467-.952-.911-1.917-1.348-2.884-.455-1.005-.9-2.018-1.366-3.017-.433-.923-.88-1.841-1.359-2.742l-.011-.021c-.581-1.088-1.206-2.147-1.846-3.2-.54-.889-1.088-1.777-1.684-2.63a22.542,22.542,0,0,0-1.837-2.36l-.043-.047-.006-.007c-.307-.331-.617-.662-.956-.961a4.574,4.574,0,0,0-1.231-.783,4.506,4.506,0,0,0-1.437-.331,7.431,7.431,0,0,0-1.433.035,7.665,7.665,0,0,0-2.991,1.05c-.706.421-1.373.906-2.095,1.3a7.128,7.128,0,0,1-.7.324q-.237.086-.482.15c-.141.031-.282.057-.424.074s-.287.02-.431.02c-.222-.009-.444-.033-.666-.036s-.463.008-.7.023a.827.827,0,0,0-.237.051q-.681-.278-1.379-.518a31.821,31.821,0,0,0-6.194-1.472c-1.116-.144-2.241-.213-3.366-.247q-1.715-.052-3.427.049l-.123.008.078,0a34.532,34.532,0,0,0-3.847.442c-1.1.194-2.187.422-3.266.713s-2.163.657-3.218,1.057c-.959.363-1.909.754-2.865,1.124s-1.914.742-2.883,1.078l-.276.095c-.073.024-.146.047-.22.069q-.356-.035-.712-.078h0a.962.962,0,0,0-.1-.013c-.075-.011-.152-.018-.228-.028q-.37-.047-.738-.1c-.892-.132-1.779-.3-2.653-.518-.915-.241-1.826-.511-2.718-.825-.945-.332-1.882-.689-2.814-1.057q-.729-.3-1.453-.606c-.263-.113-.528-.223-.785-.347-.237-.115-.468-.237-.7-.365a20.14,20.14,0,0,1-2.031-1.342c-.718-.556-1.418-1.133-2.123-1.7s-1.39-1.134-2.127-1.639a13.952,13.952,0,0,0-1.662-.984,8.254,8.254,0,0,0-.853-.354c-.263-.1-.529-.187-.8-.264a12.377,12.377,0,0,0-1.837-.4,7.921,7.921,0,0,0-2.819.1,6.962,6.962,0,0,0-1.1.371,5.379,5.379,0,0,0-.918.49,7.257,7.257,0,0,0-1.424,1.263,7.421,7.421,0,0,0-.58.73c-.168.245-.313.507-.458.764q-.185.329-.354.665a34.26,34.26,0,0,0-1.39,3.306c-.413,1.1-.821,2.21-1.257,3.306-.221.547-.448,1.091-.692,1.627s-.491,1.06-.771,1.569a10.764,10.764,0,0,1-.692,1.049,27.486,27.486,0,0,1-2.2,2.532,21.254,21.254,0,0,1-2.032,1.78,26.346,26.346,0,0,1-2.728,1.809l.069-.039-.118.068-.049.029-.015.009q-.742.423-1.487.846l-.049.028q-.5.285-.995.576c-.817.482-1.627.985-2.4,1.536-.518.369-1.03.752-1.512,1.166s-.948.866-1.391,1.329c-.192.2-.375.409-.554.621s-.375.444-.551.675a14.154,14.154,0,0,0-1.061,1.572,6.418,6.418,0,0,0-.749,1.9,7.93,7.93,0,0,0-.115.85,5.214,5.214,0,0,0,.01.84,7.533,7.533,0,0,0,.113.891,5.2,5.2,0,0,0,.3.975,4.123,4.123,0,0,0,1.1,1.569c.213.176.441.335.665.5a5.66,5.66,0,0,0,.736.441c.239.123.476.254.723.361.264.116.535.22.809.31.512.167,1.039.289,1.564.412.54.128,1.089.247,1.64.325a14.523,14.523,0,0,0,1.794.147c.307,0,.614,0,.922.015s.62.037.929.073a9,9,0,0,1,.892.159,7.393,7.393,0,0,1,.758.255,3.708,3.708,0,0,1,.814.467q.147.117.283.246c.1.106.2.216.292.332s.178.261.259.4c.057.1.11.207.158.314.077.205.141.414.2.625a8.581,8.581,0,0,1,.2.987c.067.5.13,1,.184,1.508.026.248.052.5.088.742-.172.023-.344.054-.513.092a6.879,6.879,0,0,0-2.036.858c-.175.105-.341.223-.506.344-.21.156-.418.313-.62.479a12.279,12.279,0,0,0-.916.845l-.023.023c-.284.284-.568.566-.845.856s-.573.6-.863.9l-.011.011a16.147,16.147,0,0,1-1.447,1.279c-.2.148-.405.288-.606.434s-.378.275-.577.395a14.049,14.049,0,0,1-1.426.718,6.283,6.283,0,0,1-.6.215c-.213.052-.43.092-.649.123a8.483,8.483,0,0,1-.912.07c-.24,0-.479-.028-.718-.055-.185-.025-.369-.055-.551-.1a6.875,6.875,0,0,1-.706-.234,5.528,5.528,0,0,1-.588-.291l-.35-.2a8.577,8.577,0,0,1-.789-.523,1.308,1.308,0,0,0,.179-.04,3.312,3.312,0,0,0,.725-.34,3.929,3.929,0,0,0,.732-.537,2.617,2.617,0,0,0,.33-.357,3.6,3.6,0,0,0,.211-.32c.072-.119.138-.24.2-.364a1.477,1.477,0,0,0,.16-.4,1.38,1.38,0,0,0,.057-.7.577.577,0,0,0-.256-.319.756.756,0,0,0-.307-.08,2.618,2.618,0,0,0-.488.028c-.152.017-.3.039-.456.061.048-.057.1-.115.143-.174.207-.259.415-.517.614-.782a6.191,6.191,0,0,0,.536-.872,6.856,6.856,0,0,0,.693-2.081,10.415,10.415,0,0,0,.122-1.119,4.454,4.454,0,0,0,0-.614,2.8,2.8,0,0,0-.036-.307c-.015-.074-.028-.148-.039-.221a2.061,2.061,0,0,0-.1-.446,1.114,1.114,0,0,0-.209-.368.8.8,0,0,0-.311-.217.656.656,0,0,0-.465.02,1.894,1.894,0,0,0-.635.552c-.152.182-.3.365-.447.553A4.37,4.37,0,0,0,85,195.3c-.092-.158-.186-.313-.288-.465a5.193,5.193,0,0,0-1.493-1.484,6.451,6.451,0,0,0-.828-.452c-.135-.06-.273-.118-.413-.166-.118-.041-.239-.066-.36-.1-.151-.04-.3-.084-.451-.122a1.188,1.188,0,0,0-.4-.052.5.5,0,0,0-.433.342.668.668,0,0,0,.043.473c.044.107.1.207.149.311a3.571,3.571,0,0,1,.111.34c0,.02.011.04.016.059v0l.007.028v-.007a.021.021,0,0,0,0,.009v0a.013.013,0,0,0,0,.006.023.023,0,0,0,0,.009.1.1,0,0,1,0,.014,7.052,7.052,0,0,1,.156.774c.02.17.033.341.037.512,0,.2-.018.407-.04.609a5.953,5.953,0,0,1-.133.664,11.6,11.6,0,0,1-.444,1.335c-.1.232-.206.455-.308.683-.113.25-.209.508-.3.766a4.9,4.9,0,0,0-.3,1.47,3.817,3.817,0,0,0,.4,1.838,4.569,4.569,0,0,0,.4.681c.08.108.16.218.25.318s.178.185.271.273a5.356,5.356,0,0,0,.445.368,3.332,3.332,0,0,0,.516.33c.161.083.326.158.489.237,0,.153,0,.306.008.458.015.194.038.386.066.577a6.987,6.987,0,0,0,.9,2.4l.017.028c0,.006.007.012.011.019l.023.04-.011-.022c.133.23.273.453.427.669a5.5,5.5,0,0,0,.48.592,6.328,6.328,0,0,0,.588.535,4.62,4.62,0,0,0,1.178.706c.432.177.861.373,1.307.514a6.266,6.266,0,0,0,.674.162c.18.037.36.073.542.1a5.534,5.534,0,0,0,.761.049c.224,0,.447-.011.67-.028a8.454,8.454,0,0,0,1.2-.171c.122-.028.242-.058.36-.094-.024.05-.048.1-.071.15-.006.014-.013.029-.02.042a6.735,6.735,0,0,0-.545,1.6,8.267,8.267,0,0,0-.129,1.938,12.456,12.456,0,0,0,.6,3.168,24.989,24.989,0,0,0,1.043,2.69c-.014.235-.027.47-.043.7-.052.759-.106,1.519-.2,2.273-.1.773-.172,1.549-.268,2.323-.1.818-.2,1.638-.337,2.45l0,.014a25.248,25.248,0,0,1-.743,3.031c-.159.494-.333.986-.515,1.472s-.37.974-.563,1.458a9.44,9.44,0,0,0-.4,1.121,5.631,5.631,0,0,0-.192,1.238,3.047,3.047,0,0,0,.227,1.257,2.871,2.871,0,0,0,.239.468,3.712,3.712,0,0,0,.308.4,4.082,4.082,0,0,0,.47.457,4.273,4.273,0,0,0,.813.505c.283.137.57.265.865.374.268.1.538.192.812.273a1.9,1.9,0,0,0,.191.045c-.106.264-.208.529-.3.8a5.061,5.061,0,0,0-.286,1.13,2.216,2.216,0,0,0,.2,1.227,3.318,3.318,0,0,0,1.026,1.135c.222.164.451.318.688.459.21.127.422.255.64.367.253.13.515.235.775.347.233.1.464.2.7.3q1.176.5,2.382.911a19.583,19.583,0,0,0,2.749.72c.448.086.9.177,1.343.269.412.084.829.129,1.243.2l.012,0c.179.032.358.064.539.084.241.029.482.037.724.058s.47.042.7.049l.136,0c.335,0,.669-.031,1-.041s.688-.021,1.031-.057c.239-.026.476-.063.713-.089a1.642,1.642,0,0,0,.344-.013c.032-.007.064-.012.1-.016a1.038,1.038,0,0,0,.363.049,2.647,2.647,0,0,0,.341-.039,3.442,3.442,0,0,0,.557-.141l.066-.023.013,0a1.962,1.962,0,0,0,.192-.08,2,2,0,0,0,.476-.328,2.772,2.772,0,0,0,.341-.4,5.728,5.728,0,0,0,.347-.537c.1-.17.18-.349.273-.52.111-.206.223-.41.329-.619.239-.472.475-.952.675-1.443.162-.4.31-.8.442-1.206.037-.115.075-.23.117-.344.268-.738.576-1.459.844-2.2.119-.328.236-.658.356-.986.189.1.386.184.582.263a11.035,11.035,0,0,0,2.36.652,17.928,17.928,0,0,0,2.576.208l.295,0a17.468,17.468,0,0,0,2.245-.146l.03,0c.607-.081,1.216-.173,1.813-.314a13.247,13.247,0,0,0,2.081-.7,20.812,20.812,0,0,0,1.936-.923c.135-.074.27-.15.4-.227-.009.09-.019.179-.028.268-.049.439-.122.874-.2,1.309-.086.475-.188.948-.3,1.419-.2.824-.446,1.635-.672,2.452a7.14,7.14,0,0,0-.216.955,1.3,1.3,0,0,0-.008.418,1.877,1.877,0,0,0,.224.576,2.544,2.544,0,0,0,.569.666,3.719,3.719,0,0,0,.534.373,5.339,5.339,0,0,0,.571.279c.339.145.688.261,1.039.373.659.208,1.322.405,2,.55a20.3,20.3,0,0,0,3.019.392c.459.027.92.037,1.38.037h.277c.485,0,.969-.019,1.453-.056.5-.038,1-.105,1.493-.193s1.015-.192,1.513-.329a8.945,8.945,0,0,0,1.339-.455c.473-.214.938-.444,1.388-.7a10.936,10.936,0,0,0,2.233-1.621,3.38,3.38,0,0,0,.839-1.3,6.4,6.4,0,0,0,.19-.647l.311-.033c.361-.036.722-.086,1.081-.144a30.073,30.073,0,0,0,3.054-.7c.452-.122.909-.242,1.352-.395a11.348,11.348,0,0,0,1.3-.512c.421-.206.83-.438,1.227-.684a7.087,7.087,0,0,0,1.18-.907,3.132,3.132,0,0,0,.64-.747,2.164,2.164,0,0,0,.244-.961,3.6,3.6,0,0,0-.1-.789c-.062-.309-.139-.614-.206-.92,0,.015.006.03.009.046-.005-.029-.012-.058-.018-.086v-.008c-.1-.476-.2-.953-.317-1.428-.136-.568-.275-1.137-.4-1.707,0,.014.006.027.008.041l-.02-.091,0-.022c-.111-.514-.217-1.03-.309-1.547-.1-.542-.17-1.085-.221-1.633-.056-.663-.094-1.329-.117-1.994-.02-.6-.037-1.2-.085-1.8-.032-.356-.074-.711-.13-1.064.7-.337,1.393-.7,2.082-1.059.888-.47,1.766-.957,2.663-1.41.44-.215.885-.421,1.336-.612.485-.207.971-.417,1.466-.6l.061-.022.025-.009h0a23.835,23.835,0,0,1,2.608-.693,13.457,13.457,0,0,1,1.463-.206h.008c.2-.015.4-.027.607-.032a20.587,20.587,0,0,0,2.7,4.433,18.579,18.579,0,0,0,2.223,2.364,15.121,15.121,0,0,0,1.269,1.021c.395.283.8.544,1.223.791a21.087,21.087,0,0,0,2.836,1.391,19.172,19.172,0,0,0,2.99.949c.546.121,1.1.222,1.65.292s1.121.112,1.684.14c.459.023.92.032,1.381.032.581,0,1.162-.016,1.742-.045a22.105,22.105,0,0,0,3.224-.411,19.685,19.685,0,0,0,3.149-.88,24.013,24.013,0,0,0,2.94-1.388,14.982,14.982,0,0,0,2.568-1.717l.007-.006.083-.072.085-.075c.133-.117.263-.236.388-.361a12.539,12.539,0,0,0,1.946-2.568,15.106,15.106,0,0,0,.759-1.471c.231-.519.434-1.05.623-1.586h0l.013-.037c.013-.037.027-.075.04-.113a21.2,21.2,0,0,0,.821-3.069,28.62,28.62,0,0,0,.39-3.067,25.853,25.853,0,0,0,.04-3.43c-.032-.553-.073-1.106-.142-1.656s-.165-1.072-.269-1.6l0-.009h0c0-.008,0-.015,0-.022-.013-.063-.025-.127-.037-.19a24.863,24.863,0,0,0-.807-3.09.106.106,0,0,0,0-.012,14.7,14.7,0,0,0-.695-1.723,15.848,15.848,0,0,0-.868-1.558l0,0a1.118,1.118,0,0,0,.1-.1c.126-.145.223-.309.34-.461.053-.06.109-.116.165-.172a9.133,9.133,0,0,1,.742-.6,6.448,6.448,0,0,1,.6-.373l.07-.037c.22-.112.445-.213.672-.309s.449-.181.665-.291a3.51,3.51,0,0,0,1.09-.832,3.6,3.6,0,0,0,.5-.8,3.028,3.028,0,0,0,.253-.867,5.209,5.209,0,0,0,.057-.519A3.791,3.791,0,0,0,207.946,196ZM93.352,239.692c-.069-.033-.139-.065-.21-.092-.147-.055-.3-.1-.45-.144a9.687,9.687,0,0,1-1.082-.409,6.061,6.061,0,0,1-.589-.321q-.146-.1-.282-.207c-.037-.034-.071-.068-.106-.1l-.033-.041c-.023-.038-.045-.076-.066-.115s-.031-.071-.046-.107c-.026-.079-.047-.158-.067-.239a2.519,2.519,0,0,1-.042-.259c-.009-.132-.011-.264-.006-.4s.02-.243.039-.364a5.534,5.534,0,0,1,.137-.536c.143-.441.289-.884.455-1.318s.341-.892.508-1.341c.144-.388.276-.781.407-1.174.006-.017.011-.033.016-.05l0,0c.073-.184.144-.37.213-.556.386-1.036.7-2.1,1.01-3.156.142-.486.263-.976.377-1.469.122-.532.234-1.064.327-1.6.022-.128.041-.255.06-.383.015-.1.029-.209.042-.314q.254.628.484,1.264c.122.35.233.705.365,1.052a5.067,5.067,0,0,0,.24.541c.07.133.148.26.22.391.029.063.055.128.08.193a9.021,9.021,0,0,1,.277.953,9.291,9.291,0,0,1,.2,2.429c-.011.238-.024.477-.051.713s-.058.442-.094.663a17.908,17.908,0,0,1-.508,2.009c-.086.267-.174.532-.268.8q-.382,1.089-.854,2.143C93.822,238.661,93.583,239.175,93.352,239.692Zm7.6,6.681a2.969,2.969,0,0,0-.07.5c0,.029,0,.058,0,.087-.386-.126-.768-.263-1.148-.406-.4-.151-.8-.31-1.189-.488q-.672-.317-1.32-.685c.159-.132.326-.253.5-.37a5.006,5.006,0,0,1,.472-.289,5.356,5.356,0,0,1,.57-.235,5.765,5.765,0,0,1,.6-.175c.092-.02.184-.036.276-.047a2.119,2.119,0,0,1,.224-.006,1.341,1.341,0,0,1,.134.014c.024,0,.047.011.072.018.048.016.095.035.142.056s.085.046.126.07l.064.047c.014.012.027.025.04.038s.04.05.058.075c.044.069.085.14.129.211s.084.138.124.209.052.12.076.182q.05.148.085.3a2.727,2.727,0,0,1,.044.276,4.077,4.077,0,0,1,.009.445C100.958,246.258,100.956,246.315,100.949,246.373Zm4.127.991a1.86,1.86,0,0,0-.009.251c0,.031,0,.062.009.093-.135-.013-.269-.028-.4-.039-.252-.023-.506-.028-.757-.06-.208-.027-.414-.065-.621-.1s-.4-.058-.607-.091q-.452-.082-.9-.2a.477.477,0,0,0,.026-.089c0-.015.008-.03.013-.046s.018-.049.029-.073c.044-.089.1-.178.149-.263a2.175,2.175,0,0,1,.152-.206,2.992,2.992,0,0,1,.216-.215,3.533,3.533,0,0,1,.31-.245l0,0,.006,0,0,0,0,0,.006,0a3.992,3.992,0,0,1,.345-.206,5.292,5.292,0,0,1,.5-.2,2.645,2.645,0,0,1,.262-.077,1.7,1.7,0,0,1,.17-.025c.04,0,.08,0,.12,0,.055,0,.111.01.166.018.04.008.08.017.118.028s.068.024.1.038.071.039.106.061.068.048.1.074.049.046.074.072.05.061.072.093c.032.049.061.1.09.152a.965.965,0,0,1,.042.1,1.821,1.821,0,0,1,.049.177,3.733,3.733,0,0,1,.059.418,3.048,3.048,0,0,1,.006.326C105.088,247.195,105.082,247.279,105.076,247.363Zm4.248-.172a1.247,1.247,0,0,0-.335.216l-.066.016a1.569,1.569,0,0,0-.3.107c-.22.047-.443.084-.666.116-.283.041-.566.084-.852.112a5.879,5.879,0,0,1-.611.013c-.184-.008-.366-.023-.551-.027l-.117,0c.011-.014.021-.028.031-.043.116-.166.236-.33.368-.485a4.037,4.037,0,0,1,.318-.325,7.273,7.273,0,0,1,.683-.526,4.551,4.551,0,0,1,.416-.249,2.206,2.206,0,0,1,.21-.092c.061-.021.124-.04.187-.055s.1-.017.146-.022.1,0,.15,0,.123.011.185.02.125.027.187.044c.043.015.084.03.126.047s.1.052.15.08l.055.042c.016.015.032.031.048.047.033.039.064.079.094.119s.038.063.056.1c.03.063.059.129.083.195.031.092.058.187.08.281.016.074.031.15.047.225C109.406,247.153,109.364,247.171,109.324,247.192Zm27-.269.067,0-.08,0h0a21.637,21.637,0,0,1-2.347-.238c.039-.066.08-.13.121-.194a5.792,5.792,0,0,1,.421-.552,5.461,5.461,0,0,1,.473-.47,6.262,6.262,0,0,1,.542-.436c.065-.042.132-.08.2-.116.084-.041.169-.078.257-.112a2.036,2.036,0,0,1,.219-.062q.126-.023.254-.036c.077,0,.154-.007.231,0,.049,0,.1.009.144.015a3.338,3.338,0,0,1,.335.079,1.914,1.914,0,0,1,.185.072c.047.023.093.049.138.076.022.015.043.031.063.048s.04.038.06.058c.078.09.152.182.221.279s.139.219.2.333a2.692,2.692,0,0,1,.113.265,4.956,4.956,0,0,1,.141.539h0c.018.08.026.161.041.242s.029.138.049.205C137.694,246.948,137.008,246.947,136.326,246.922Zm6.847-1.135c-.274.136-.553.267-.837.383a13.459,13.459,0,0,1-1.384.393c-.5.107-1.011.2-1.523.263.011-.04.023-.079.035-.118a5.919,5.919,0,0,1,.273-.684,6.1,6.1,0,0,1,.319-.58,5.32,5.32,0,0,1,.377-.513c.086-.1.176-.191.272-.28.082-.07.167-.139.255-.2a2.68,2.68,0,0,1,.232-.137q.1-.046.2-.085a1.955,1.955,0,0,1,.19-.056,2.1,2.1,0,0,1,.215-.033,2.491,2.491,0,0,1,.249-.006c.066,0,.133.012.2.023a1.984,1.984,0,0,1,.2.046,1.208,1.208,0,0,1,.158.061c.042.021.083.044.122.067a1.844,1.844,0,0,1,.168.125,2.982,2.982,0,0,1,.216.216l0,0h0l0,0,0,.006a6.812,6.812,0,0,1,.529.68l0,.009c.022.043.043.086.067.128Q143.444,245.647,143.172,245.787Zm2.924-2.438c-.04.122-.086.242-.137.361-.02.037-.04.073-.06.109-.038.053-.076.106-.118.158a4.232,4.232,0,0,1-.3.3,9.45,9.45,0,0,1-.835.649c-.067.045-.135.09-.2.134.02-.1.044-.2.073-.29a5.511,5.511,0,0,1,.22-.56,2.393,2.393,0,0,1,.127-.23,4.062,4.062,0,0,1,.286-.389c.049-.056.1-.11.156-.161a1.969,1.969,0,0,1,.163-.129,3.327,3.327,0,0,1,.3-.172,3.134,3.134,0,0,1,.335-.143c.032-.011.065-.023.1-.032C146.169,243.084,146.135,243.218,146.1,243.349Zm.577-11.428a9.177,9.177,0,0,0-.409,1.583,5.992,5.992,0,0,0-.068.716c-.012.242-.027.485-.028.727,0,.436-.013.872-.018,1.308-.006.456.006.911-.008,1.368-.011.207-.026.416-.021.624,0,.193.013.386.022.579.02.432.011.864.037,1.3.044.721.123,1.44.1,2.164,0,.039-.006.078-.009.116l-.056,0a2.089,2.089,0,0,0-.977.384,3.381,3.381,0,0,0-.856.784,3.325,3.325,0,0,0-.337.558,2.875,2.875,0,0,0-.132.354,3.016,3.016,0,0,0-1.526-1.01,2.5,2.5,0,0,0-.623-.08,2.08,2.08,0,0,0-.68.133,3.3,3.3,0,0,0-1.2.808,4.777,4.777,0,0,0-.75,1.04l-.024-.051a2.438,2.438,0,0,0-.81-.978l-.011-.008-.008-.006-.009-.006,0,0a3.114,3.114,0,0,0-.635-.316,2.036,2.036,0,0,0-.454-.1,2.442,2.442,0,0,0-.454.008,2.943,2.943,0,0,0-.5.084,3.467,3.467,0,0,0-.509.187,3.874,3.874,0,0,0-.5.276,4.546,4.546,0,0,0-.48.343,4.181,4.181,0,0,0-.646.7,3.624,3.624,0,0,0-.255.392,3.342,3.342,0,0,0-.183.4,2.964,2.964,0,0,0-.1.314,19.9,19.9,0,0,1-2.028-.53h0l0,0-.018-.006-.042-.012-.02-.008h0l-.018-.006a10.134,10.134,0,0,1-1.014-.375c-.114-.056-.226-.115-.336-.181-.055-.038-.109-.078-.161-.12-.035-.031-.068-.065-.1-.1l-.01-.013c.078-.389.194-.77.3-1.152.17-.588.335-1.176.477-1.771a24.1,24.1,0,0,0,.511-2.83c.062-.529.09-1.061.1-1.592,0-.182,0-.366,0-.549a.736.736,0,0,0-.044-.663c-.009-.1-.02-.2-.033-.292a7.088,7.088,0,0,0-.343-1.476c-.132-.368-.3-.724-.464-1.076-.2-.418-.387-.839-.589-1.254-.151-.31-.306-.616-.463-.923a.8.8,0,0,0-.054-.112l-.02-.031q-.089-.172-.176-.346c-.1-.19-.194-.38-.291-.57-.106-.216-.19-.443-.286-.665s-.178-.416-.259-.627a4,4,0,0,0-.2-.475.471.471,0,0,0-.146-.178.054.054,0,0,0-.1-.01.381.381,0,0,0-.169.222,1.36,1.36,0,0,0-.056.238,2.682,2.682,0,0,0-.04.309,5.638,5.638,0,0,0,0,.757,7.32,7.32,0,0,0,.112.789,7.554,7.554,0,0,0,.185.791c.046.152.1.3.149.452v0c.006.018.013.038.02.057.044.118.089.237.136.354.327.818.768,1.586,1.076,2.413a6.656,6.656,0,0,1,.184.667c.035.174.062.349.08.526.02.251.028.5.029.756-.192.146-.387.289-.589.419-.239.156-.485.3-.732.445a14.142,14.142,0,0,1-1.5.735c-.349.142-.7.281-1.065.395s-.706.2-1.059.3a20.734,20.734,0,0,1-2.492.492h0a17.883,17.883,0,0,1-2.035.156,16.259,16.259,0,0,1-1.827-.09,15.937,15.937,0,0,1-1.782-.351c-.358-.093-.711-.2-1.058-.328a8.773,8.773,0,0,0,.307-1.038,8.666,8.666,0,0,0,.167-1.469,10.523,10.523,0,0,0-.059-1.537,28.2,28.2,0,0,0-.409-2.869c-.1-.483-.226-.955-.364-1.428-.113-.384-.231-.767-.362-1.146-.3-.869-.646-1.722-.958-2.587l-.064-.185c-.119-.358-.228-.721-.336-1.083-.09-.3-.166-.613-.254-.918-.073-.251-.156-.5-.231-.749-.064-.211-.116-.427-.177-.639a.161.161,0,0,0-.314.026,4.39,4.39,0,0,0-.046.583c-.006.209-.011.417,0,.626a8.6,8.6,0,0,0,.268,1.644c.09.384.2.764.3,1.146.115.426.26.843.389,1.265.25.82.5,1.642.683,2.48,0,.008,0,.015,0,.023l0,.006,0,.011c0,.006,0,.013,0,.019s0-.009,0-.013a28.906,28.906,0,0,1,.479,3.225,11.461,11.461,0,0,1,.037,1.268,10.082,10.082,0,0,1-.107,1.053c-.031.154-.067.307-.111.458-.17.533-.345,1.063-.515,1.6-.205.645-.461,1.274-.691,1.911-.1.279-.2.558-.309.833-.1.255-.211.511-.326.762-.1.214-.22.421-.325.635-.147.3-.285.6-.422.9-.255.564-.49,1.138-.75,1.7-.05.1-.1.2-.164.3a9.083,9.083,0,0,1-.587.811c-.023.024-.045.05-.069.075l-.006,0-.036.019a2.01,2.01,0,0,0-.009-.517,1.7,1.7,0,0,0-.4-.875.98.98,0,0,0-.155-.147,1.311,1.311,0,0,0-.228-.128,1.288,1.288,0,0,0-.407-.1,2.186,2.186,0,0,0-.877.162,4.291,4.291,0,0,0-.472.2,5.153,5.153,0,0,0-1.427,1.063c-.054.057-.107.115-.159.174a3.187,3.187,0,0,0-.028-.515,2.056,2.056,0,0,0-.187-.652,1.33,1.33,0,0,0-.456-.5,2.114,2.114,0,0,0-1.492-.245,2.423,2.423,0,0,0-.422.1,2.734,2.734,0,0,0-.454.217,4.834,4.834,0,0,0-.718.514l-.13.115a4.285,4.285,0,0,0-.118-.807,2.04,2.04,0,0,0-.347-.763,1.887,1.887,0,0,0-.68-.487,2.235,2.235,0,0,0-.424-.157,2.386,2.386,0,0,0-.486-.061,2.133,2.133,0,0,0-.487.033,3.471,3.471,0,0,0-.463.139,7.51,7.51,0,0,0-.884.379,4.7,4.7,0,0,0-.517.3,2.966,2.966,0,0,0-.58.478,1.664,1.664,0,0,0-.2.277q-.215-.129-.427-.264c-.19-.125-.375-.256-.568-.378-.168-.107-.34-.208-.508-.315a9.229,9.229,0,0,1-.86-.616c-.042-.039-.083-.078-.123-.119s-.07-.086-.1-.129l-.018-.029-.013-.031-.015-.05c0-.01,0-.021,0-.032s0-.032,0-.049c0-.044.009-.086.015-.13a4,4,0,0,1,.1-.41c.177-.546.4-1.079.623-1.607.339-.789.71-1.564,1.048-2.354.311-.728.586-1.467.825-2.223.128-.41.249-.825.336-1.248.063-.308.119-.618.153-.931.032-.3.046-.6.054-.893a13.053,13.053,0,0,0-.043-1.467c-.044-.514-.113-1.025-.18-1.536-.049-.376-.1-.75-.163-1.126-.031-.2-.059-.4-.083-.6s-.059-.413-.081-.619c-.008-.168,0-.337-.018-.506a4.077,4.077,0,0,0-.121-.692c-.095-.366-.224-.725-.35-1.081q-.425-1.2-.935-2.357c-.37-.846-.772-1.676-1.164-2.513-.378-.807-.726-1.626-1.033-2.463a16.839,16.839,0,0,1-.558-1.91,12.926,12.926,0,0,1-.205-1.419,11.32,11.32,0,0,1-.03-1.234c.01-.2.019-.409.04-.61s.054-.407.086-.609a8.558,8.558,0,0,1,.213-.921c.106-.332.233-.66.363-.984s.259-.629.4-.937h0c.023-.05.046-.1.07-.149a.043.043,0,0,0,0-.007c.113-.239.222-.481.335-.721.132-.277.259-.554.384-.833.1-.219.174-.444.262-.665.057-.141.109-.285.166-.426a.683.683,0,0,0,.08-.222c.032-.05-.042-.105-.082-.061-.09.036-.157.146-.216.217-.122.149-.242.3-.367.448l-.062.07c-.315.358-.6.744-.88,1.127-.24.323-.468.65-.687.988a.593.593,0,0,0-.131.015,3.375,3.375,0,0,0-.611.238c-.161.074-.323.148-.487.216a7.4,7.4,0,0,1-.731.25,5.207,5.207,0,0,1-.522.107c-.145.017-.292.027-.438.031a6.844,6.844,0,0,1-.761-.05,8.655,8.655,0,0,1-1-.178,7.452,7.452,0,0,1-.718-.23c-.141-.058-.277-.125-.412-.2a9.6,9.6,0,0,1-.9-.588c-.11-.087-.213-.179-.314-.275a8.6,8.6,0,0,1-.6-.691,11.7,11.7,0,0,1-.706-1.037c-.326-.576-.608-1.173-.918-1.758-.077-.145-.154-.289-.231-.434a.681.681,0,0,0-.084-.271,1.459,1.459,0,0,0-.264-.338c-.1-.1-.215-.186-.317-.283-.163-.164-.337-.319-.5-.48a4.517,4.517,0,0,1-.621-.8,3.741,3.741,0,0,1-.181-.363c-.023-.061-.044-.122-.061-.185a4.2,4.2,0,0,1-.091-.426c-.015-.143-.021-.285-.023-.428a4.463,4.463,0,0,1,.027-.455c.021-.148.051-.294.086-.439a6.569,6.569,0,0,1,.259-.8q.124-.306.254-.612c.11-.259.23-.514.329-.778a6.1,6.1,0,0,0,.384-1.723,6.476,6.476,0,0,0-.206-2.334,3.77,3.77,0,0,0-.292-.713l.247.1h0a7.237,7.237,0,0,1,.749.35,4.435,4.435,0,0,1,.431.286,5.479,5.479,0,0,1,.429.366,3.781,3.781,0,0,1,.266.314,6.463,6.463,0,0,1,.4.592,7.013,7.013,0,0,1,.372.741c.05.132.094.264.131.4.021.081.04.163.053.246a.715.715,0,0,0,.19.5.418.418,0,0,0,.455.058.692.692,0,0,0,.217-.206c.039-.049.079-.1.117-.147.065-.084.116-.174.174-.263a9.026,9.026,0,0,1,.605-.708c.062-.061.126-.121.194-.176,0,.059.008.118.009.179,0,.077,0,.153-.013.23-.014.1-.024.2-.034.306-.022.192-.031.384-.044.576s-.031.365-.053.547a8.08,8.08,0,0,1-.157.819,7.756,7.756,0,0,1-.273.877q-.2.494-.451.968c-.149.285-.285.575-.439.856l0,.006,0,0,0,0,0,.006c-.126.218-.255.431-.4.637a1.84,1.84,0,0,0-.274.472.421.421,0,0,0,.093.448.364.364,0,0,0,.3.089c.118-.013.232-.041.349-.06.084-.011.166-.011.25-.025l.224-.037c.136-.023.269-.051.406-.07a1.972,1.972,0,0,1,.23-.017h.028c-.021.048-.043.095-.068.141-.055.091-.121.173-.167.269s-.088.177-.136.264a3.6,3.6,0,0,1-.215.329,7.932,7.932,0,0,1-.6.7,4.448,4.448,0,0,1-.389.361,5.3,5.3,0,0,1-.491.323l0,0-.034.02c-.054.031-.108.061-.164.087a.377.377,0,0,0-.2.149.181.181,0,0,0,.043.211c0,.011,0,.02.007.029a1.251,1.251,0,0,0,.166.312,3.445,3.445,0,0,0,.366.458,4.781,4.781,0,0,0,1.158.91,6.707,6.707,0,0,0,2.465.714l.029,0a8.891,8.891,0,0,0,1.05.075c.066,0,.132,0,.2,0a5.719,5.719,0,0,0,1.324-.19,9.434,9.434,0,0,0,1.312-.475c.179-.08.355-.168.528-.261a6.79,6.79,0,0,0,.606-.349,15.732,15.732,0,0,0,2.09-1.774c.576-.556,1.135-1.13,1.7-1.7.207-.208.426-.4.647-.6s.47-.4.713-.593a8.462,8.462,0,0,1,.8-.523,5.412,5.412,0,0,1,.555-.271,4.982,4.982,0,0,1,.475-.165,6.052,6.052,0,0,1,.644-.139c.109-.013.219-.022.33-.032a7.4,7.4,0,0,0,.823,1.643,6.26,6.26,0,0,0,1.987,1.915,4.208,4.208,0,0,0,1.493.531,9.4,9.4,0,0,0,1.342.1c.451,0,.9-.018,1.347-.051.216-.016.431-.036.644-.056.2-.018.4-.043.6-.048.087,0,.176.009.262.019.14.02.281.044.418.077.059.018.118.038.176.059s.086.039.128.061.068.043.1.066.046.038.068.057.047.051.07.078c.059.081.113.166.164.253.061.11.118.222.169.338.035.091.066.182.092.276a8.48,8.48,0,0,1,.168.856c.034.259.047.518.068.777.023.289.037.577.039.867v-.08c0,.311,0,.623.008.935v.006c0,.025,0,.05,0,.076,0,0,0-.009,0-.013,0,.554.017,1.107.053,1.658a7.171,7.171,0,0,0,.292,1.822,5.053,5.053,0,0,0,.964,1.714,3.788,3.788,0,0,0,1.716,1.145,3.3,3.3,0,0,0,.906.119c.062,0,.124,0,.186,0a3.124,3.124,0,0,0,1.079-.234,6.412,6.412,0,0,0,1.521-.956,9.4,9.4,0,0,0,1.357-1.4c.357-.443.693-.9,1.011-1.375.072-.107.144-.214.215-.323.025.06.051.12.077.179a10.1,10.1,0,0,0,.536,1.068c.039.067.08.133.119.2.121.208.239.42.369.622s.266.394.4.587q.263.372.536.738a15.873,15.873,0,0,0,1.111,1.441c.412.478.838.944,1.287,1.388s.9.853,1.364,1.26c.3.263.609.516.924.761a30.588,30.588,0,0,0,2.886,2.3,32.071,32.071,0,0,0,2.947,1.85c.982.54,1.993,1.021,3.021,1.466a28.443,28.443,0,0,0,3.178,1.168c.5.149,1.013.276,1.526.385.537.113,1.078.22,1.622.3a23.91,23.91,0,0,0,3.271.3l.267,0a21.415,21.415,0,0,0,2.987-.211l.042-.007c-.353.524-.707,1.047-1.052,1.577l-.015.023-.018.028A12.776,12.776,0,0,0,146.673,231.921Zm9.922,6.158.072.015c.014.048.027.1.038.145.025.126.046.253.061.379,0,.065.006.13,0,.195,0,.01,0,.02,0,.03-.009.041-.02.082-.031.122s-.032.089-.05.133l-.012.021c-.018.025-.037.05-.057.074-.067.073-.136.142-.209.209s-.136.112-.208.164c-.3.2-.627.362-.947.528l-.029.015a16.853,16.853,0,0,1-1.681.713l0-.009a4.6,4.6,0,0,1,.14-.539,3.5,3.5,0,0,1,.165-.417,4.051,4.051,0,0,1,.252-.454,3.958,3.958,0,0,1,.249-.33,5.111,5.111,0,0,1,.407-.423c.084-.073.173-.142.263-.207a3.393,3.393,0,0,1,.312-.184c.06-.029.122-.056.184-.079l.006,0c.055-.018.11-.035.166-.049a3.878,3.878,0,0,1,.415-.064c.1-.006.2-.009.3-.007h.009A1.43,1.43,0,0,1,156.6,238.079Zm-.125-.616a1.656,1.656,0,0,0-.729-.043,3.152,3.152,0,0,0-.871.314,3.1,3.1,0,0,0-.5.322,3.231,3.231,0,0,0-.43.395,4.261,4.261,0,0,0-.388.528,4.867,4.867,0,0,0-.277.484c-.045.093-.09.187-.128.284s-.073.205-.105.309c-.01.032-.02.064-.028.1a2.922,2.922,0,0,0-.85-.685,2.679,2.679,0,0,0-.6-.242,2.436,2.436,0,0,0-.683-.071,2.408,2.408,0,0,0-.741.147,2.37,2.37,0,0,0-.354.156,2.635,2.635,0,0,0-.315.213,2.664,2.664,0,0,0-.541.537,2.509,2.509,0,0,0-.332.611,1.7,1.7,0,0,0-.087.285c-.014.08-.021.16-.029.24s-.032.3.09.3h.006c.076,0,.1-.082.118-.141s.051-.142.083-.211h0v0c.075-.147.153-.293.242-.432l0,0,0,0,0,0h0a2.764,2.764,0,0,1,.193-.256h0l.018-.021,0,0c.04-.046.084-.089.129-.131a2.5,2.5,0,0,1,.249-.194c.051-.034.1-.065.156-.094a2.082,2.082,0,0,1,.225-.094c.092-.032.187-.061.282-.084s.177-.032.266-.041h.018a2.983,2.983,0,0,1,.328,0,2.228,2.228,0,0,1,.235.025c.076.015.152.034.225.055a2.9,2.9,0,0,1,.276.1,2.279,2.279,0,0,1,.217.123c.057.038.11.078.163.121a3.344,3.344,0,0,1,.3.288c.049.056.093.114.136.174s.1.152.139.23l.048.09q-.5.147-1,.259a16.611,16.611,0,0,1-1.864.266l-.027,0h-.011l-.035,0-.026,0c-.44.037-.88.072-1.321.093-.066,0-.132.006-.2.008,0-.11-.007-.22-.012-.331-.024-.482-.06-.966-.115-1.445s-.154-.963-.223-1.445c-.032-.226-.064-.452-.1-.677s-.071-.428-.093-.643c-.027-.324-.04-.647-.049-.971-.008-.3-.015-.6-.006-.9.011-.2.027-.405.058-.606a6.092,6.092,0,0,1,.164-.636,17.2,17.2,0,0,1,.73-1.946,15.782,15.782,0,0,1,.942-1.665c.713-1.089,1.469-2.149,2.179-3.241,0,0,.006-.008.008-.013l.012-.019q.355-.093.706-.2A27.161,27.161,0,0,0,155.167,226a7.676,7.676,0,0,0-.127.871,22.329,22.329,0,0,0-.056,3.442c.037.58.1,1.154.19,1.728.087.539.19,1.075.3,1.609.2.968.42,1.933.7,2.881C156.27,236.846,156.375,237.153,156.47,237.463ZM202.91,206.7c.123.461.219.928.311,1.4l0,.012a.1.1,0,0,0,0,.015c0,.021.008.042.012.063.056.3.108.6.149.9s.076.622.115.932c.08.63.145,1.258.185,1.891,0,.009,0,.019,0,.028v0a26.32,26.32,0,0,1-.033,3.216c0,.039-.006.079-.009.118,0,.006,0,.011,0,.017v0a26.188,26.188,0,0,1-.438,3.155,23.181,23.181,0,0,1-.68,2.43h0l0,.006h0l0,0h0l-.006.016,0,0v0l-.009.026h0l-.027.075,0,0c0,.009-.006.019-.011.029a18.5,18.5,0,0,1-.833,1.977,15.576,15.576,0,0,1-.851,1.435,12.92,12.92,0,0,1-.811,1.055c-.211.23-.428.454-.661.661a.035.035,0,0,1-.006.006l-.028.024-.04.034-.038.033c-.316.264-.644.51-.985.743a24.2,24.2,0,0,1-2.412,1.368,19.893,19.893,0,0,1-2.146.9,22.3,22.3,0,0,1-2.374.617,23.867,23.867,0,0,1-2.809.361,30.765,30.765,0,0,1-3.734-.027,18.346,18.346,0,0,1-2.135-.306,19.41,19.41,0,0,1-2.051-.585,22.389,22.389,0,0,1-2.386-1.024,19.467,19.467,0,0,1-1.843-1.075,14.493,14.493,0,0,1-1.3-1.008,18.06,18.06,0,0,1-1.469-1.468,23.011,23.011,0,0,1-1.593-2.088,19.751,19.751,0,0,1-1.22-2.111,31.218,31.218,0,0,1-1.471-3.68q-.178-.523-.337-1.053c-.151-.505-.275-1.016-.382-1.531-.091-.441-.186-.88-.275-1.322-.2-.979-.4-1.959-.609-2.935-.2-.921-.4-1.845-.649-2.754-.123-.452-.256-.9-.421-1.338s-.348-.849-.55-1.26l-.027-.055a3.73,3.73,0,0,0-.539-.828l-.13-.149,0,0h0l0-.005a1.448,1.448,0,0,0-.129-.125.21.21,0,0,0-.175-.069c-.11.024-.11.214-.106.3.007.148.024.3.043.442a8.531,8.531,0,0,0,.238,1.014c.115.452.233.9.346,1.354.049.2.1.394.144.591a1.676,1.676,0,0,0-.253.03c-.132.026-.261.053-.39.089-.153.041-.3.1-.447.151a4.9,4.9,0,0,0-1.373.79,4.391,4.391,0,0,0-.568.537,2.076,2.076,0,0,0-.4.745l-.034-.024c-.074-.059-.144-.123-.211-.189l0,0,0,0a5.527,5.527,0,0,1-.419-.485h0a1.466,1.466,0,0,1-.1-.144,1.779,1.779,0,0,1-.089-.172l0-.011,0-.011h0v0a3.144,3.144,0,0,1-.11-.339,2,2,0,0,1-.041-.216v.006c-.009-.076-.023-.152-.034-.228a.2.2,0,0,0-.023-.08.087.087,0,0,0-.058-.046c-.1-.031-.166.072-.208.146a.6.6,0,0,0-.076.282,1.943,1.943,0,0,0,.209.868,2.958,2.958,0,0,0,.293.544,3.636,3.636,0,0,0,.412.463c.063.061.127.121.192.181a2,2,0,0,0,.175.139,3.313,3.313,0,0,0-.011.427c.008.217.045.437.067.653q.032.3.07.6a22.112,22.112,0,0,1,.247,2.6c0,.229,0,.457-.019.686-.017.2-.041.392-.066.588-.013.088-.029.175-.05.261-.056.192-.118.384-.171.577-.035.13-.07.259-.095.39-.015.078-.029.156-.048.234-.055.19-.121.377-.183.564a1.608,1.608,0,0,0-.079,1.073,1.424,1.424,0,0,0,1.083.9,1.483,1.483,0,0,0,.255.022,1.377,1.377,0,0,0,.474-.083,3.733,3.733,0,0,0,.473-.231,6.506,6.506,0,0,0,1.965-1.69,11.136,11.136,0,0,0,.751-1.1,5.99,5.99,0,0,0,.328-.62q.059-.135.11-.272c.127.619.265,1.236.428,1.848a22.371,22.371,0,0,0,.8,2.418c-.161-.011-.32-.014-.479-.014a15.666,15.666,0,0,0-3.237.4,26.422,26.422,0,0,0-3.046.839c-.471.163-.936.344-1.4.521s-.923.358-1.379.549c-1.007.426-1.992.9-2.986,1.355s-2.01.868-3.043,1.233l-.123.042a23.277,23.277,0,0,1-2.645.72,22.12,22.12,0,0,1-2.582.367,20.252,20.252,0,0,1-2.249.043,27.308,27.308,0,0,1-3.058-.351,24.732,24.732,0,0,1-2.743-.658,33.665,33.665,0,0,1-3.772-1.509,31.509,31.509,0,0,1-3.326-1.836,32.262,32.262,0,0,1-3.237-2.4,34.425,34.425,0,0,1-2.952-2.859l0,0a25.9,25.9,0,0,1-1.971-2.537c-.171-.254-.34-.512-.493-.777-.126-.219-.244-.441-.357-.664a.13.13,0,0,0-.008-.018.151.151,0,0,1-.008-.017,12.763,12.763,0,0,1-.575-1.341,9.275,9.275,0,0,1-.291-1.04,9.019,9.019,0,0,1-.146-1.025c0-.077-.01-.155-.018-.231.435-.881.839-1.777,1.262-2.663.516-1.083,1.044-2.165,1.627-3.213.249-.439.518-.868.81-1.282.246-.349.486-.705.74-1.05a19.639,19.639,0,0,1,1.4-1.585,17.975,17.975,0,0,1,1.633-1.4,21.567,21.567,0,0,1,2.1-1.345c.859-.49,1.763-.9,2.651-1.336.437-.215.88-.418,1.317-.631.154-.075.312-.146.461-.233a.719.719,0,0,0,.161-.109.067.067,0,0,0,.037-.062.067.067,0,0,0-.068-.059.537.537,0,0,0-.2.019,4.882,4.882,0,0,0-.48.121c-.457.131-.912.274-1.367.414-.577.177-1.14.383-1.7.614-.526.217-1.05.44-1.561.692-.563.276-1.118.568-1.656.889-.5.3-.981.632-1.452.978a17.245,17.245,0,0,0-1.564,1.268,15.363,15.363,0,0,0-1.3,1.385,19.847,19.847,0,0,0-1.22,1.624c-.392.576-.742,1.175-1.085,1.781-.565,1-1.078,2.026-1.577,3.062-.488,1.01-.974,2.025-1.521,3.006a23.319,23.319,0,0,1-1.584,2.4,12.429,12.429,0,0,1-.937,1.1,7.082,7.082,0,0,1-.6.526,6.6,6.6,0,0,1-.605.4c-.113.063-.229.123-.347.175l-.092.032c-.046.01-.092.019-.139.027-.083.009-.167.015-.25.018s-.166-.006-.249-.014c-.049-.008-.1-.017-.147-.028s-.1-.032-.144-.049-.067-.031-.1-.048c-.085-.052-.168-.106-.248-.163s-.172-.141-.253-.217-.13-.142-.19-.218c-.094-.13-.183-.262-.265-.4-.112-.209-.207-.427-.3-.646a9.964,9.964,0,0,1-.37-1.055,17.084,17.084,0,0,1-.327-1.89c0,.02,0,.04.008.061-.052-.4-.1-.8-.156-1.193l0-.016c0-.02-.006-.04-.008-.06-.047-.374-.084-.75-.158-1.119a7.031,7.031,0,0,0-.261-1.081,6.575,6.575,0,0,0-.4-.914,3.094,3.094,0,0,0-.3-.441,2.172,2.172,0,0,0-.361-.342,4.066,4.066,0,0,0-.464-.3,2.311,2.311,0,0,0-.576-.216,6.354,6.354,0,0,0-1.064-.174c-.7-.054-1.407-.017-2.108-.093a6.854,6.854,0,0,1-.729-.129,4.086,4.086,0,0,1-.389-.127c-.193-.082-.379-.174-.562-.274-.143-.085-.279-.179-.413-.277a6.8,6.8,0,0,1-.542-.468,6.328,6.328,0,0,1-.44-.5,6.749,6.749,0,0,1-.4-.6,7.238,7.238,0,0,1-.332-.687,8.111,8.111,0,0,1-.289-.848,7.4,7.4,0,0,1-.161-.819c-.036-.284-.061-.569-.095-.853-.041-.351-.094-.7-.16-1.047-.061-.318-.124-.64-.2-.957a5.435,5.435,0,0,0-.373-1.149,4.88,4.88,0,0,0-1.009-1.355,5.612,5.612,0,0,0-.609-.535,6.643,6.643,0,0,0-.7-.432c-.109-.059-.216-.12-.33-.17a3.289,3.289,0,0,0-.494-.163c-.291-.075-.59-.118-.886-.165-.6-.095-1.2-.155-1.8-.227-.325-.044-.647-.1-.971-.152-.359-.056-.721-.095-1.081-.132-.618-.064-1.24-.1-1.857-.175a12.022,12.022,0,0,1-1.338-.24,8.486,8.486,0,0,1-.881-.286,6.21,6.21,0,0,1-.637-.31c-.141-.084-.28-.173-.414-.268a7.015,7.015,0,0,1-.543-.481c-.107-.108-.21-.218-.306-.335-.069-.095-.133-.193-.194-.294q-.134-.247-.248-.5c-.058-.15-.109-.3-.154-.458s-.072-.318-.1-.48c-.034-.3-.057-.593-.064-.891q.005-.2.027-.406c.029-.215.063-.428.11-.638.044-.154.1-.3.153-.452.1-.238.21-.472.332-.7a14.031,14.031,0,0,1,.848-1.276,16.564,16.564,0,0,1,1.295-1.5c.275-.271.554-.537.84-.8s.569-.487.865-.717c.318-.239.64-.474.968-.7.978-.671,2-1.275,3.028-1.865l.043-.024c.5-.287,1-.571,1.5-.857l.105-.061a24.6,24.6,0,0,0,4.5-3.279,26.372,26.372,0,0,0,2.52-2.734,13.159,13.159,0,0,0,1.121-1.559c.322-.548.606-1.115.872-1.693.493-1.072.931-2.168,1.354-3.27.439-1.149.851-2.308,1.305-3.452a22.237,22.237,0,0,1,1.132-2.408,7.7,7.7,0,0,1,.43-.689,9.223,9.223,0,0,1,.631-.725q.252-.242.525-.457c.139-.1.28-.2.426-.291.18-.094.363-.18.548-.262s.369-.135.558-.19.38-.079.573-.107a7.7,7.7,0,0,1,.8-.058c.251,0,.5.017.748.043a10.933,10.933,0,0,1,2.719.705c.271.116.532.246.79.388a16.176,16.176,0,0,1,1.557,1.027c.75.577,1.482,1.175,2.217,1.771s1.491,1.212,2.286,1.752c.559.378,1.138.723,1.731,1.046s1.2.559,1.806.814q1.831.771,3.706,1.434c.589.209,1.184.4,1.784.576s1.223.356,1.845.493q.869.192,1.748.336c.318.052.638.1.958.142.157.021.314.04.472.06l.123.015.462.055q.793.093,1.59.15c1.172.084,2.348.149,3.525.144h.095c.405,0,.812-.008,1.216-.044s.8-.068,1.195-.137c.331-.057.662-.109.989-.185a2.989,2.989,0,0,0,.326-.085c.1-.037.2-.075.307-.106.148-.045.3-.09.447-.132.187-.05.375-.1.563-.145a.319.319,0,0,0-.044-.631l-.121-.013-.044,0-.246-.03h-.009c-.248-.031-.5-.067-.741-.119-.093-.02-.185-.044-.279-.063s-.17-.021-.255-.03c-.122-.015-.247-.024-.369-.035-.26-.023-.522-.044-.783-.055s-.547-.015-.819-.026c-.57-.024-1.142-.018-1.712-.023l-.28,0c1.061-.311,2.1-.695,3.145-1.055l.067-.023.053-.019-.033.012a37.819,37.819,0,0,1,4.488-1.236l.146-.029c.777-.147,1.557-.283,2.341-.382s1.55-.177,2.327-.231a41.4,41.4,0,0,1,5.181.037,27.9,27.9,0,0,1,3.153.425,33.971,33.971,0,0,1,4.118,1.109l.006,0a26.774,26.774,0,0,1,2.715,1.119,27.548,27.548,0,0,1,2.77,1.594,17.556,17.556,0,0,1,1.563,1.172l0,0,.02.018.127.11c.347.31.686.628,1.011.962.306.314.6.637.9.961.367.413.725.832,1.066,1.264s.659.868.969,1.316.61.92.89,1.4.54.958.79,1.449c.375.757.721,1.526,1.03,2.312s.592,1.575.868,2.37c.087.256.174.511.257.769.685,2.086,1.311,4.189,1.932,6.3.277.94.554,1.88.871,2.807.139.405.282.809.442,1.207a9.465,9.465,0,0,0,.4.873q.084.224.178.444c.12.278.245.556.381.828v0l.018.035c.081.16.164.32.254.474s.195.315.3.467c.087.128.178.256.275.378a2.764,2.764,0,0,0-.2.373,2.067,2.067,0,0,0-.144,1.069,2.258,2.258,0,0,0,.308.931,2.438,2.438,0,0,0,.733.738,2.559,2.559,0,0,0,.389.223c.1.045.2.09.3.133.183.079.365.161.548.239l.091.039c.114.18.25.346.378.518a6.487,6.487,0,0,1,.383.615c.081.154.156.312.221.473s.107.323.16.485q.091.276.164.556a15.017,15.017,0,0,1,.306,1.724,9.591,9.591,0,0,1,.048,1.149,10.478,10.478,0,0,1-.109,1.308,14.508,14.508,0,0,1-.362,1.658c-.092.29-.192.578-.3.864s-.213.588-.339.873c-.115.242-.239.478-.365.712s-.258.492-.392.736c-.23.416-.452.838-.7,1.243a.083.083,0,0,0-.009.014l-.053-.01c-.156-.037-.307-.084-.458-.136-.327-.134-.648-.276-.965-.433a9.346,9.346,0,0,1-.877-.51c-.194-.137-.381-.286-.561-.442a8.038,8.038,0,0,1-.592-.591h0l-.01-.011,0,0,0,0,0,0-.02-.022h0l0,0a10.068,10.068,0,0,1-.719-.9c-.139-.214-.268-.436-.388-.661.247.058.5.1.747.141h0l.011,0,.036.006a8.019,8.019,0,0,0,1.2.086c.128,0,.257,0,.385-.008a10.731,10.731,0,0,0,1.272-.124,5.072,5.072,0,0,0,1.4-.4,4.512,4.512,0,0,0,.615-.348,2.315,2.315,0,0,0,.571-.516,1.5,1.5,0,0,0,.274-.589,1.337,1.337,0,0,0-.026-.633,1.4,1.4,0,0,0-.687-.8,6.178,6.178,0,0,0-.847-.42c-.173-.069-.349-.129-.524-.191-.2-.07-.4-.149-.6-.226-.311-.122-.621-.244-.926-.38l-.084-.039-.092-.042c-.343-.156-.687-.307-1.03-.461l.013.006-.015-.006-.01,0-.006,0-.016-.008a17.9,17.9,0,0,1-1.875-1.018q-.645-.41-1.263-.857c-.131-.094-.261-.193-.392-.288-.045-.264-.09-.528-.134-.793-.052-.321-.1-.643-.163-.963a5.91,5.91,0,0,0-.173-.669,5.319,5.319,0,0,0-.2-.56,3.476,3.476,0,0,0-.5-.877.177.177,0,0,0-.309.152c.072.276.172.543.229.822.03.164.056.329.079.493.028.194.04.389.06.583.081.766.139,1.534.223,2.3.049.447.1.891.167,1.336.033.224.064.447.1.67.04.25.093.5.143.744.089.442.18.885.288,1.324.032.133.066.265.1.4a.3.3,0,0,0,.041.31.783.783,0,0,0,.066.075q.069.243.144.485a11.621,11.621,0,0,0,1.149,2.639c.113.187.229.371.356.549s.288.365.44.54a11.026,11.026,0,0,0,1.109,1.127,7.262,7.262,0,0,0,.624.508c.188.128.382.246.579.361s.394.225.591.336c.13.074.262.148.4.211a3.165,3.165,0,0,0,.379.135,4.454,4.454,0,0,0,1.283.212c.048,0,.1,0,.143,0,.252-.011.508-.022.757-.057a4.836,4.836,0,0,0,.777-.179,5.782,5.782,0,0,0,1.365-.577A9.5,9.5,0,0,0,195,210.6h0a6.358,6.358,0,0,0,.872-.9,7.32,7.32,0,0,0,.71-1.173,6.841,6.841,0,0,0,.469-1.212,8.245,8.245,0,0,0,.255-1.375c.024-.234.044-.468.066-.7a7.731,7.731,0,0,0,.051-.774,10.876,10.876,0,0,0-.077-1.362,9.924,9.924,0,0,0-.258-1.316,9.134,9.134,0,0,0-.444-1.254,8.717,8.717,0,0,0-.717-1.339,6.241,6.241,0,0,0-2.318-2.063,8.656,8.656,0,0,0-1.469-.6c-.411-.126-.831-.226-1.238-.366l.049.018-.061-.022-.03-.011.023.007-.138-.049-.043-.015h0l-.018-.007.018.007h0l-.019-.007h0l-.058-.023-.075-.047c-.036-.026-.07-.053-.1-.08-.047-.044-.092-.09-.135-.138-.023-.028-.045-.056-.065-.085s-.041-.068-.06-.1-.033-.077-.047-.116c-.022-.071-.041-.141-.057-.213-.006-.038-.011-.076-.015-.115,0-.076,0-.153,0-.229,0-.04.009-.078.015-.118s.019-.066.029-.1c.021-.056.044-.112.069-.167.011-.018.022-.037.033-.055.038-.052.078-.1.119-.152.188-.2.394-.395.6-.585a7.029,7.029,0,0,0,1.023-1.1,11.653,11.653,0,0,1-.027,1.3c-.01.13-.025.259-.047.389a3.225,3.225,0,0,0-.081.623.174.174,0,0,0,.278.139,1.24,1.24,0,0,0,.34-.5c.05-.118.09-.238.13-.36a4.5,4.5,0,0,0,.177-.783,10.749,10.749,0,0,0,.093-1.409c0-.276,0-.55-.011-.826-.016-.318-.044-.635-.062-.953v-.008a13.515,13.515,0,0,1,0-1.592c.011-.113.027-.225.048-.337.014-.055.029-.11.046-.164s.036-.086.056-.127.05-.089.078-.132.06-.081.092-.12c.024-.024.047-.049.072-.072l.022-.017.031-.018h0l.034,0h.064l.049.006,0,0,.039.031c.036.034.07.069.1.1a2.541,2.541,0,0,1,.162.213c.057.089.11.18.159.274a10.65,10.65,0,0,1,.462,1.172c.037.114.072.23.107.344s.081.254.112.383c.04.242.072.486.118.727.034.178.073.355.115.531q.044.309.1.615c.041.222.091.442.144.661.075.309.157.618.253.921.087.271.182.54.283.806l.007.018,0,.014v0c.12.315.26.622.4.928s.28.6.434.884l0,0,0,0,0,.006v0l0,0,0,.007c.136.255.277.506.426.753.14.231.292.455.449.674l.086.121,0,.007c.256.36.523.712.8,1.058s.554.687.825,1.035c.306.39.625.771.933,1.16.3.372.584.749.863,1.134l0,0,.011.016a.008.008,0,0,0,0,0c.249.354.5.71.729,1.075s.461.764.673,1.156v0l0,0,.013.024,0,0a.182.182,0,0,1,.009.017l0,.009,0,0h0l0,.005h0c.041.078.082.156.121.236.062.17.121.342.181.513C202.642,205.8,202.788,206.248,202.91,206.7Zm-38.973,6.408q-.075-.71-.161-1.418c-.025-.2-.05-.4-.075-.6a6.036,6.036,0,0,1-.057-.606,4.169,4.169,0,0,1,.024-.416c.008-.056.018-.111.031-.166.032-.1.072-.2.1-.3s.069-.223.111-.332c.016-.036.034-.073.053-.108.04-.063.084-.124.13-.184s.105-.127.163-.188.131-.115.2-.17a6.491,6.491,0,0,1,.554-.365c.174-.1.352-.189.525-.289l.3-.177c.011.045.02.091.029.136.092.452.189.9.279,1.354q.25,1.3.447,2.605c.072.478.147.956.218,1.435.028.194.057.387.086.582-.017.04-.034.079-.05.119a7.32,7.32,0,0,1-.363.721c-.178.3-.385.575-.586.858-.24.338-.478.678-.729,1.008-.157.2-.322.4-.485.6s-.328.4-.509.583c-.06.058-.121.113-.185.166s-.119.082-.181.12-.116.061-.176.088l-.107.039-.046.009-.031,0-.05,0-.012-.016c0-.032,0-.065.006-.1.018-.105.043-.21.07-.313.044-.155.106-.3.161-.45a4.212,4.212,0,0,0,.159-.591c.04-.189.062-.38.1-.57.044-.234.087-.466.109-.7a8.93,8.93,0,0,0,.048-1.127C164.03,213.924,163.98,213.518,163.937,213.109Zm30.454-10.227a9.372,9.372,0,0,0-.168-1.385,8.935,8.935,0,0,0-.392-1.4c-.083-.218-.169-.437-.271-.647-.054-.111-.113-.219-.175-.325q.113.09.222.185c.152.139.3.287.434.441.1.113.189.23.274.352a8.8,8.8,0,0,1,.473.828,9.139,9.139,0,0,1,.362.869c0,.009.006.017.009.026a8.631,8.631,0,0,1,.25.925,14.245,14.245,0,0,1,.212,1.654,9.068,9.068,0,0,1-.027,1.081,10.977,10.977,0,0,1-.145,1.193c-.047.2-.106.395-.17.588a5.356,5.356,0,0,1-.228.536c-.086.162-.177.318-.278.471a8.451,8.451,0,0,1-.559.706,11.68,11.68,0,0,1-.874.891,5.565,5.565,0,0,1-.457.352c-.12.077-.242.147-.368.213a6.1,6.1,0,0,1-.572.236l-.106.033a7.272,7.272,0,0,0,.669-.9,14.912,14.912,0,0,0,.959-1.861,10.506,10.506,0,0,0,.619-1.936A11.5,11.5,0,0,0,194.391,202.882Zm-9.148,2.606h0l-.121-.053,0,0h-.006c-.137-.063-.274-.127-.406-.2-.015-.04-.029-.079-.043-.118l-.032-.1a15.356,15.356,0,0,1-.488-1.91l-.014-.078c-.124-.668-.221-1.34-.323-2.012a9.593,9.593,0,0,0,1.377,1.032,16.674,16.674,0,0,0,2.223,1.194c.341.152.692.276,1.039.417s.705.284,1.053.438a9.248,9.248,0,0,1,1,.511c.052.035.1.071.155.11.015.012.029.025.042.038s.024.029.036.044l.026.041-.049.067-.055.058c-.028.025-.058.049-.088.071s-.089.057-.135.084c-.12.062-.242.12-.368.171a7.939,7.939,0,0,1-.85.268,8.8,8.8,0,0,1-.94.161,8.69,8.69,0,0,1-.966.037c-.194-.007-.389-.023-.582-.04s-.361-.031-.54-.057-.378-.067-.565-.108A2.48,2.48,0,0,0,185.244,205.488Zm21.279-8.972c-.012.063-.025.125-.041.187s-.043.125-.069.188-.073.144-.114.215c-.037.054-.075.1-.114.156-.056.064-.113.126-.173.185-.161.142-.327.28-.5.407-.065.044-.132.084-.2.122-.3.154-.617.272-.923.413a7.262,7.262,0,0,0-1.149.656l-.009.007h0l-.006,0a.013.013,0,0,0-.006,0,5.934,5.934,0,0,0-.662.558,4.8,4.8,0,0,0-.555.669c-.082.117-.167.237-.244.361-.023-.029-.047-.058-.071-.087-.328-.387-.657-.776-1-1.15-.276-.3-.552-.6-.85-.879q-.535-.5-1.054-1.024c-.262-.265-.528-.528-.776-.807a8.145,8.145,0,0,1-.614-.776,5.7,5.7,0,0,1-.312-.535,7.908,7.908,0,0,1-.373-.936,8.25,8.25,0,0,1-.233-.824c-.026-.139-.047-.28-.06-.42-.011-.235-.021-.472-.016-.706s.011-.45,0-.675a9.847,9.847,0,0,0-.118-1.324q-.058-.323-.141-.64c-.057-.216-.1-.435-.16-.649a7.59,7.59,0,0,0-.4-1.162,5.022,5.022,0,0,0-.542-.933,2.562,2.562,0,0,0-.39-.4,1.87,1.87,0,0,0-.352-.242,2.042,2.042,0,0,0-.478-.183,1.921,1.921,0,0,0-.611-.025,1.573,1.573,0,0,0-1.033.594,3.526,3.526,0,0,0-.537.83,2.81,2.81,0,0,0-.228,1.058,5.749,5.749,0,0,0,.072.975c.043.315.125.623.188.935.04.205.085.41.126.616.015.083.03.167.043.25a.242.242,0,0,1-.009.026,1.843,1.843,0,0,1-.074.179c-.02.037-.041.073-.063.108a2.1,2.1,0,0,1-.132.164c-.1.114-.213.223-.328.328l-.076.066-.033.028a2.7,2.7,0,0,1-.239.19c-.077.05-.155.1-.234.149s-.168.1-.254.153q-.094-.166-.182-.335c-.127-.257-.247-.519-.365-.781s-.247-.55-.371-.826q-.282-.631-.537-1.273c-.174-.435-.351-.868-.505-1.311l0-.008a.308.308,0,0,1-.01-.03h0q-.111-.331-.22-.663c-.383-1.227-.727-2.466-1.1-3.7-.657-2.181-1.331-4.355-2.109-6.5a31.583,31.583,0,0,0-1.293-3.091c-.266-.543-.539-1.084-.839-1.609-.285-.5-.59-.984-.906-1.464a24.641,24.641,0,0,0-2.058-2.721,26.068,26.068,0,0,0-2.423-2.49l-.027-.024-.056-.048a17.539,17.539,0,0,0-1.766-1.347c-.461-.308-.931-.6-1.41-.885q.2-.062.406-.139a9.759,9.759,0,0,0,1.572-.807c.582-.362,1.143-.761,1.743-1.092q.362-.188.741-.34c.206-.075.413-.143.625-.2q.351-.08.707-.125a7.01,7.01,0,0,1,.718-.031c.191.008.382.023.571.048.119.023.236.049.353.081.09.029.178.063.266.1s.191.1.285.152.182.126.27.195a11.966,11.966,0,0,1,.942.933l.015.017.013.014,0,0a22.246,22.246,0,0,1,1.556,1.984c.142.2.283.407.421.614.576.868,1.124,1.756,1.666,2.647.559.919,1.1,1.848,1.61,2.794l.008.015c.611,1.148,1.183,2.317,1.748,3.489.464.964.93,1.924,1.424,2.873q.754,1.45,1.494,2.906a34.49,34.49,0,0,0,3.3,5.586,18.462,18.462,0,0,0,2.177,2.35c.776.706,1.58,1.388,2.389,2.057l.009.007h0l.011.01c.9.744,1.833,1.444,2.732,2.186a13.719,13.719,0,0,1,1.229,1.158c.175.195.34.395.494.605.122.181.237.364.342.556s.192.4.273.6c.044.129.085.259.121.39.034.147.062.292.082.442s.016.27.015.4C206.538,196.378,206.532,196.447,206.523,196.516Z" transform="translate(-79.324 -153.928)"/>
          <path id="Path_14" data-name="Path 14" d="M155.006,396.354l.026-.007.017-.007Z" transform="translate(-126.482 -304.977)"/>
          <path id="Path_15" data-name="Path 15" d="M285.11,279.458a2.118,2.118,0,0,0-1.088-.525c-.056-.02-.112-.038-.168-.054a4.125,4.125,0,0,0-1.345-.1,9.135,9.135,0,0,0-1.724.277,6.766,6.766,0,0,0-1.511.573,2.114,2.114,0,0,0-1.073,1.286,1.724,1.724,0,0,0,.008.874,1.617,1.617,0,0,0,.559.866,3.179,3.179,0,0,0,1.693.615,6.431,6.431,0,0,0,.692.036,7.105,7.105,0,0,0,1.257-.114,7.974,7.974,0,0,0,1.513-.409,3.481,3.481,0,0,0,1.119-.661,1.948,1.948,0,0,0,.439-.625,2.032,2.032,0,0,0,.18-.584,1.514,1.514,0,0,0-.142-.845A2.036,2.036,0,0,0,285.11,279.458Z" transform="translate(-203.214 -231.716)"/>
          <path id="Path_16" data-name="Path 16" d="M356.492,292.4c-.1-.316-.221-.631-.352-.936a2.516,2.516,0,0,0-.179-.345c-.035-.058-.077-.112-.113-.17a.087.087,0,0,0-.134-.024.091.091,0,0,0,.01.14l.009.018c.013.032.022.064.032.1.075.268.173.529.252.8.064.226.127.452.18.681.068.292.114.592.159.888a16.927,16.927,0,0,1,.157,1.977c0,.106,0,.211.006.317,0-.014,0-.028,0-.042a16,16,0,0,1-.075,1.858,18.872,18.872,0,0,1-.425,2.253h0c-.145.566-.31,1.127-.485,1.685s-.366,1.107-.582,1.65a18.309,18.309,0,0,1-.9,1.856c-.128.221-.259.44-.4.654-.156.236-.325.463-.5.69a11.557,11.557,0,0,1-.9,1.014,17.794,17.794,0,0,1-1.38,1.217l-.064.05-.067.052-.015.011-.015.011a19.468,19.468,0,0,1-1.675,1.15l-.029.018-.073.044a16.474,16.474,0,0,1-1.678.839,15.321,15.321,0,0,1-1.642.592,19.566,19.566,0,0,1-2.056.44c-.659.1-1.321.173-1.985.224s-1.323.1-1.986.112h-.008a15.849,15.849,0,0,1-1.82-.076h-.01a13.239,13.239,0,0,1-1.581-.284,12.911,12.911,0,0,1-1.556-.53c-.928-.374-1.839-.791-2.735-1.237a.206.206,0,0,0-.225.341,6.581,6.581,0,0,0,1.515,1.072,12.449,12.449,0,0,0,1.448.654c.39.146.782.285,1.18.409.35.108.7.226,1.053.323a11.4,11.4,0,0,0,1.163.248c.374.061.748.118,1.124.161h.006l.021,0h.006l.015,0h.023l.025,0h.039c.415.047.831.085,1.248.106q.321.016.643.016a16.879,16.879,0,0,0,1.867-.112c.434-.047.866-.1,1.3-.171.4-.063.795-.132,1.186-.234a16.219,16.219,0,0,0,2.334-.785c.409-.175.818-.352,1.212-.561a11.169,11.169,0,0,0,1.13-.687c.36-.251.71-.516,1.05-.794.32-.261.638-.527.94-.81a15.84,15.84,0,0,0,1.717-1.835l.009-.012a13.222,13.222,0,0,0,.94-1.441,17.657,17.657,0,0,0,.862-1.756,20.535,20.535,0,0,0,.844-2.326,16.166,16.166,0,0,0,.55-2.443,18.01,18.01,0,0,0-.064-4.794A13.259,13.259,0,0,0,356.492,292.4Z" transform="translate(-236.512 -239.277)"/>
          <path id="Path_17" data-name="Path 17" d="M357.723,266.845a2.054,2.054,0,0,0,.6.092,2.26,2.26,0,0,0,.681-.108,7.3,7.3,0,0,0,.978-.406c.112-.05.229-.086.341-.135a4.248,4.248,0,0,0,.412-.206,3.173,3.173,0,0,0,.486-.348,1.26,1.26,0,0,0,.433-.907,1.065,1.065,0,0,0-.55-.912,1.451,1.451,0,0,0-.6-.189,2.6,2.6,0,0,0-.856.07,3.385,3.385,0,0,0-.512.174,3.829,3.829,0,0,0-.907.322,3.382,3.382,0,0,0-.67.469,2.469,2.469,0,0,0-.257.261,1.493,1.493,0,0,0-.291.443,1.065,1.065,0,0,0,.118.983A1.175,1.175,0,0,0,357.723,266.845Z" transform="translate(-252.312 -222.338)"/>
        </g>
      </g>
    </g>
  </g>
</svg>
