<svg id="instagram_2_" data-name="instagram (2)" xmlns="http://www.w3.org/2000/svg" width="22.738" height="22.738" viewBox="0 0 22.738 22.738">
  <g id="Group_1004" data-name="Group 1004">
    <g id="Group_1003" data-name="Group 1003">
      <path id="Path_902" data-name="Path 902" d="M16.505,0H6.233A6.24,6.24,0,0,0,0,6.233V16.5a6.24,6.24,0,0,0,6.233,6.233H16.505A6.24,6.24,0,0,0,22.738,16.5V6.233A6.24,6.24,0,0,0,16.505,0ZM21.4,16.5a4.9,4.9,0,0,1-4.891,4.89H6.233A4.9,4.9,0,0,1,1.343,16.5V6.233A4.9,4.9,0,0,1,6.233,1.343H16.505A4.9,4.9,0,0,1,21.4,6.233Z" fill="#f6f6f6"/>
    </g>
  </g>
  <g id="Group_1006" data-name="Group 1006" transform="translate(5.133 5.132)">
    <g id="Group_1005" data-name="Group 1005">
      <path id="Path_903" data-name="Path 903" d="M121.806,115.57a6.237,6.237,0,1,0,6.237,6.237A6.244,6.244,0,0,0,121.806,115.57Zm0,11.13a4.894,4.894,0,1,1,4.894-4.894A4.9,4.9,0,0,1,121.806,126.7Z" transform="translate(-115.569 -115.57)" fill="#f6f6f6"/>
    </g>
  </g>
  <g id="Group_1008" data-name="Group 1008" transform="translate(16.084 2.865)">
    <g id="Group_1007" data-name="Group 1007">
      <path id="Path_904" data-name="Path 904" d="M364.06,64.5a1.895,1.895,0,1,0,1.895,1.895A1.9,1.9,0,0,0,364.06,64.5Zm0,2.447a.552.552,0,1,1,.552-.552A.553.553,0,0,1,364.06,66.95Z" transform="translate(-362.165 -64.503)" fill="#f6f6f6"/>
    </g>
  </g>
</svg>
