<svg xmlns="http://www.w3.org/2000/svg" width="22.936" height="22.936" viewBox="0 0 22.936 22.936">
  <path id="Icon_awesome-linkedin" data-name="Icon awesome-linkedin" d="M21.3,2.25H1.633A1.645,1.645,0,0,0,0,3.9V23.532a1.645,1.645,0,0,0,1.633,1.654H21.3a1.65,1.65,0,0,0,1.638-1.654V3.9A1.65,1.65,0,0,0,21.3,2.25ZM6.932,21.909h-3.4V10.963h3.4V21.909Zm-1.7-12.44A1.971,1.971,0,1,1,7.2,7.5,1.972,1.972,0,0,1,5.232,9.468Zm14.442,12.44h-3.4V16.585c0-1.27-.026-2.9-1.766-2.9-1.771,0-2.043,1.382-2.043,2.811v5.416h-3.4V10.963h3.261v1.495h.046a3.581,3.581,0,0,1,3.22-1.766c3.44,0,4.08,2.268,4.08,5.217Z" transform="translate(0 -2.25)" fill="#f6f6f6"/>
</svg>
