<svg xmlns="http://www.w3.org/2000/svg" width="104.125" height="23.2" viewBox="0 0 104.125 23.2">
  <path id="Union_14" data-name="Union 14" d="M92.5,21.679a7.162,7.162,0,0,1-2.428-1.474,7.007,7.007,0,0,1-1.624-2.3,7.254,7.254,0,0,1-.6-2.992,7.257,7.257,0,0,1,.6-2.992,7,7,0,0,1,1.624-2.3A7.18,7.18,0,0,1,92.5,8.151a8.818,8.818,0,0,1,5.968,0A7.2,7.2,0,0,1,100.9,9.626a6.985,6.985,0,0,1,1.623,2.3,7.258,7.258,0,0,1,.6,2.992,7.254,7.254,0,0,1-.6,2.992,6.989,6.989,0,0,1-1.623,2.3,7.176,7.176,0,0,1-2.429,1.474,8.818,8.818,0,0,1-5.968,0ZM93.763,11.1a4.053,4.053,0,0,0-1.3.925,3.9,3.9,0,0,0-.819,1.329,4.521,4.521,0,0,0,0,3.122,3.9,3.9,0,0,0,.819,1.33,4.069,4.069,0,0,0,1.3.925,4.18,4.18,0,0,0,4.754-.925,3.894,3.894,0,0,0,.818-1.33,4.521,4.521,0,0,0,0-3.122,3.9,3.9,0,0,0-.818-1.329,4.31,4.31,0,0,0-4.754-.925ZM78.4,21.679a7.172,7.172,0,0,1-2.428-1.474,7.007,7.007,0,0,1-1.624-2.3,7.271,7.271,0,0,1-.6-2.992,7.275,7.275,0,0,1,.6-2.992,7,7,0,0,1,1.624-2.3A7.191,7.191,0,0,1,78.4,8.151a8.531,8.531,0,0,1,2.985-.52,7.719,7.719,0,0,1,2.706.506,6.17,6.17,0,0,1,2.384,1.6l-2.428,2.4a5.591,5.591,0,0,0-1.288-1.013,2.8,2.8,0,0,0-1.374-.376,4.1,4.1,0,0,0-1.726.348,4.053,4.053,0,0,0-1.3.925,3.9,3.9,0,0,0-.819,1.329,4.521,4.521,0,0,0,0,3.122,3.9,3.9,0,0,0,.819,1.33,4.069,4.069,0,0,0,1.3.925,4.119,4.119,0,0,0,1.726.347,3.507,3.507,0,0,0,1.521-.332,3.3,3.3,0,0,0,1.2-.969l2.34,2.486a5.347,5.347,0,0,1-1.213.9,8.313,8.313,0,0,1-1.39.608A8.572,8.572,0,0,1,82.5,22.1a7.268,7.268,0,0,1-1.111.1A8.508,8.508,0,0,1,78.4,21.679Zm-17.845,0a7.177,7.177,0,0,1-2.429-1.474,6.989,6.989,0,0,1-1.623-2.3,7.254,7.254,0,0,1-.6-2.992,7.258,7.258,0,0,1,.6-2.992,6.985,6.985,0,0,1,1.623-2.3,7.2,7.2,0,0,1,2.429-1.475,8.818,8.818,0,0,1,5.968,0,7.18,7.18,0,0,1,2.428,1.475,7,7,0,0,1,1.624,2.3,7.258,7.258,0,0,1,.6,2.992,7.254,7.254,0,0,1-.6,2.992,7.007,7.007,0,0,1-1.624,2.3,7.162,7.162,0,0,1-2.428,1.474,8.818,8.818,0,0,1-5.968,0ZM61.816,11.1a4.076,4.076,0,0,0-1.3.925,3.9,3.9,0,0,0-.818,1.329,4.521,4.521,0,0,0,0,3.122,3.894,3.894,0,0,0,.818,1.33,4.18,4.18,0,0,0,6.056,0,3.9,3.9,0,0,0,.819-1.33,4.521,4.521,0,0,0,0-3.122,3.9,3.9,0,0,0-.819-1.329,4.053,4.053,0,0,0-1.3-.925,4.46,4.46,0,0,0-3.452,0ZM29.665,21.679a7.166,7.166,0,0,1-2.429-1.474,7.007,7.007,0,0,1-1.624-2.3,7.271,7.271,0,0,1-.6-2.992,7.274,7.274,0,0,1,.6-2.992,7,7,0,0,1,1.624-2.3,7.185,7.185,0,0,1,2.429-1.475,8.526,8.526,0,0,1,2.984-.52,7.719,7.719,0,0,1,2.706.506,6.162,6.162,0,0,1,2.384,1.6l-2.428,2.4a5.609,5.609,0,0,0-1.287-1.013,2.8,2.8,0,0,0-1.375-.376,4.035,4.035,0,0,0-3.028,1.273,3.9,3.9,0,0,0-.819,1.329,4.521,4.521,0,0,0,0,3.122,3.9,3.9,0,0,0,.819,1.33,4.029,4.029,0,0,0,3.028,1.272,3.5,3.5,0,0,0,1.521-.332,3.286,3.286,0,0,0,1.2-.969l2.341,2.486a5.376,5.376,0,0,1-1.214.9,8.276,8.276,0,0,1-1.39.608,8.59,8.59,0,0,1-1.345.332,7.292,7.292,0,0,1-1.112.1A8.5,8.5,0,0,1,29.665,21.679Zm19.455.174V14.829q0-.578-.059-1.286a4.582,4.582,0,0,0-.306-1.33,2.5,2.5,0,0,0-.775-1.041,2.246,2.246,0,0,0-1.434-.419,3.386,3.386,0,0,0-1.477.289,2.828,2.828,0,0,0-1,.78,3.09,3.09,0,0,0-.57,1.127,4.945,4.945,0,0,0-.176,1.33v7.574h-3.51V3.468H35.136V0h8.192V9.915h.058A4.072,4.072,0,0,1,44.833,8.34a4.657,4.657,0,0,1,2.677-.709,5.545,5.545,0,0,1,2.384.463,4.506,4.506,0,0,1,1.595,1.213,4.565,4.565,0,0,1,.877,1.735,7.884,7.884,0,0,1,.263,2.052v8.759Zm-30.952,0V7.978h3.51V21.853Zm-6.992,0-4.8-8.672H3.686v8.672H0V1.387H7.2a14.816,14.816,0,0,1,2.882.275,7.441,7.441,0,0,1,2.473.94,4.949,4.949,0,0,1,1.726,1.792,5.719,5.719,0,0,1,.643,2.862,5.658,5.658,0,0,1-1.244,3.73,5.354,5.354,0,0,1-3.555,1.821l5.5,9.047ZM3.686,10.06H6.553q.79,0,1.58-.073A4.882,4.882,0,0,0,9.581,9.64,2.466,2.466,0,0,0,10.649,8.8a2.64,2.64,0,0,0,.41-1.576,2.484,2.484,0,0,0-.38-1.444,2.36,2.36,0,0,0-1-.824A4.592,4.592,0,0,0,8.323,4.6a12.448,12.448,0,0,0-1.448-.087H3.686ZM18.3,4.727a2.009,2.009,0,0,1,0-2.92,2.175,2.175,0,0,1,1.595-.621,2.342,2.342,0,0,1,1.624.592,1.922,1.922,0,0,1,.658,1.489,1.919,1.919,0,0,1-.658,1.488,2.338,2.338,0,0,1-1.624.593A2.175,2.175,0,0,1,18.3,4.727Z" transform="translate(0.5 0.5)" fill="#0a0a0a" stroke="rgba(0,0,0,0)" stroke-width="1"/>
</svg>
