<svg xmlns="http://www.w3.org/2000/svg" width="694.125" height="150.2" viewBox="0 0 694.125 150.2">
  <path id="Union_14" data-name="Union 14" d="M621.744,145.7a48.135,48.135,0,0,1-16.316-9.9,47.1,47.1,0,0,1-10.915-15.449,48.75,48.75,0,0,1-4.028-20.107,48.773,48.773,0,0,1,4.028-20.107,47.066,47.066,0,0,1,10.915-15.442,48.262,48.262,0,0,1,16.316-9.91,59.271,59.271,0,0,1,40.115,0,48.362,48.362,0,0,1,16.323,9.91A46.944,46.944,0,0,1,689.09,80.135a48.776,48.776,0,0,1,4.035,20.107,48.753,48.753,0,0,1-4.035,20.107A46.973,46.973,0,0,1,678.182,135.8a48.235,48.235,0,0,1-16.323,9.9,59.271,59.271,0,0,1-40.115,0ZM630.2,74.6a27.24,27.24,0,0,0-8.749,6.218,26.224,26.224,0,0,0-5.507,8.931,30.381,30.381,0,0,0,0,20.982,26.187,26.187,0,0,0,5.507,8.938,27.347,27.347,0,0,0,8.749,6.218,28.1,28.1,0,0,0,31.953-6.218,26.169,26.169,0,0,0,5.5-8.938,30.38,30.38,0,0,0,0-20.982,26.206,26.206,0,0,0-5.5-8.931A28.972,28.972,0,0,0,630.2,74.6ZM526.967,145.7a48.2,48.2,0,0,1-16.316-9.9,47.1,47.1,0,0,1-10.915-15.449,48.865,48.865,0,0,1-4.028-20.107,48.888,48.888,0,0,1,4.028-20.107A47.066,47.066,0,0,1,510.65,64.693a48.331,48.331,0,0,1,16.316-9.91,57.344,57.344,0,0,1,20.061-3.5,51.885,51.885,0,0,1,18.185,3.4,41.47,41.47,0,0,1,16.026,10.785L564.923,81.6a37.578,37.578,0,0,0-8.657-6.805,18.8,18.8,0,0,0-9.238-2.525,27.576,27.576,0,0,0-11.6,2.336,27.24,27.24,0,0,0-8.749,6.218,26.222,26.222,0,0,0-5.507,8.931,30.38,30.38,0,0,0,0,20.982,26.185,26.185,0,0,0,5.507,8.938,27.347,27.347,0,0,0,8.749,6.218,27.683,27.683,0,0,0,11.6,2.329,23.572,23.572,0,0,0,10.222-2.231,22.145,22.145,0,0,0,8.063-6.511l15.729,16.708a35.936,35.936,0,0,1-8.155,6.022,55.874,55.874,0,0,1-9.344,4.084,57.618,57.618,0,0,1-9.047,2.231,48.853,48.853,0,0,1-7.468.678A57.184,57.184,0,0,1,526.967,145.7Zm-119.942,0a48.236,48.236,0,0,1-16.323-9.9,46.972,46.972,0,0,1-10.908-15.449,48.752,48.752,0,0,1-4.035-20.107,48.776,48.776,0,0,1,4.035-20.107A46.943,46.943,0,0,1,390.7,64.693a48.363,48.363,0,0,1,16.323-9.91,59.271,59.271,0,0,1,40.115,0,48.262,48.262,0,0,1,16.316,9.91,47.067,47.067,0,0,1,10.915,15.442,48.774,48.774,0,0,1,4.028,20.107,48.751,48.751,0,0,1-4.028,20.107A47.1,47.1,0,0,1,463.457,135.8a48.135,48.135,0,0,1-16.316,9.9,59.271,59.271,0,0,1-40.115,0Zm8.452-71.1a27.394,27.394,0,0,0-8.749,6.218,26.206,26.206,0,0,0-5.5,8.931,30.381,30.381,0,0,0,0,20.982,26.169,26.169,0,0,0,5.5,8.938,28.1,28.1,0,0,0,40.7,0,26.188,26.188,0,0,0,5.507-8.938,30.381,30.381,0,0,0,0-20.982,26.225,26.225,0,0,0-5.507-8.931,27.239,27.239,0,0,0-8.749-6.218,29.98,29.98,0,0,0-23.2,0ZM199.386,145.7a48.167,48.167,0,0,1-16.324-9.9,47.1,47.1,0,0,1-10.915-15.449,48.864,48.864,0,0,1-4.028-20.107,48.888,48.888,0,0,1,4.028-20.107,47.065,47.065,0,0,1,10.915-15.442,48.294,48.294,0,0,1,16.324-9.91,57.3,57.3,0,0,1,20.054-3.5,51.885,51.885,0,0,1,18.185,3.4,41.418,41.418,0,0,1,16.026,10.785L237.335,81.6a37.7,37.7,0,0,0-8.65-6.805,18.821,18.821,0,0,0-9.245-2.525,27.121,27.121,0,0,0-20.351,8.553,26.224,26.224,0,0,0-5.507,8.931,30.38,30.38,0,0,0,0,20.982,26.187,26.187,0,0,0,5.507,8.938,27.083,27.083,0,0,0,20.351,8.546,23.549,23.549,0,0,0,10.222-2.231,22.088,22.088,0,0,0,8.063-6.511l15.736,16.708a36.135,36.135,0,0,1-8.162,6.022,55.626,55.626,0,0,1-9.344,4.084,57.735,57.735,0,0,1-9.04,2.231,49.013,49.013,0,0,1-7.475.678A57.145,57.145,0,0,1,199.386,145.7Zm130.758,1.168V99.662q0-3.882-.4-8.644a30.791,30.791,0,0,0-2.06-8.938,16.831,16.831,0,0,0-5.21-6.994c-2.364-1.874-5.571-2.819-9.641-2.819a22.756,22.756,0,0,0-9.924,1.944,19.007,19.007,0,0,0-6.689,5.245,20.768,20.768,0,0,0-3.83,7.574,33.234,33.234,0,0,0-1.182,8.938v50.9H267.617V23.31H236.153V0h55.058V66.637h.389q2.761-5.833,9.733-10.589t17.994-4.763q9.439,0,16.026,3.112a30.284,30.284,0,0,1,10.717,8.155,30.68,30.68,0,0,1,5.9,11.659A52.983,52.983,0,0,1,353.737,88v58.867Zm-208.036,0V53.622H145.7v93.249Zm-47,0L42.869,88.591H24.775v58.28H0V9.323H48.369a99.588,99.588,0,0,1,19.367,1.846,50.015,50.015,0,0,1,16.621,6.315,33.259,33.259,0,0,1,11.6,12.043q4.322,7.574,4.325,19.233,0,14.96-8.36,25.066T68.033,86.066L105,146.871ZM24.775,67.609H44.044q5.309,0,10.618-.49a32.815,32.815,0,0,0,9.733-2.329,16.572,16.572,0,0,0,7.178-5.637q2.75-3.787,2.754-10.589,0-6.022-2.555-9.707a15.86,15.86,0,0,0-6.689-5.539,30.864,30.864,0,0,0-9.139-2.427A83.671,83.671,0,0,0,46.21,30.3H24.775Zm98.217-35.843a13.5,13.5,0,0,1,0-19.625A14.619,14.619,0,0,1,133.71,7.966a15.744,15.744,0,0,1,10.915,3.979,12.919,12.919,0,0,1,4.424,10.008,12.9,12.9,0,0,1-4.424,10,15.717,15.717,0,0,1-10.915,3.986A14.619,14.619,0,0,1,122.992,31.766Z" transform="translate(0.5 0.5)" fill="#eee" stroke="rgba(0,0,0,0)" stroke-miterlimit="10" stroke-width="1"/>
</svg>
