<svg xmlns="http://www.w3.org/2000/svg" width="707.522" height="154.462" viewBox="0 0 707.522 154.462">
  <path id="Union_11" data-name="Union 11" d="M633.76,149.865a48.987,48.987,0,0,1-16.632-10.186A48.438,48.438,0,0,1,606,123.788a50.533,50.533,0,0,1-4.106-20.682A50.557,50.557,0,0,1,606,82.425a48.407,48.407,0,0,1,11.126-15.884A49.116,49.116,0,0,1,633.76,56.348a59.906,59.906,0,0,1,40.89,0A49.22,49.22,0,0,1,691.29,66.541a48.284,48.284,0,0,1,11.119,15.884,50.562,50.562,0,0,1,4.113,20.682,50.538,50.538,0,0,1-4.113,20.682,48.315,48.315,0,0,1-11.119,15.891,49.091,49.091,0,0,1-16.639,10.186,59.905,59.905,0,0,1-40.89,0Zm8.622-73.131a27.771,27.771,0,0,0-8.918,6.4,27.016,27.016,0,0,0-5.614,9.186,31.515,31.515,0,0,0,0,21.581,26.978,26.978,0,0,0,5.614,9.193,28.48,28.48,0,0,0,41.489,0,26.957,26.957,0,0,0,5.606-9.193,31.512,31.512,0,0,0,0-21.581,27,27,0,0,0-5.606-9.186,29.326,29.326,0,0,0-32.571-6.4ZM537.152,149.865a49.058,49.058,0,0,1-16.632-10.186,48.438,48.438,0,0,1-11.126-15.891,50.652,50.652,0,0,1-4.106-20.682,50.676,50.676,0,0,1,4.106-20.682A48.408,48.408,0,0,1,520.52,66.541a49.187,49.187,0,0,1,16.632-10.193,57.983,57.983,0,0,1,20.449-3.6,52.468,52.468,0,0,1,18.537,3.5A42.253,42.253,0,0,1,592.473,67.34L575.841,83.928a38.355,38.355,0,0,0-8.825-7,19.027,19.027,0,0,0-9.416-2.6,27.528,27.528,0,0,0-20.745,8.8,27.013,27.013,0,0,0-5.614,9.186,31.514,31.514,0,0,0,0,21.581,26.975,26.975,0,0,0,5.614,9.193,27.489,27.489,0,0,0,20.745,8.791,23.846,23.846,0,0,0,10.419-2.295,22.614,22.614,0,0,0,8.219-6.7l16.033,17.186a36.654,36.654,0,0,1-8.312,6.194,56.7,56.7,0,0,1-9.524,4.2,58.3,58.3,0,0,1-9.221,2.295,49.361,49.361,0,0,1-7.612.7A57.821,57.821,0,0,1,537.152,149.865Zm-122.26,0a49.091,49.091,0,0,1-16.639-10.186,48.313,48.313,0,0,1-11.119-15.891,50.536,50.536,0,0,1-4.113-20.682,50.56,50.56,0,0,1,4.113-20.682,48.283,48.283,0,0,1,11.119-15.884,49.22,49.22,0,0,1,16.639-10.193,59.906,59.906,0,0,1,40.89,0,49.117,49.117,0,0,1,16.632,10.193,48.409,48.409,0,0,1,11.126,15.884,50.56,50.56,0,0,1,4.106,20.682,50.536,50.536,0,0,1-4.106,20.682,48.44,48.44,0,0,1-11.126,15.891,48.988,48.988,0,0,1-16.632,10.186,59.905,59.905,0,0,1-40.89,0Zm8.615-73.131a27.929,27.929,0,0,0-8.918,6.4,27,27,0,0,0-5.606,9.186,31.514,31.514,0,0,0,0,21.581,26.958,26.958,0,0,0,5.606,9.193,28.48,28.48,0,0,0,41.489,0,26.978,26.978,0,0,0,5.614-9.193,31.515,31.515,0,0,0,0-21.581,27.016,27.016,0,0,0-5.614-9.186,29.326,29.326,0,0,0-32.571-6.4ZM203.239,149.865A49.02,49.02,0,0,1,186.6,139.679a48.439,48.439,0,0,1-11.126-15.891,50.653,50.653,0,0,1-4.106-20.682,50.678,50.678,0,0,1,4.106-20.682A48.409,48.409,0,0,1,186.6,66.541a49.149,49.149,0,0,1,16.639-10.193,57.942,57.942,0,0,1,20.442-3.6,52.468,52.468,0,0,1,18.537,3.5A42.2,42.2,0,0,1,258.554,67.34L241.922,83.928a38.48,38.48,0,0,0-8.817-7,19.053,19.053,0,0,0-9.423-2.6,27.528,27.528,0,0,0-20.745,8.8,27.015,27.015,0,0,0-5.614,9.186,31.514,31.514,0,0,0,0,21.581,26.977,26.977,0,0,0,5.614,9.193,27.489,27.489,0,0,0,20.745,8.791,23.824,23.824,0,0,0,10.419-2.295,22.554,22.554,0,0,0,8.218-6.7l16.04,17.186a36.858,36.858,0,0,1-8.319,6.194,56.442,56.442,0,0,1-9.524,4.2,58.417,58.417,0,0,1-9.214,2.295,49.524,49.524,0,0,1-7.62.7A57.781,57.781,0,0,1,203.239,149.865Zm133.285,1.2V102.509q0-3.992-.4-8.891a31.911,31.911,0,0,0-2.1-9.193,17.3,17.3,0,0,0-5.311-7.194c-2.41-1.928-5.679-2.9-9.828-2.9a23.017,23.017,0,0,0-10.116,2,19.4,19.4,0,0,0-6.819,5.4,21.433,21.433,0,0,0-3.9,7.791,34.475,34.475,0,0,0-1.2,9.193v52.355H272.79V23.976H240.717V0h56.122V68.541h.4q2.814-6,9.921-10.891t18.342-4.9q9.622,0,16.336,3.2a30.9,30.9,0,0,1,10.924,8.388,31.664,31.664,0,0,1,6.011,11.992,54.962,54.962,0,0,1,1.8,14.186v60.549Zm-212.057,0V55.154h24.049v95.913Zm-47.9,0L43.7,91.122H25.254v59.945H0V9.589H49.3a100.63,100.63,0,0,1,19.742,1.9,50.7,50.7,0,0,1,16.942,6.5A34.073,34.073,0,0,1,97.814,30.372q4.405,7.791,4.409,19.783,0,15.387-8.522,25.782T69.348,88.525l37.679,62.542ZM25.254,69.541H44.895q5.412,0,10.823-.5a33.2,33.2,0,0,0,9.921-2.4,16.917,16.917,0,0,0,7.317-5.8q2.8-3.9,2.807-10.891,0-6.194-2.6-9.985a16.2,16.2,0,0,0-6.819-5.7,31.238,31.238,0,0,0-9.315-2.5,84.531,84.531,0,0,0-9.921-.6H25.254ZM125.37,32.674a13.977,13.977,0,0,1,0-20.185,14.83,14.83,0,0,1,10.924-4.295,15.963,15.963,0,0,1,11.126,4.093,13.342,13.342,0,0,1,4.51,10.294,13.317,13.317,0,0,1-4.51,10.287,15.936,15.936,0,0,1-11.126,4.1A14.83,14.83,0,0,1,125.37,32.674Z" transform="translate(0.5 0.5)" fill="#fff" stroke="rgba(0,0,0,0)" stroke-width="1"/>
</svg>
