<svg xmlns="http://www.w3.org/2000/svg" width="21.138" height="20.803" viewBox="0 0 21.138 20.803">
  <g id="ICON_PHONE" data-name="ICON PHONE" transform="translate(-72 -756.516)">
    <g id="Group_16757" data-name="Group 16757" transform="translate(72 756.515)">
      <path id="Path_12666" data-name="Path 12666" d="M73.043,758.654l.03-.024a12.061,12.061,0,0,0,.942-.9l.108-.11c.174-.177.336-.343.522-.512a1.779,1.779,0,0,1,2.669.025l2.741,2.706a1.753,1.753,0,0,1,.61,1.278,1.839,1.839,0,0,1-.609,1.3l-1.7,1.681a.309.309,0,0,0-.11.193.269.269,0,0,0,.033.12l.02.033c.1.166.194.346.287.533a5.469,5.469,0,0,0,.3.535,17.218,17.218,0,0,0,3.851,4.181l.013.015a10.248,10.248,0,0,0,2.395,1.457l.007,0c.169.054.208.054.328-.062l.008-.01c.384-.421.769-.807,1.23-1.25.1-.1.194-.2.292-.292l.138-.131a1.748,1.748,0,0,1,2.669,0l1.352,1.335c.082.082.167.161.248.244l.235.221c.344.333.63.612.912.907l0,0a1.8,1.8,0,0,1,.579,1.276,1.883,1.883,0,0,1-.569,1.286l-.016.018-1.7,1.68a3.132,3.132,0,0,1-1.977.907,7.871,7.871,0,0,1-3.459-.6,21.06,21.06,0,0,1-6.207-3.677,22.667,22.667,0,0,1-5.964-7.534A11.268,11.268,0,0,1,72,761.354c0-.087,0-.185,0-.272A3.145,3.145,0,0,1,73.043,758.654Zm18.5,14.754a.408.408,0,0,0-.12-.169l-.013-.013-.015-.015c-.262-.277-.535-.545-.866-.861-.079-.077-.159-.154-.239-.231s-.162-.157-.253-.244l-1.358-1.345a1.239,1.239,0,0,0-.2-.162.672.672,0,0,0-.22.162l-.143.141c-.092.09-.185.182-.276.272l-.016.018c-.445.428-.815.8-1.176,1.2a1.14,1.14,0,0,1-.092.093,1.813,1.813,0,0,1-1.909.41l-.044-.015a.34.34,0,0,1-.052-.02,11.667,11.667,0,0,1-2.813-1.7l-.028-.025a18.88,18.88,0,0,1-4.183-4.55,7.764,7.764,0,0,1-.376-.682c-.08-.159-.156-.307-.226-.418l-.018-.031c-.02-.035-.039-.067-.049-.09a1.774,1.774,0,0,1,.366-2.146l1.7-1.685a.78.78,0,0,0,.143-.179.412.412,0,0,0-.1-.136l-.028-.023-2.757-2.729c-.136-.136-.207-.148-.207-.148a.617.617,0,0,0-.215.141.585.585,0,0,1-.057.052c-.148.136-.289.281-.44.433l-.1.107a13.635,13.635,0,0,1-1.043,1,1.588,1.588,0,0,0-.527,1.266c0,.056,0,.12,0,.175a9.9,9.9,0,0,0,1.086,3.551,21.124,21.124,0,0,0,5.549,7,19.553,19.553,0,0,0,5.743,3.417,6.409,6.409,0,0,0,2.772.5,1.471,1.471,0,0,0,.984-.451l1.691-1.668A.476.476,0,0,0,91.547,773.408Z" transform="translate(-72 -756.515)" fill="#f6f6f6"/>
    </g>
  </g>
</svg>
