<svg xmlns="http://www.w3.org/2000/svg" width="368.649" height="413.016" viewBox="0 0 368.649 413.016">
  <g id="Group_1099" data-name="Group 1099" transform="translate(-209.824 -1235.747)">
    <path id="Path_9" data-name="Path 9" d="M627.255,370.155c-3.366-14.361-15.109-25.282-28.062-31.4-32.665-15.436-71.924-2.32-103.853-20.11-14.969-8.34-26.094-21.967-40.189-31.566-13.418-9.139-29.156-15.989-45.577-16.523-15.677-.51-30.393,5.558-41.86,16.117-12.293,11.32-19.983,26.58-24.4,42.528-1.111,4.015-2.022,8.078-2.782,12.17-4.9,15.928-3.014,32.943-2.657,49.384.2,9.23-.138,18.443-2.239,27.466-2.059,8.842-5.106,17.471-5.659,26.6-1.023,16.883,5.433,32.985,11.746,48.29,3.239,7.852,6.551,15.692,9.115,23.8,2.8,8.864,4.329,18.013,5.951,27.148,2.55,14.347,5.479,35.142,21.545,40.675,7.725,2.661,16.474,1.132,24.153-.93A64.11,64.11,0,0,0,423.69,574a45.036,45.036,0,0,0,14.363-17.087c3.286-6.968,4.726-14.582,5.341-22.218,1.276-15.862-.9-32.033,2.456-47.712a58.74,58.74,0,0,1,27.9-38.359C487.8,440.42,504.3,437.546,520.3,436.173c32.354-2.776,70.46.063,94.463-26.17C624.535,399.324,630.663,384.691,627.255,370.155Z" transform="translate(-49.732 1030.549)" fill="#3a3a3a"/>
    <g id="Group_1094" data-name="Group 1094" transform="translate(209.824 1235.747)">
      <path id="Path_10" data-name="Path 10" d="M382.264,127.494a19.355,19.355,0,0,0-11.773-2.449,146.26,146.26,0,0,0-29.416-1.126,98.314,98.314,0,0,0-31.534,7.335,78.92,78.92,0,0,0-7.533,3.687q4.741-5.648,9.2-11.512.574-.757,1.141-1.52a1.382,1.382,0,0,0,.767-1.04q.429-.587.853-1.177c.094-.015.184-.03.267-.047a15.837,15.837,0,0,0,2.564-.772,23.251,23.251,0,0,0,4.751-2.6,99.14,99.14,0,0,0,8.72-7.24c5.881-5.209,11.255-10.906,14.873-17.95,7.018-13.663,7.25-30.141,1.654-44.336a57.972,57.972,0,0,0-13.039-19.9,1.234,1.234,0,0,0-2.047.587,94.8,94.8,0,0,0-22.926,66.774c.444,7.912,1.905,15.741,3.184,23.55a2.836,2.836,0,0,0-1.268,1.183,2.313,2.313,0,0,0-.261,1.447c-4.912,6.668-10.253,13.043-15.772,19.223-.214.155-.429.309-.641.467a1.438,1.438,0,0,0-.586.9q-1.219,1.353-2.447,2.7-11.5,12.559-24.183,23.96c-5.051,4.539-10.245,8.9-15.547,13.127,3.478-5.891,6.366-12.152,6.744-19.076.268-4.9-.683-9.787-1.591-14.574a129.614,129.614,0,0,0-3.2-13.56,62.612,62.612,0,0,0-6.194-14.281A1.236,1.236,0,0,0,244.8,120.3a1.178,1.178,0,0,0-1.39.233c-5.281,6.732-8,14.948-8.822,23.4-.9,9.313.628,18.676,3,27.669,1.407,5.341,3.115,10.6,4.824,15.847a1.459,1.459,0,0,0,.06.151q-1.093.827-2.189,1.648c-6.886,5.152-13.844,10.308-20.125,16.2-.208.124-.417.247-.625.373a1.15,1.15,0,0,0-.557.752q-2.171,2.1-4.215,4.333a101.293,101.293,0,0,0-21.259,37.66c-.353-9.478-3.736-18.806-8.511-26.988-6.3-10.8-15.267-20.609-26.832-25.785a41.5,41.5,0,0,0-21.475-3.662,1.264,1.264,0,0,0-1.227,1.227,1.207,1.207,0,0,0,.124.512,1.237,1.237,0,0,0-.525.919,30.832,30.832,0,0,0,1.413,11.028,74.147,74.147,0,0,0,2.746,8.148,79.693,79.693,0,0,0,8.257,15.407,82.655,82.655,0,0,0,25.3,23.891,77.4,77.4,0,0,0,17.516,7.8q-.58,2.912-1.014,5.846c-2.424,16.383-1.5,33.037,1.715,49.243a1.475,1.475,0,0,0,.2,1.012A190.846,190.846,0,0,0,196.01,335.8q1.308,4.191,2.792,8.325c.527,1.477,2.9.84,2.366-.652a199.042,199.042,0,0,1-7.452-26.245c9.9-5.634,19.712-11.508,28.518-18.77,8.244-6.8,15.551-14.932,20.5-24.461a56.137,56.137,0,0,0,5.409-15.353,1.245,1.245,0,0,0-.173-2.377,1.134,1.134,0,0,0-1.957.414c-10.207,2.771-20.673,5.8-29.368,12.018-9.556,6.83-16.019,17.391-20.4,28.113a82.3,82.3,0,0,0-3.981,12.535,142.233,142.233,0,0,1-1.342-35.908c1.971-20.727,9.405-41.382,22.739-57.541a91.013,91.013,0,0,1,6.949-7.477c2.963,1.175,5.543,3.146,8.477,4.393a38.441,38.441,0,0,0,10.307,2.42,167.682,167.682,0,0,0,19.5,1.348,123.312,123.312,0,0,0,38.489-5.325,91.411,91.411,0,0,0,19.8-8.945,1.236,1.236,0,0,0,.248-1.927l-2.466-1.932a1.255,1.255,0,0,0-.825-1.141q-.622-.238-1.246-.468a1.5,1.5,0,0,0-.625-.227,107.418,107.418,0,0,0-35.638-6.29,110.69,110.69,0,0,0-37.661,6.293q-4.673,1.656-9.179,3.739c2.88-2.331,5.83-4.582,8.792-6.8q4.084-3.064,8.129-6.166a1.185,1.185,0,0,0,.743-.537l.045-.071c5.963-4.6,11.832-9.316,17.513-14.285A351.289,351.289,0,0,0,294.5,143.556c9.233,9.2,24.009,7,35.768,6.034,12.655-1.043,25.5-2.805,36.993-8.539a48.382,48.382,0,0,0,15.248-11.63A1.245,1.245,0,0,0,382.264,127.494ZM311.4,96.512a90.716,90.716,0,0,1,.306-17.745,92.9,92.9,0,0,1,10.578-33.432,90.148,90.148,0,0,1,10.768-15.7,55.271,55.271,0,0,1,15.24,37.256,49.221,49.221,0,0,1-5.332,23.086c-3.621,7-9.005,12.555-14.869,17.719-3.11,2.739-6.21,5.708-9.83,7.771a14.682,14.682,0,0,1-1.99.939,102.9,102.9,0,0,0,11.516-21.651c.917-2.449,1.706-4.934,2.391-7.447,5.487-7.308,15.22-12.253,15.6-22.379.059-1.579-2.394-1.576-2.454,0-.176,4.689-3.2,8.654-6.362,11.866-1.81,1.836-3.732,3.567-5.535,5.4a175.744,175.744,0,0,0,3.059-21.625c.26-2.882.487-5.768.714-8.653.124-1.574-2.331-1.566-2.454,0-.274,3.5-.55,7-.885,10.505a13.077,13.077,0,0,0-1.1-1.833c-1.479-2.064-3.553-3.868-4.429-6.307-.53-1.475-2.9-.839-2.366.652.887,2.468,2.659,4.3,4.247,6.32a11.226,11.226,0,0,1,2.545,7.355,1.1,1.1,0,0,0,.329.858,125.189,125.189,0,0,1-3.167,16.782c-.275.378-.545.761-.8,1.156a1.056,1.056,0,0,0,.088,1.348,83.9,83.9,0,0,1-4.123,10.79,7.044,7.044,0,0,1-1.171-3.185c-.279-1.788-.287-3.633-.393-5.437l-.725-12.379c-.092-1.569-2.546-1.58-2.454,0q.391,6.672.782,13.345c.2,3.392.063,7.577,2.819,10.045a112.888,112.888,0,0,1-7.9,13.4C313,109.081,311.912,102.826,311.4,96.512ZM207.835,289.087c.143-2.525,1.186-4.872,1.357-7.393a1.056,1.056,0,0,0-1.047-1.176,46.244,46.244,0,0,1,8.367-8.677,55.5,55.5,0,0,1,13.943-7.68,147.046,147.046,0,0,1,15.037-4.791A60.3,60.3,0,0,1,233.16,284.1c-6.87,8.5-15.488,15.352-24.587,21.316-3.812,2.5-7.716,4.851-11.656,7.141,2.463-7.287,9.541-11.927,15.184-16.729a48.468,48.468,0,0,0,6.274-6.437,15.553,15.553,0,0,1,5.817-1.039c2.575-.177,5.053-.539,7.138-2.172a1.235,1.235,0,0,0,0-1.735,1.256,1.256,0,0,0-1.735,0c-1.808,1.417-4.4,1.383-6.572,1.53-.743.05-1.5.111-2.247.214,1.883-2.678,3.642-5.449,5.668-8.021a23.671,23.671,0,0,1,8.933-7.446,1.236,1.236,0,0,0,.44-1.679,1.256,1.256,0,0,0-1.678-.44c-6.946,3.029-10.941,9.841-15.092,15.8-.729,1.045-1.479,2.062-2.259,3.047a7.213,7.213,0,0,0-.694.461,1.39,1.39,0,0,0-.6,1.11,43.057,43.057,0,0,1-4.251,4.32c-.942.828-1.908,1.627-2.881,2.419A30.849,30.849,0,0,1,207.835,289.087Zm-2.462-4.582q.611-.95,1.253-1.881c-.16.954-.44,1.887-.676,2.826a19.152,19.152,0,0,0-.583,3.945,39.8,39.8,0,0,0,.8,8.048c0,.028.011.054.018.081a66.966,66.966,0,0,0-5.127,4.521c-3.315,3.316-6.158,7.323-7.077,12a1.4,1.4,0,0,0-.024.222l-.22.126A81.469,81.469,0,0,1,205.373,284.5Zm-43.21-42.116-.261-.237a74.406,74.406,0,0,0,15.234.872,1.248,1.248,0,0,0,.584-.168,69.612,69.612,0,0,1,5.529,5.1,22.281,22.281,0,0,1,5.784,9.687,1.2,1.2,0,0,0,.287.534A76.854,76.854,0,0,1,162.163,242.388Zm28.622,12.662c-2.2-5.89-7.013-10.31-11.795-14.252-2.828-2.332-5.716-4.591-8.373-7.122q-.877-.835-1.725-1.7a1.177,1.177,0,0,0-.318-1c-2.109-2.31-.19-6.112.366-8.663a64.436,64.436,0,0,0,1.117-10.183c.087-1.577-2.366-1.573-2.454,0a53.135,53.135,0,0,1-1.4,11.029,22.506,22.506,0,0,0-.947,4.828q-1.328-1.575-2.56-3.226-2.016-2.712-3.772-5.606-.876-1.445-1.683-2.93a3.894,3.894,0,0,1-.713-3.1c.517-1.5-1.852-2.138-2.366-.652-.718,2.076.446,4.09,1.436,5.856q1.516,2.7,3.263,5.265a73.868,73.868,0,0,0,7.722,9.534,95.111,95.111,0,0,0,8.457,7.512A71.433,71.433,0,0,1,160.9,239.5a1.238,1.238,0,0,0-1.268.514,79.392,79.392,0,0,1-17.252-24.8,72.416,72.416,0,0,1-3.223-8.9c-1.088-3.74-2.03-7.606-1.65-11.526a1.306,1.306,0,0,0,0-.286c12.177-1.078,23.967,4.185,32.8,12.374a68.176,68.176,0,0,1,11.33,13.9,65.293,65.293,0,0,1,7.672,16.962A43.967,43.967,0,0,1,190.785,255.05Zm64.915-60.4a107.891,107.891,0,0,1,37.331-.5,104.366,104.366,0,0,1,18.73,4.883l2.644,2.072a97.192,97.192,0,0,1-34.047,11.58,146.576,146.576,0,0,1-38.3.41,46.844,46.844,0,0,1-11.2-2.2,40.749,40.749,0,0,1-5.775-2.945l10.5-1.326c4.265-.538,8.536-1.178,12.832-1.413,4.194-.23,8.289.323,12.465.565a49.9,49.9,0,0,0,10.479-.59,1.627,1.627,0,0,0,.16.234A13.772,13.772,0,0,0,281,210.312c1.573.136,1.564-2.318,0-2.454a11.219,11.219,0,0,1-6.808-3.162c4.37-.853,8.657-2.08,12.933-3.309a1.228,1.228,0,0,0-.652-2.366c-7.912,2.273-16,4.608-24.316,4.363-2.152-.064-4.289-.278-6.428-.452a15.811,15.811,0,0,1,6.159-2.323,1.235,1.235,0,0,0,.857-1.509,1.258,1.258,0,0,0-1.509-.857,17.81,17.81,0,0,0-9.155,4.417c-.018.016-.032.032-.048.048-.775-.023-1.552-.027-2.331,0-4.241.137-8.454.755-12.659,1.286l-12.049,1.521A105.711,105.711,0,0,1,255.7,194.654Zm-9.435-10.475a29.667,29.667,0,0,0,1.117-14.592,54.269,54.269,0,0,0-1.872-6.856,1.338,1.338,0,0,0,.2-.261,30.458,30.458,0,0,1,5.695-7.081c1.163-1.073-.575-2.8-1.735-1.735a32.654,32.654,0,0,0-5.07,5.958,21.291,21.291,0,0,1-.792-5.921c.086-3.232,1.493-6.253,1.8-9.462.152-1.57-2.3-1.56-2.454,0-.269,2.779-1.4,5.394-1.713,8.171a21.718,21.718,0,0,0,.855,7.983c.605,2.274,1.389,4.5,2.011,6.765a1.209,1.209,0,0,0-1.368-.109,1.239,1.239,0,0,0-.44,1.678,7.519,7.519,0,0,0,2.644,2.454,27.414,27.414,0,0,1,.192,5.123,27.127,27.127,0,0,1-1.534,7.52c-5.134-15.922-9.953-32.967-4.852-49.482a37.412,37.412,0,0,1,6.19-12.067,1.563,1.563,0,0,0,.335-.776c4.29,7.471,6.517,15.88,8.189,24.282A75.1,75.1,0,0,1,255.6,159.8a31.352,31.352,0,0,1-2.843,12.836A85.338,85.338,0,0,1,246.265,184.179Zm86.962-37.3c-3.267.3-6.539.542-9.81.779a96.477,96.477,0,0,1-9.9.359c-6.261-.191-12.819-1.739-17.368-6.294.13-.147.262-.292.392-.439a1.207,1.207,0,0,0,1.508,1.05,154.617,154.617,0,0,1,20.791-3.749,1.17,1.17,0,0,0,1.516-.121l.045-.042q4.279-.428,8.581-.616c2.378-.1,4.771-.1,7.169-.085a5.4,5.4,0,0,0,2.528,4.6c1.756,1.264,4.1,1.46,5.777,2.844a1.309,1.309,0,0,0,.457.249C341.039,146.064,337.135,146.518,333.227,146.879Zm19.043-2.988c-2.068.515-4.153.951-6.248,1.326a1.073,1.073,0,0,0,.165-1.79c-1.482-1.224-3.238-1.709-4.96-2.482-1.214-.544-2.885-1.693-2.6-3.2,5.576.051,11.16.053,16.623-1.021a25.462,25.462,0,0,0,12.246-5.792c1.179-1.056-.561-2.786-1.735-1.735-6.062,5.431-14.66,6-22.411,6.052-4.581.03-9.157-.1-13.737.079q-2.982.116-5.956.35a39.059,39.059,0,0,1,7.906-4.593A1.236,1.236,0,0,0,332,129.4a1.256,1.256,0,0,0-1.678-.44,40.469,40.469,0,0,0-11,7.112q-2.429.257-4.851.585A156.257,156.257,0,0,0,299.1,139.55a81.828,81.828,0,0,1,24.092-10.327,113,113,0,0,1,33.286-3c4.21.2,8.408.577,12.588,1.1a1.447,1.447,0,0,0,1.076.22c.1-.016.208-.028.312-.042q2.821.374,5.631.827a1.393,1.393,0,0,0,1.18-.31,17.037,17.037,0,0,1,2.41.9C372.442,136.708,362.49,141.344,352.27,143.891Z" transform="translate(-49.617 68.05)" fill="#fff"/>
      <path id="Path_11" data-name="Path 11" d="M.592,101a19.355,19.355,0,0,1,11.773-2.449A146.26,146.26,0,0,1,41.78,97.43a98.314,98.314,0,0,1,31.534,7.335,78.916,78.916,0,0,1,7.533,3.687q-4.741-5.648-9.2-11.512-.574-.757-1.141-1.52a1.382,1.382,0,0,1-.767-1.04q-.429-.587-.853-1.177c-.094-.015-.184-.03-.267-.047a15.839,15.839,0,0,1-2.564-.772,23.249,23.249,0,0,1-4.751-2.6,99.134,99.134,0,0,1-8.72-7.24c-5.881-5.209-11.255-10.906-14.873-17.95C30.7,50.931,30.464,34.453,36.06,20.258A57.973,57.973,0,0,1,49.1.358a1.234,1.234,0,0,1,2.047.587A94.468,94.468,0,0,1,69.077,32.178a93.793,93.793,0,0,1,4.995,35.542c-.444,7.912-1.905,15.741-3.184,23.55a2.836,2.836,0,0,1,1.268,1.183,2.313,2.313,0,0,1,.261,1.447c4.912,6.668,10.253,13.043,15.772,19.223.214.155.429.309.641.467a1.438,1.438,0,0,1,.586.9q1.219,1.353,2.447,2.7,11.5,12.559,24.183,23.96c5.051,4.539,10.245,8.9,15.547,13.127-3.478-5.891-6.366-12.152-6.744-19.076-.268-4.9.683-9.787,1.591-14.574a129.615,129.615,0,0,1,3.2-13.56,62.613,62.613,0,0,1,6.194-14.281,1.236,1.236,0,0,1,2.223,1.025,1.178,1.178,0,0,1,1.39.233c5.281,6.732,8,14.948,8.822,23.4.9,9.313-.628,18.676-3,27.669-1.407,5.341-3.115,10.6-4.824,15.847a1.459,1.459,0,0,1-.06.151q1.093.827,2.189,1.648a236.892,236.892,0,0,1,19.943,16.706s9.9,9.215,20.517,17.4,21.954,15.827,21.954,15.827l.734,2.775s-13.961-9.6-24.787-17.873a240.027,240.027,0,0,1-18.695-15.656c-2.963,1.175-5.543,3.146-8.477,4.393a38.441,38.441,0,0,1-10.307,2.42,167.675,167.675,0,0,1-19.5,1.348,123.313,123.313,0,0,1-38.489-5.325,91.413,91.413,0,0,1-19.8-8.945,1.236,1.236,0,0,1-.248-1.927l2.466-1.932a1.255,1.255,0,0,1,.825-1.141q.622-.238,1.246-.468a1.5,1.5,0,0,1,.625-.227,107.417,107.417,0,0,1,35.638-6.29,110.689,110.689,0,0,1,37.661,6.293q4.673,1.656,9.179,3.739c-2.88-2.331-5.83-4.582-8.792-6.8Q140.185,164,136.14,160.9a1.185,1.185,0,0,1-.743-.537l-.045-.071c-5.963-4.6-11.832-9.316-17.513-14.285a351.293,351.293,0,0,1-29.487-28.942c-9.233,9.2-24.009,7-35.768,6.034-12.655-1.043-25.5-2.805-36.993-8.539A48.383,48.383,0,0,1,.343,102.932,1.245,1.245,0,0,1,.592,101ZM71.459,70.023a90.717,90.717,0,0,0-.306-17.745A92.9,92.9,0,0,0,60.575,18.846a90.149,90.149,0,0,0-10.768-15.7A55.271,55.271,0,0,0,34.567,40.4,49.221,49.221,0,0,0,39.9,63.484c3.621,7,9.005,12.555,14.869,17.719,3.11,2.739,6.21,5.708,9.83,7.771a14.682,14.682,0,0,0,1.99.939A102.9,102.9,0,0,1,55.073,68.262c-.917-2.449-1.706-4.934-2.391-7.447-5.487-7.308-15.22-12.253-15.6-22.379-.059-1.579,2.394-1.576,2.454,0,.176,4.689,3.2,8.654,6.362,11.866,1.81,1.836,3.732,3.567,5.535,5.4a175.748,175.748,0,0,1-3.059-21.625c-.26-2.882-.487-5.768-.714-8.653-.124-1.574,2.331-1.566,2.454,0,.274,3.5.55,7,.885,10.505A13.077,13.077,0,0,1,52.1,34.1c1.479-2.064,3.553-3.868,4.429-6.307.53-1.475,2.9-.839,2.366.652-.887,2.468-2.659,4.3-4.247,6.32A11.226,11.226,0,0,0,52.1,42.119a1.1,1.1,0,0,1-.329.858,125.2,125.2,0,0,0,3.167,16.782c.275.378.545.761.8,1.156a1.056,1.056,0,0,1-.088,1.348,83.9,83.9,0,0,0,4.123,10.79,7.044,7.044,0,0,0,1.171-3.185c.279-1.788.287-3.633.393-5.437l.725-12.379c.092-1.569,2.546-1.58,2.454,0q-.391,6.672-.782,13.345c-.2,3.392-.063,7.577-2.819,10.045a112.886,112.886,0,0,0,7.9,13.4C69.853,82.592,70.945,76.336,71.459,70.023Zm55.7,98.142a107.89,107.89,0,0,0-37.331-.5,104.365,104.365,0,0,0-18.73,4.883l-2.644,2.072A97.192,97.192,0,0,0,102.5,186.2a146.576,146.576,0,0,0,38.3.41,46.845,46.845,0,0,0,11.2-2.2,40.747,40.747,0,0,0,5.775-2.945l-10.5-1.326c-4.265-.538-8.536-1.178-12.832-1.413-4.194-.23-8.289.323-12.465.565a49.9,49.9,0,0,1-10.479-.59,1.63,1.63,0,0,1-.16.234,13.772,13.772,0,0,1-9.477,4.887c-1.573.136-1.564-2.318,0-2.454a11.219,11.219,0,0,0,6.808-3.161c-4.37-.853-8.657-2.08-12.933-3.309a1.228,1.228,0,0,1,.652-2.366c7.912,2.273,16,4.608,24.316,4.363,2.152-.064,4.289-.278,6.428-.452a15.81,15.81,0,0,0-6.159-2.323,1.235,1.235,0,0,1-.857-1.509,1.258,1.258,0,0,1,1.509-.857,17.81,17.81,0,0,1,9.155,4.417c.018.016.032.032.048.048.775-.023,1.552-.027,2.331,0,4.241.137,8.454.755,12.659,1.286l12.049,1.521A105.711,105.711,0,0,0,127.157,168.165Zm9.435-10.475a29.667,29.667,0,0,1-1.117-14.592,54.261,54.261,0,0,1,1.872-6.856,1.339,1.339,0,0,1-.2-.261,30.458,30.458,0,0,0-5.695-7.081c-1.163-1.073.575-2.8,1.735-1.735a32.654,32.654,0,0,1,5.07,5.958,21.293,21.293,0,0,0,.792-5.921c-.086-3.232-1.493-6.253-1.8-9.462-.152-1.57,2.3-1.56,2.454,0,.269,2.779,1.4,5.394,1.713,8.171a21.717,21.717,0,0,1-.855,7.983c-.605,2.274-1.389,4.5-2.011,6.765a1.209,1.209,0,0,1,1.368-.109,1.239,1.239,0,0,1,.44,1.678,7.52,7.52,0,0,1-2.644,2.454,27.413,27.413,0,0,0-.192,5.123,27.128,27.128,0,0,0,1.534,7.52c5.134-15.922,9.953-32.967,4.852-49.482a37.412,37.412,0,0,0-6.19-12.067A1.564,1.564,0,0,1,137.38,95c-4.29,7.471-6.517,15.88-8.188,24.282a75.1,75.1,0,0,0-1.934,14.028,31.352,31.352,0,0,0,2.843,12.836A85.341,85.341,0,0,0,136.592,157.69Zm-86.962-37.3c3.267.3,6.539.542,9.81.779a96.475,96.475,0,0,0,9.9.359c6.261-.191,12.819-1.739,17.368-6.294-.13-.147-.262-.292-.392-.439a1.207,1.207,0,0,1-1.508,1.05A154.616,154.616,0,0,0,64.021,112.1a1.17,1.17,0,0,1-1.516-.121l-.045-.042q-4.279-.428-8.581-.616c-2.378-.1-4.771-.1-7.169-.085a5.4,5.4,0,0,1-2.528,4.6c-1.756,1.264-4.1,1.46-5.777,2.844a1.309,1.309,0,0,1-.457.249C41.817,119.574,45.721,120.029,49.63,120.389ZM30.587,117.4c2.068.515,4.153.951,6.248,1.326a1.073,1.073,0,0,1-.165-1.79c1.482-1.224,3.238-1.709,4.96-2.482,1.214-.544,2.885-1.693,2.6-3.2-5.576.051-11.16.053-16.623-1.021a25.461,25.461,0,0,1-12.246-5.792c-1.179-1.056.561-2.786,1.735-1.735,6.062,5.431,14.66,6,22.411,6.052,4.581.03,9.157-.1,13.737.079q2.982.116,5.956.35a39.058,39.058,0,0,0-7.906-4.593,1.236,1.236,0,0,1-.44-1.679,1.256,1.256,0,0,1,1.678-.44,40.469,40.469,0,0,1,11,7.112q2.429.257,4.851.585a156.261,156.261,0,0,1,15.369,2.889,81.829,81.829,0,0,0-24.092-10.327,113,113,0,0,0-33.286-3c-4.21.2-8.408.577-12.588,1.1a1.447,1.447,0,0,1-1.076.22c-.1-.016-.208-.028-.312-.042q-2.821.374-5.631.827a1.393,1.393,0,0,1-1.18-.31,17.041,17.041,0,0,0-2.41.9C10.415,110.219,20.367,114.855,30.587,117.4Z" transform="translate(144.173 0) rotate(42)" fill="#fff"/>
    </g>
  </g>
</svg>
